<?xml version="1.0" encoding="UTF-8"?>
<!DOCTYPE svg PUBLIC "-//W3C//DTD SVG 1.1//EN" "http://www.w3.org/Graphics/SVG/1.1/DTD/svg11.dtd">
<svg width="203mm" height="143mm" viewBox="0 0 20300 14300" version="1.1" baseProfile="tiny" xmlns="http://www.w3.org/2000/svg" stroke-width="28.222" stroke-linejoin="round" xml:space="preserve">
 <path fill="rgb(255,255,255)" stroke="none" d="M 10160,14342 L 0,14342 0,0 20320,0 20320,14342 10160,14342 Z"/>
 <path fill="none" stroke="rgb(179,179,179)" stroke-linejoin="round" d="M 10982,11645 L 2329,11645 2329,1713 19635,1713 19635,11645 10982,11645 Z"/>
 <path fill="none" stroke="rgb(179,179,179)" stroke-linejoin="round" d="M 19635,11644 L 2329,11644"/>
 <path fill="none" stroke="rgb(179,179,179)" stroke-linejoin="round" d="M 19635,10540 L 2329,10540"/>
 <path fill="none" stroke="rgb(179,179,179)" stroke-linejoin="round" d="M 19635,9436 L 2329,9436"/>
 <path fill="none" stroke="rgb(179,179,179)" stroke-linejoin="round" d="M 19635,8333 L 2329,8333"/>
 <path fill="none" stroke="rgb(179,179,179)" stroke-linejoin="round" d="M 19635,7229 L 2329,7229"/>
 <path fill="none" stroke="rgb(179,179,179)" stroke-linejoin="round" d="M 19635,6126 L 2329,6126"/>
 <path fill="none" stroke="rgb(179,179,179)" stroke-linejoin="round" d="M 19635,5022 L 2329,5022"/>
 <path fill="none" stroke="rgb(179,179,179)" stroke-linejoin="round" d="M 19635,3919 L 2329,3919"/>
 <path fill="none" stroke="rgb(179,179,179)" stroke-linejoin="round" d="M 19635,2815 L 2329,2815"/>
 <path fill="none" stroke="rgb(179,179,179)" stroke-linejoin="round" d="M 19635,1712 L 2329,1712"/>
 <path fill="none" stroke="rgb(179,179,179)" stroke-linejoin="round" d="M 2329,11794 L 2329,11644"/>
 <path fill="none" stroke="rgb(179,179,179)" stroke-linejoin="round" d="M 2329,11794 L 2329,11644"/>
 <path fill="none" stroke="rgb(179,179,179)" stroke-linejoin="round" d="M 3482,11794 L 3482,11644"/>
 <path fill="none" stroke="rgb(179,179,179)" stroke-linejoin="round" d="M 3482,11794 L 3482,11644"/>
 <path fill="none" stroke="rgb(179,179,179)" stroke-linejoin="round" d="M 4636,11794 L 4636,11644"/>
 <path fill="none" stroke="rgb(179,179,179)" stroke-linejoin="round" d="M 4636,11794 L 4636,11644"/>
 <path fill="none" stroke="rgb(179,179,179)" stroke-linejoin="round" d="M 5790,11794 L 5790,11644"/>
 <path fill="none" stroke="rgb(179,179,179)" stroke-linejoin="round" d="M 5790,11794 L 5790,11644"/>
 <path fill="none" stroke="rgb(179,179,179)" stroke-linejoin="round" d="M 6944,11794 L 6944,11644"/>
 <path fill="none" stroke="rgb(179,179,179)" stroke-linejoin="round" d="M 6944,11794 L 6944,11644"/>
 <path fill="none" stroke="rgb(179,179,179)" stroke-linejoin="round" d="M 8098,11794 L 8098,11644"/>
 <path fill="none" stroke="rgb(179,179,179)" stroke-linejoin="round" d="M 8098,11794 L 8098,11644"/>
 <path fill="none" stroke="rgb(179,179,179)" stroke-linejoin="round" d="M 9251,11794 L 9251,11644"/>
 <path fill="none" stroke="rgb(179,179,179)" stroke-linejoin="round" d="M 9251,11794 L 9251,11644"/>
 <path fill="none" stroke="rgb(179,179,179)" stroke-linejoin="round" d="M 10404,11794 L 10404,11644"/>
 <path fill="none" stroke="rgb(179,179,179)" stroke-linejoin="round" d="M 10404,11794 L 10404,11644"/>
 <path fill="none" stroke="rgb(179,179,179)" stroke-linejoin="round" d="M 11558,11794 L 11558,11644"/>
 <path fill="none" stroke="rgb(179,179,179)" stroke-linejoin="round" d="M 11558,11794 L 11558,11644"/>
 <path fill="none" stroke="rgb(179,179,179)" stroke-linejoin="round" d="M 12712,11794 L 12712,11644"/>
 <path fill="none" stroke="rgb(179,179,179)" stroke-linejoin="round" d="M 12712,11794 L 12712,11644"/>
 <path fill="none" stroke="rgb(179,179,179)" stroke-linejoin="round" d="M 13866,11794 L 13866,11644"/>
 <path fill="none" stroke="rgb(179,179,179)" stroke-linejoin="round" d="M 13866,11794 L 13866,11644"/>
 <path fill="none" stroke="rgb(179,179,179)" stroke-linejoin="round" d="M 15019,11794 L 15019,11644"/>
 <path fill="none" stroke="rgb(179,179,179)" stroke-linejoin="round" d="M 15019,11794 L 15019,11644"/>
 <path fill="none" stroke="rgb(179,179,179)" stroke-linejoin="round" d="M 16173,11794 L 16173,11644"/>
 <path fill="none" stroke="rgb(179,179,179)" stroke-linejoin="round" d="M 16173,11794 L 16173,11644"/>
 <path fill="none" stroke="rgb(179,179,179)" stroke-linejoin="round" d="M 17327,11794 L 17327,11644"/>
 <path fill="none" stroke="rgb(179,179,179)" stroke-linejoin="round" d="M 17327,11794 L 17327,11644"/>
 <path fill="none" stroke="rgb(179,179,179)" stroke-linejoin="round" d="M 18481,11794 L 18481,11644"/>
 <path fill="none" stroke="rgb(179,179,179)" stroke-linejoin="round" d="M 18481,11794 L 18481,11644"/>
 <path fill="none" stroke="rgb(179,179,179)" stroke-linejoin="round" d="M 19635,11794 L 19635,11644"/>
 <path fill="none" stroke="rgb(179,179,179)" stroke-linejoin="round" d="M 19635,11794 L 19635,11644"/>
 <path fill="none" stroke="rgb(179,179,179)" stroke-linejoin="round" d="M 2329,11644 L 19635,11644"/>
 <path fill="none" stroke="rgb(179,179,179)" stroke-linejoin="round" d="M 2179,11644 L 2329,11644"/>
 <path fill="none" stroke="rgb(179,179,179)" stroke-linejoin="round" d="M 2179,11644 L 2329,11644"/>
 <path fill="none" stroke="rgb(179,179,179)" stroke-linejoin="round" d="M 2179,10540 L 2329,10540"/>
 <path fill="none" stroke="rgb(179,179,179)" stroke-linejoin="round" d="M 2179,10540 L 2329,10540"/>
 <path fill="none" stroke="rgb(179,179,179)" stroke-linejoin="round" d="M 2179,9436 L 2329,9436"/>
 <path fill="none" stroke="rgb(179,179,179)" stroke-linejoin="round" d="M 2179,9436 L 2329,9436"/>
 <path fill="none" stroke="rgb(179,179,179)" stroke-linejoin="round" d="M 2179,8333 L 2329,8333"/>
 <path fill="none" stroke="rgb(179,179,179)" stroke-linejoin="round" d="M 2179,8333 L 2329,8333"/>
 <path fill="none" stroke="rgb(179,179,179)" stroke-linejoin="round" d="M 2179,7229 L 2329,7229"/>
 <path fill="none" stroke="rgb(179,179,179)" stroke-linejoin="round" d="M 2179,7229 L 2329,7229"/>
 <path fill="none" stroke="rgb(179,179,179)" stroke-linejoin="round" d="M 2179,6126 L 2329,6126"/>
 <path fill="none" stroke="rgb(179,179,179)" stroke-linejoin="round" d="M 2179,6126 L 2329,6126"/>
 <path fill="none" stroke="rgb(179,179,179)" stroke-linejoin="round" d="M 2179,5022 L 2329,5022"/>
 <path fill="none" stroke="rgb(179,179,179)" stroke-linejoin="round" d="M 2179,5022 L 2329,5022"/>
 <path fill="none" stroke="rgb(179,179,179)" stroke-linejoin="round" d="M 2179,3919 L 2329,3919"/>
 <path fill="none" stroke="rgb(179,179,179)" stroke-linejoin="round" d="M 2179,3919 L 2329,3919"/>
 <path fill="none" stroke="rgb(179,179,179)" stroke-linejoin="round" d="M 2179,2815 L 2329,2815"/>
 <path fill="none" stroke="rgb(179,179,179)" stroke-linejoin="round" d="M 2179,2815 L 2329,2815"/>
 <path fill="none" stroke="rgb(179,179,179)" stroke-linejoin="round" d="M 2179,1712 L 2329,1712"/>
 <path fill="none" stroke="rgb(179,179,179)" stroke-linejoin="round" d="M 2179,1712 L 2329,1712"/>
 <path fill="none" stroke="rgb(179,179,179)" stroke-linejoin="round" d="M 2329,11644 L 2329,1712"/>
 <path fill="none" stroke="rgb(0,69,134)" stroke-width="80" stroke-linejoin="round" d="M 2329,10443 L 3482,10448 4636,10432 5790,10401 6944,10333 8097,10209 9251,9201 10404,8756 11558,8234 12712,7787 13866,7013 15019,6535 16173,5672 17327,5022 18481,4171 19635,2882"/>
 <path fill="rgb(0,69,134)" stroke="none" d="M 2204,10318 L 2204,10568 2454,10568 2454,10318 2204,10318 Z"/>
 <path fill="none" stroke="rgb(0,69,134)" stroke-linejoin="round" d="M 2204,10318 L 2204,10568 2454,10568 2454,10318 2204,10318 Z"/>
 <path fill="rgb(0,69,134)" stroke="none" d="M 3357,10323 L 3357,10573 3607,10573 3607,10323 3357,10323 Z"/>
 <path fill="none" stroke="rgb(0,69,134)" stroke-linejoin="round" d="M 3357,10323 L 3357,10573 3607,10573 3607,10323 3357,10323 Z"/>
 <path fill="rgb(0,69,134)" stroke="none" d="M 4511,10307 L 4511,10557 4761,10557 4761,10307 4511,10307 Z"/>
 <path fill="none" stroke="rgb(0,69,134)" stroke-linejoin="round" d="M 4511,10307 L 4511,10557 4761,10557 4761,10307 4511,10307 Z"/>
 <path fill="rgb(0,69,134)" stroke="none" d="M 5665,10276 L 5665,10526 5915,10526 5915,10276 5665,10276 Z"/>
 <path fill="none" stroke="rgb(0,69,134)" stroke-linejoin="round" d="M 5665,10276 L 5665,10526 5915,10526 5915,10276 5665,10276 Z"/>
 <path fill="rgb(0,69,134)" stroke="none" d="M 6819,10208 L 6819,10458 7069,10458 7069,10208 6819,10208 Z"/>
 <path fill="none" stroke="rgb(0,69,134)" stroke-linejoin="round" d="M 6819,10208 L 6819,10458 7069,10458 7069,10208 6819,10208 Z"/>
 <path fill="rgb(0,69,134)" stroke="none" d="M 7972,10084 L 7972,10334 8223,10334 8223,10084 7972,10084 Z"/>
 <path fill="none" stroke="rgb(0,69,134)" stroke-linejoin="round" d="M 7972,10084 L 7972,10334 8223,10334 8223,10084 7972,10084 Z"/>
 <path fill="rgb(0,69,134)" stroke="none" d="M 9126,9076 L 9126,9326 9376,9326 9376,9076 9126,9076 Z"/>
 <path fill="none" stroke="rgb(0,69,134)" stroke-linejoin="round" d="M 9126,9076 L 9126,9326 9376,9326 9376,9076 9126,9076 Z"/>
 <path fill="rgb(0,69,134)" stroke="none" d="M 10279,8631 L 10279,8881 10529,8881 10529,8631 10279,8631 Z"/>
 <path fill="none" stroke="rgb(0,69,134)" stroke-linejoin="round" d="M 10279,8631 L 10279,8881 10529,8881 10529,8631 10279,8631 Z"/>
 <path fill="rgb(0,69,134)" stroke="none" d="M 11433,8109 L 11433,8359 11683,8359 11683,8109 11433,8109 Z"/>
 <path fill="none" stroke="rgb(0,69,134)" stroke-linejoin="round" d="M 11433,8109 L 11433,8359 11683,8359 11683,8109 11433,8109 Z"/>
 <path fill="rgb(0,69,134)" stroke="none" d="M 12587,7662 L 12587,7912 12837,7912 12837,7662 12587,7662 Z"/>
 <path fill="none" stroke="rgb(0,69,134)" stroke-linejoin="round" d="M 12587,7662 L 12587,7912 12837,7912 12837,7662 12587,7662 Z"/>
 <path fill="rgb(0,69,134)" stroke="none" d="M 13741,6888 L 13741,7138 13991,7138 13991,6888 13741,6888 Z"/>
 <path fill="none" stroke="rgb(0,69,134)" stroke-linejoin="round" d="M 13741,6888 L 13741,7138 13991,7138 13991,6888 13741,6888 Z"/>
 <path fill="rgb(0,69,134)" stroke="none" d="M 14894,6410 L 14894,6660 15144,6660 15144,6410 14894,6410 Z"/>
 <path fill="none" stroke="rgb(0,69,134)" stroke-linejoin="round" d="M 14894,6410 L 14894,6660 15144,6660 15144,6410 14894,6410 Z"/>
 <path fill="rgb(0,69,134)" stroke="none" d="M 16048,5547 L 16048,5797 16298,5797 16298,5547 16048,5547 Z"/>
 <path fill="none" stroke="rgb(0,69,134)" stroke-linejoin="round" d="M 16048,5547 L 16048,5797 16298,5797 16298,5547 16048,5547 Z"/>
 <path fill="rgb(0,69,134)" stroke="none" d="M 17202,4897 L 17202,5147 17452,5147 17452,4897 17202,4897 Z"/>
 <path fill="none" stroke="rgb(0,69,134)" stroke-linejoin="round" d="M 17202,4897 L 17202,5147 17452,5147 17452,4897 17202,4897 Z"/>
 <path fill="rgb(0,69,134)" stroke="none" d="M 18356,4046 L 18356,4296 18606,4296 18606,4046 18356,4046 Z"/>
 <path fill="none" stroke="rgb(0,69,134)" stroke-linejoin="round" d="M 18356,4046 L 18356,4296 18606,4296 18606,4046 18356,4046 Z"/>
 <path fill="rgb(0,69,134)" stroke="none" d="M 19510,2757 L 19510,3007 19760,3007 19760,2757 19510,2757 Z"/>
 <path fill="none" stroke="rgb(0,69,134)" stroke-linejoin="round" d="M 19510,2757 L 19510,3007 19760,3007 19760,2757 19510,2757 Z"/>
 <path fill="none" stroke="rgb(255,66,14)" stroke-width="80" stroke-linejoin="round" d="M 2329,3829 L 3482,7717 4636,9680 5790,10766 6944,11025 8097,10929 9251,10676 10404,10522 11558,10314 12712,10077 13866,9712 15019,9409 16173,8964 17327,8509 18481,8054 19635,7601"/>
 <path fill="rgb(255,66,14)" stroke="none" d="M 2204,3829 L 2329,3954 2454,3829 2329,3704 2204,3829 Z"/>
 <path fill="none" stroke="rgb(255,66,14)" stroke-linejoin="round" d="M 2204,3829 L 2329,3954 2454,3829 2329,3704 2204,3829 Z"/>
 <path fill="rgb(255,66,14)" stroke="none" d="M 3357,7717 L 3482,7842 3607,7717 3482,7592 3357,7717 Z"/>
 <path fill="none" stroke="rgb(255,66,14)" stroke-linejoin="round" d="M 3357,7717 L 3482,7842 3607,7717 3482,7592 3357,7717 Z"/>
 <path fill="rgb(255,66,14)" stroke="none" d="M 4511,9680 L 4636,9805 4761,9680 4636,9555 4511,9680 Z"/>
 <path fill="none" stroke="rgb(255,66,14)" stroke-linejoin="round" d="M 4511,9680 L 4636,9805 4761,9680 4636,9555 4511,9680 Z"/>
 <path fill="rgb(255,66,14)" stroke="none" d="M 5665,10766 L 5790,10891 5915,10766 5790,10641 5665,10766 Z"/>
 <path fill="none" stroke="rgb(255,66,14)" stroke-linejoin="round" d="M 5665,10766 L 5790,10891 5915,10766 5790,10641 5665,10766 Z"/>
 <path fill="rgb(255,66,14)" stroke="none" d="M 6819,11025 L 6944,11150 7069,11025 6944,10900 6819,11025 Z"/>
 <path fill="none" stroke="rgb(255,66,14)" stroke-linejoin="round" d="M 6819,11025 L 6944,11150 7069,11025 6944,10900 6819,11025 Z"/>
 <path fill="rgb(255,66,14)" stroke="none" d="M 7972,10929 L 8097,11054 8223,10929 8097,10804 7972,10929 Z"/>
 <path fill="none" stroke="rgb(255,66,14)" stroke-linejoin="round" d="M 7972,10929 L 8097,11054 8223,10929 8097,10804 7972,10929 Z"/>
 <path fill="rgb(255,66,14)" stroke="none" d="M 9126,10676 L 9251,10801 9376,10676 9251,10551 9126,10676 Z"/>
 <path fill="none" stroke="rgb(255,66,14)" stroke-linejoin="round" d="M 9126,10676 L 9251,10801 9376,10676 9251,10551 9126,10676 Z"/>
 <path fill="rgb(255,66,14)" stroke="none" d="M 10279,10522 L 10404,10647 10529,10522 10404,10397 10279,10522 Z"/>
 <path fill="none" stroke="rgb(255,66,14)" stroke-linejoin="round" d="M 10279,10522 L 10404,10647 10529,10522 10404,10397 10279,10522 Z"/>
 <path fill="rgb(255,66,14)" stroke="none" d="M 11433,10314 L 11558,10439 11683,10314 11558,10189 11433,10314 Z"/>
 <path fill="none" stroke="rgb(255,66,14)" stroke-linejoin="round" d="M 11433,10314 L 11558,10439 11683,10314 11558,10189 11433,10314 Z"/>
 <path fill="rgb(255,66,14)" stroke="none" d="M 12587,10077 L 12712,10202 12837,10077 12712,9952 12587,10077 Z"/>
 <path fill="none" stroke="rgb(255,66,14)" stroke-linejoin="round" d="M 12587,10077 L 12712,10202 12837,10077 12712,9952 12587,10077 Z"/>
 <path fill="rgb(255,66,14)" stroke="none" d="M 13741,9712 L 13866,9837 13991,9712 13866,9587 13741,9712 Z"/>
 <path fill="none" stroke="rgb(255,66,14)" stroke-linejoin="round" d="M 13741,9712 L 13866,9837 13991,9712 13866,9587 13741,9712 Z"/>
 <path fill="rgb(255,66,14)" stroke="none" d="M 14894,9409 L 15019,9534 15144,9409 15019,9284 14894,9409 Z"/>
 <path fill="none" stroke="rgb(255,66,14)" stroke-linejoin="round" d="M 14894,9409 L 15019,9534 15144,9409 15019,9284 14894,9409 Z"/>
 <path fill="rgb(255,66,14)" stroke="none" d="M 16048,8964 L 16173,9089 16298,8964 16173,8839 16048,8964 Z"/>
 <path fill="none" stroke="rgb(255,66,14)" stroke-linejoin="round" d="M 16048,8964 L 16173,9089 16298,8964 16173,8839 16048,8964 Z"/>
 <path fill="rgb(255,66,14)" stroke="none" d="M 17202,8509 L 17327,8634 17452,8509 17327,8384 17202,8509 Z"/>
 <path fill="none" stroke="rgb(255,66,14)" stroke-linejoin="round" d="M 17202,8509 L 17327,8634 17452,8509 17327,8384 17202,8509 Z"/>
 <path fill="rgb(255,66,14)" stroke="none" d="M 18356,8054 L 18481,8179 18606,8054 18481,7929 18356,8054 Z"/>
 <path fill="none" stroke="rgb(255,66,14)" stroke-linejoin="round" d="M 18356,8054 L 18481,8179 18606,8054 18481,7929 18356,8054 Z"/>
 <path fill="rgb(255,66,14)" stroke="none" d="M 19510,7601 L 19635,7726 19760,7601 19635,7476 19510,7601 Z"/>
 <path fill="none" stroke="rgb(255,66,14)" stroke-linejoin="round" d="M 19510,7601 L 19635,7726 19760,7601 19635,7476 19510,7601 Z"/>
 <path fill="none" stroke="rgb(255,211,32)" stroke-width="80" stroke-linejoin="round" d="M 2329,10242 L 3482,9482 4636,9459 5790,9763 6944,9805 8097,6770 9251,7248 10404,6968 11558,7317 12712,7750 13866,8228 15019,8053 16173,8163 17327,8578 18481,8512 19635,8184"/>
 <path fill="rgb(255,211,32)" stroke="none" d="M 2204,10117 L 2329,10367 2454,10117 2204,10117 Z"/>
 <path fill="none" stroke="rgb(255,211,32)" stroke-linejoin="round" d="M 2204,10117 L 2329,10367 2454,10117 2204,10117 Z"/>
 <path fill="rgb(255,211,32)" stroke="none" d="M 3357,9357 L 3482,9607 3607,9357 3357,9357 Z"/>
 <path fill="none" stroke="rgb(255,211,32)" stroke-linejoin="round" d="M 3357,9357 L 3482,9607 3607,9357 3357,9357 Z"/>
 <path fill="rgb(255,211,32)" stroke="none" d="M 4511,9334 L 4636,9584 4761,9334 4511,9334 Z"/>
 <path fill="none" stroke="rgb(255,211,32)" stroke-linejoin="round" d="M 4511,9334 L 4636,9584 4761,9334 4511,9334 Z"/>
 <path fill="rgb(255,211,32)" stroke="none" d="M 5665,9638 L 5790,9888 5915,9638 5665,9638 Z"/>
 <path fill="none" stroke="rgb(255,211,32)" stroke-linejoin="round" d="M 5665,9638 L 5790,9888 5915,9638 5665,9638 Z"/>
 <path fill="rgb(255,211,32)" stroke="none" d="M 6819,9680 L 6944,9930 7069,9680 6819,9680 Z"/>
 <path fill="none" stroke="rgb(255,211,32)" stroke-linejoin="round" d="M 6819,9680 L 6944,9930 7069,9680 6819,9680 Z"/>
 <path fill="rgb(255,211,32)" stroke="none" d="M 7972,6645 L 8097,6895 8223,6645 7972,6645 Z"/>
 <path fill="none" stroke="rgb(255,211,32)" stroke-linejoin="round" d="M 7972,6645 L 8097,6895 8223,6645 7972,6645 Z"/>
 <path fill="rgb(255,211,32)" stroke="none" d="M 9126,7124 L 9251,7373 9376,7124 9126,7124 Z"/>
 <path fill="none" stroke="rgb(255,211,32)" stroke-linejoin="round" d="M 9126,7124 L 9251,7373 9376,7124 9126,7124 Z"/>
 <path fill="rgb(255,211,32)" stroke="none" d="M 10279,6843 L 10404,7093 10529,6843 10279,6843 Z"/>
 <path fill="none" stroke="rgb(255,211,32)" stroke-linejoin="round" d="M 10279,6843 L 10404,7093 10529,6843 10279,6843 Z"/>
 <path fill="rgb(255,211,32)" stroke="none" d="M 11433,7192 L 11558,7442 11683,7192 11433,7192 Z"/>
 <path fill="none" stroke="rgb(255,211,32)" stroke-linejoin="round" d="M 11433,7192 L 11558,7442 11683,7192 11433,7192 Z"/>
 <path fill="rgb(255,211,32)" stroke="none" d="M 12587,7625 L 12712,7875 12837,7625 12587,7625 Z"/>
 <path fill="none" stroke="rgb(255,211,32)" stroke-linejoin="round" d="M 12587,7625 L 12712,7875 12837,7625 12587,7625 Z"/>
 <path fill="rgb(255,211,32)" stroke="none" d="M 13741,8103 L 13866,8353 13991,8103 13741,8103 Z"/>
 <path fill="none" stroke="rgb(255,211,32)" stroke-linejoin="round" d="M 13741,8103 L 13866,8353 13991,8103 13741,8103 Z"/>
 <path fill="rgb(255,211,32)" stroke="none" d="M 14894,7928 L 15019,8178 15144,7928 14894,7928 Z"/>
 <path fill="none" stroke="rgb(255,211,32)" stroke-linejoin="round" d="M 14894,7928 L 15019,8178 15144,7928 14894,7928 Z"/>
 <path fill="rgb(255,211,32)" stroke="none" d="M 16048,8038 L 16173,8288 16298,8038 16048,8038 Z"/>
 <path fill="none" stroke="rgb(255,211,32)" stroke-linejoin="round" d="M 16048,8038 L 16173,8288 16298,8038 16048,8038 Z"/>
 <path fill="rgb(255,211,32)" stroke="none" d="M 17202,8453 L 17327,8703 17452,8453 17202,8453 Z"/>
 <path fill="none" stroke="rgb(255,211,32)" stroke-linejoin="round" d="M 17202,8453 L 17327,8703 17452,8453 17202,8453 Z"/>
 <path fill="rgb(255,211,32)" stroke="none" d="M 18356,8387 L 18481,8637 18606,8387 18356,8387 Z"/>
 <path fill="none" stroke="rgb(255,211,32)" stroke-linejoin="round" d="M 18356,8387 L 18481,8637 18606,8387 18356,8387 Z"/>
 <path fill="rgb(255,211,32)" stroke="none" d="M 19510,8059 L 19635,8309 19760,8059 19510,8059 Z"/>
 <path fill="none" stroke="rgb(255,211,32)" stroke-linejoin="round" d="M 19510,8059 L 19635,8309 19760,8059 19510,8059 Z"/>
 <text class="TextShape"><tspan class="TextParagraph" font-family="Liberation Sans" font-size="353px" font-weight="400"><tspan class="TextPosition" x="2236" y="12212"/><tspan class="TextPosition" x="2236" y="12212"><tspan fill="rgb(0,0,0)" stroke="none">1</tspan></tspan></tspan></text>
 <text class="TextShape"><tspan class="TextParagraph" font-family="Liberation Sans" font-size="353px" font-weight="400"><tspan class="TextPosition" x="3389" y="12212"/><tspan class="TextPosition" x="3389" y="12212"><tspan fill="rgb(0,0,0)" stroke="none">2</tspan></tspan></tspan></text>
 <text class="TextShape"><tspan class="TextParagraph" font-family="Liberation Sans" font-size="353px" font-weight="400"><tspan class="TextPosition" x="4543" y="12212"/><tspan class="TextPosition" x="4543" y="12212"><tspan fill="rgb(0,0,0)" stroke="none">4</tspan></tspan></tspan></text>
 <text class="TextShape"><tspan class="TextParagraph" font-family="Liberation Sans" font-size="353px" font-weight="400"><tspan class="TextPosition" x="5605" y="12212"/><tspan class="TextPosition" x="5605" y="12212"><tspan fill="rgb(0,0,0)" stroke="none">10</tspan></tspan></tspan></text>
 <text class="TextShape"><tspan class="TextParagraph" font-family="Liberation Sans" font-size="353px" font-weight="400"><tspan class="TextPosition" x="6759" y="12212"/><tspan class="TextPosition" x="6759" y="12212"><tspan fill="rgb(0,0,0)" stroke="none">20</tspan></tspan></tspan></text>
 <text class="TextShape"><tspan class="TextParagraph" font-family="Liberation Sans" font-size="353px" font-weight="400"><tspan class="TextPosition" x="7913" y="12212"/><tspan class="TextPosition" x="7913" y="12212"><tspan fill="rgb(0,0,0)" stroke="none">40</tspan></tspan></tspan></text>
 <text class="TextShape"><tspan class="TextParagraph" font-family="Liberation Sans" font-size="353px" font-weight="400"><tspan class="TextPosition" x="9066" y="12212"/><tspan class="TextPosition" x="9066" y="12212"><tspan fill="rgb(0,0,0)" stroke="none">60</tspan></tspan></tspan></text>
 <text class="TextShape"><tspan class="TextParagraph" font-family="Liberation Sans" font-size="353px" font-weight="400"><tspan class="TextPosition" x="10220" y="12212"/><tspan class="TextPosition" x="10220" y="12212"><tspan fill="rgb(0,0,0)" stroke="none">80</tspan></tspan></tspan></text>
 <text class="TextShape"><tspan class="TextParagraph" font-family="Liberation Sans" font-size="353px" font-weight="400"><tspan class="TextPosition" x="11281" y="12212"/><tspan class="TextPosition" x="11281" y="12212"><tspan fill="rgb(0,0,0)" stroke="none">100</tspan></tspan></tspan></text>
 <text class="TextShape"><tspan class="TextParagraph" font-family="Liberation Sans" font-size="353px" font-weight="400"><tspan class="TextPosition" x="12435" y="12212"/><tspan class="TextPosition" x="12435" y="12212"><tspan fill="rgb(0,0,0)" stroke="none">120</tspan></tspan></tspan></text>
 <text class="TextShape"><tspan class="TextParagraph" font-family="Liberation Sans" font-size="353px" font-weight="400"><tspan class="TextPosition" x="13589" y="12212"/><tspan class="TextPosition" x="13589" y="12212"><tspan fill="rgb(0,0,0)" stroke="none">140</tspan></tspan></tspan></text>
 <text class="TextShape"><tspan class="TextParagraph" font-family="Liberation Sans" font-size="353px" font-weight="400"><tspan class="TextPosition" x="14742" y="12212"/><tspan class="TextPosition" x="14742" y="12212"><tspan fill="rgb(0,0,0)" stroke="none">160</tspan></tspan></tspan></text>
 <text class="TextShape"><tspan class="TextParagraph" font-family="Liberation Sans" font-size="353px" font-weight="400"><tspan class="TextPosition" x="15896" y="12212"/><tspan class="TextPosition" x="15896" y="12212"><tspan fill="rgb(0,0,0)" stroke="none">180</tspan></tspan></tspan></text>
 <text class="TextShape"><tspan class="TextParagraph" font-family="Liberation Sans" font-size="353px" font-weight="400"><tspan class="TextPosition" x="17050" y="12212"/><tspan class="TextPosition" x="17050" y="12212"><tspan fill="rgb(0,0,0)" stroke="none">200</tspan></tspan></tspan></text>
 <text class="TextShape"><tspan class="TextParagraph" font-family="Liberation Sans" font-size="353px" font-weight="400"><tspan class="TextPosition" x="18204" y="12212"/><tspan class="TextPosition" x="18204" y="12212"><tspan fill="rgb(0,0,0)" stroke="none">220</tspan></tspan></tspan></text>
 <text class="TextShape"><tspan class="TextParagraph" font-family="Liberation Sans" font-size="353px" font-weight="400"><tspan class="TextPosition" x="19358" y="12212"/><tspan class="TextPosition" x="19358" y="12212"><tspan fill="rgb(0,0,0)" stroke="none">240</tspan></tspan></tspan></text>
 <text class="TextShape"><tspan class="TextParagraph" font-family="Liberation Sans" font-size="353px" font-weight="400"><tspan class="TextPosition" x="1894" y="11765"/><tspan class="TextPosition" x="1894" y="11765"><tspan fill="rgb(0,0,0)" stroke="none">0</tspan></tspan></tspan></text>
 <text class="TextShape"><tspan class="TextParagraph" font-family="Liberation Sans" font-size="353px" font-weight="400"><tspan class="TextPosition" x="1418" y="10661"/><tspan class="TextPosition" x="1418" y="10661"><tspan fill="rgb(0,0,0)" stroke="none">0.05</tspan></tspan></tspan></text>
 <text class="TextShape"><tspan class="TextParagraph" font-family="Liberation Sans" font-size="353px" font-weight="400"><tspan class="TextPosition" x="1603" y="9557"/><tspan class="TextPosition" x="1603" y="9557"><tspan fill="rgb(0,0,0)" stroke="none">0.1</tspan></tspan></tspan></text>
 <text class="TextShape"><tspan class="TextParagraph" font-family="Liberation Sans" font-size="353px" font-weight="400"><tspan class="TextPosition" x="1418" y="8454"/><tspan class="TextPosition" x="1418" y="8454"><tspan fill="rgb(0,0,0)" stroke="none">0.15</tspan></tspan></tspan></text>
 <text class="TextShape"><tspan class="TextParagraph" font-family="Liberation Sans" font-size="353px" font-weight="400"><tspan class="TextPosition" x="1603" y="7350"/><tspan class="TextPosition" x="1603" y="7350"><tspan fill="rgb(0,0,0)" stroke="none">0.2</tspan></tspan></tspan></text>
 <text class="TextShape"><tspan class="TextParagraph" font-family="Liberation Sans" font-size="353px" font-weight="400"><tspan class="TextPosition" x="1418" y="6246"/><tspan class="TextPosition" x="1418" y="6246"><tspan fill="rgb(0,0,0)" stroke="none">0.25</tspan></tspan></tspan></text>
 <text class="TextShape"><tspan class="TextParagraph" font-family="Liberation Sans" font-size="353px" font-weight="400"><tspan class="TextPosition" x="1603" y="5142"/><tspan class="TextPosition" x="1603" y="5142"><tspan fill="rgb(0,0,0)" stroke="none">0.3</tspan></tspan></tspan></text>
 <text class="TextShape"><tspan class="TextParagraph" font-family="Liberation Sans" font-size="353px" font-weight="400"><tspan class="TextPosition" x="1418" y="4039"/><tspan class="TextPosition" x="1418" y="4039"><tspan fill="rgb(0,0,0)" stroke="none">0.35</tspan></tspan></tspan></text>
 <text class="TextShape"><tspan class="TextParagraph" font-family="Liberation Sans" font-size="353px" font-weight="400"><tspan class="TextPosition" x="1603" y="2935"/><tspan class="TextPosition" x="1603" y="2935"><tspan fill="rgb(0,0,0)" stroke="none">0.4</tspan></tspan></tspan></text>
 <text class="TextShape"><tspan class="TextParagraph" font-family="Liberation Sans" font-size="353px" font-weight="400"><tspan class="TextPosition" x="1418" y="1832"/><tspan class="TextPosition" x="1418" y="1832"><tspan fill="rgb(0,0,0)" stroke="none">0.45</tspan></tspan></tspan></text>
 <text class="TextShape"><tspan class="TextParagraph" font-family="Liberation Sans" font-size="459px" font-weight="400"><tspan class="TextPosition" x="8585" y="983"/><tspan class="TextPosition" x="8585" y="983"><tspan fill="rgb(0,0,0)" stroke="none">Overheads time</tspan></tspan></tspan></text>
 <path fill="none" stroke="rgb(0,69,134)" stroke-width="80" stroke-linejoin="round" d="M 5400,13857 L 6200,13857"/>
 <path fill="rgb(0,69,134)" stroke="none" d="M 5694,13752 L 5694,13963 5905,13963 5905,13752 5694,13752 Z"/>
 <path fill="none" stroke="rgb(0,69,134)" stroke-linejoin="round" d="M 5694,13752 L 5694,13963 5905,13963 5905,13752 5694,13752 Z"/>
 <path fill="none" stroke="rgb(255,66,14)" stroke-width="80" stroke-linejoin="round" d="M 8148,13857 L 8948,13857"/>
 <path fill="rgb(255,66,14)" stroke="none" d="M 8442,13857 L 8548,13963 8653,13857 8548,13752 8442,13857 Z"/>
 <path fill="none" stroke="rgb(255,66,14)" stroke-linejoin="round" d="M 8442,13857 L 8548,13963 8653,13857 8548,13752 8442,13857 Z"/>
 <path fill="none" stroke="rgb(255,211,32)" stroke-width="80" stroke-linejoin="round" d="M 11556,13857 L 12356,13857"/>
 <path fill="rgb(255,211,32)" stroke="none" d="M 11850,13752 L 11956,13963 12061,13752 11850,13752 Z"/>
 <path fill="none" stroke="rgb(255,211,32)" stroke-linejoin="round" d="M 11850,13752 L 11956,13963 12061,13752 11850,13752 Z"/>
 <text class="TextShape"><tspan class="TextParagraph" font-family="Liberation Sans" font-size="353px" font-weight="400"><tspan class="TextPosition" x="6300" y="13977"/><tspan class="TextPosition" x="6300" y="13977"><tspan fill="rgb(0,0,0)" stroke="none">Sequential</tspan></tspan></tspan></text>
 <text class="TextShape"><tspan class="TextParagraph" font-family="Liberation Sans" font-size="353px" font-weight="400"><tspan class="TextPosition" x="9048" y="13977"/><tspan class="TextPosition" x="9048" y="13977"><tspan fill="rgb(0,0,0)" stroke="none">Randomization</tspan></tspan></tspan></text>
 <text class="TextShape"><tspan class="TextParagraph" font-family="Liberation Sans" font-size="353px" font-weight="400"><tspan class="TextPosition" x="12456" y="13977"/><tspan class="TextPosition" x="12456" y="13977"><tspan fill="rgb(0,0,0)" stroke="none">Synchronization</tspan></tspan></tspan></text>
 <text class="TextShape"><tspan class="TextParagraph" font-family="Liberation Sans" font-size="318px" font-weight="400"><tspan class="TextPosition" x="10123" y="12965"/><tspan class="TextPosition" x="10123" y="12965"><tspan fill="rgb(0,0,0)" stroke="none">threads</tspan></tspan></tspan></text>
 <text class="TextShape" transform="translate(837,7207) rotate(-90) translate(-837,-7207)"><tspan class="TextParagraph" font-family="Liberation Sans" font-size="318px" font-weight="400"><tspan class="TextPosition" x="837" y="7207"/><tspan class="TextPosition" x="837" y="7207"><tspan fill="rgb(0,0,0)" stroke="none">time</tspan></tspan></tspan></text>
</svg>