<?xml version="1.0" encoding="UTF-8"?>
<!DOCTYPE svg PUBLIC "-//W3C//DTD SVG 1.1//EN" "http://www.w3.org/Graphics/SVG/1.1/DTD/svg11.dtd">
<svg width="199mm" height="139mm" viewBox="0 0 19900 13900" version="1.1" baseProfile="tiny" xmlns="http://www.w3.org/2000/svg" stroke-width="28.222" stroke-linejoin="round" xml:space="preserve">
 <path fill="rgb(255,255,255)" stroke="none" d="M 9939,13918 L 0,13918 0,0 19878,0 19878,13918 9939,13918 Z"/>
 <path fill="none" stroke="rgb(179,179,179)" stroke-linejoin="round" d="M 10522,11229 L 1844,11229 1844,1696 19201,1696 19201,11229 10522,11229 Z"/>
 <path fill="none" stroke="rgb(204,204,204)" stroke-linejoin="round" d="M 19201,11228 L 1844,11228"/>
 <path fill="none" stroke="rgb(204,204,204)" stroke-linejoin="round" d="M 19201,10036 L 1844,10036"/>
 <path fill="none" stroke="rgb(204,204,204)" stroke-linejoin="round" d="M 19201,8844 L 1844,8844"/>
 <path fill="none" stroke="rgb(204,204,204)" stroke-linejoin="round" d="M 19201,7652 L 1844,7652"/>
 <path fill="none" stroke="rgb(204,204,204)" stroke-linejoin="round" d="M 19201,6462 L 1844,6462"/>
 <path fill="none" stroke="rgb(204,204,204)" stroke-linejoin="round" d="M 19201,5270 L 1844,5270"/>
 <path fill="none" stroke="rgb(204,204,204)" stroke-linejoin="round" d="M 19201,4078 L 1844,4078"/>
 <path fill="none" stroke="rgb(204,204,204)" stroke-linejoin="round" d="M 19201,2886 L 1844,2886"/>
 <path fill="none" stroke="rgb(204,204,204)" stroke-linejoin="round" d="M 19201,1695 L 1844,1695"/>
 <path fill="none" stroke="rgb(179,179,179)" stroke-linejoin="round" d="M 1844,11378 L 1844,11228"/>
 <path fill="none" stroke="rgb(179,179,179)" stroke-linejoin="round" d="M 1844,11378 L 1844,11228"/>
 <path fill="none" stroke="rgb(179,179,179)" stroke-linejoin="round" d="M 3422,11378 L 3422,11228"/>
 <path fill="none" stroke="rgb(179,179,179)" stroke-linejoin="round" d="M 3422,11378 L 3422,11228"/>
 <path fill="none" stroke="rgb(179,179,179)" stroke-linejoin="round" d="M 5000,11378 L 5000,11228"/>
 <path fill="none" stroke="rgb(179,179,179)" stroke-linejoin="round" d="M 5000,11378 L 5000,11228"/>
 <path fill="none" stroke="rgb(179,179,179)" stroke-linejoin="round" d="M 6578,11378 L 6578,11228"/>
 <path fill="none" stroke="rgb(179,179,179)" stroke-linejoin="round" d="M 6578,11378 L 6578,11228"/>
 <path fill="none" stroke="rgb(179,179,179)" stroke-linejoin="round" d="M 8156,11378 L 8156,11228"/>
 <path fill="none" stroke="rgb(179,179,179)" stroke-linejoin="round" d="M 8156,11378 L 8156,11228"/>
 <path fill="none" stroke="rgb(179,179,179)" stroke-linejoin="round" d="M 9734,11378 L 9734,11228"/>
 <path fill="none" stroke="rgb(179,179,179)" stroke-linejoin="round" d="M 9734,11378 L 9734,11228"/>
 <path fill="none" stroke="rgb(179,179,179)" stroke-linejoin="round" d="M 11311,11378 L 11311,11228"/>
 <path fill="none" stroke="rgb(179,179,179)" stroke-linejoin="round" d="M 11311,11378 L 11311,11228"/>
 <path fill="none" stroke="rgb(179,179,179)" stroke-linejoin="round" d="M 12889,11378 L 12889,11228"/>
 <path fill="none" stroke="rgb(179,179,179)" stroke-linejoin="round" d="M 12889,11378 L 12889,11228"/>
 <path fill="none" stroke="rgb(179,179,179)" stroke-linejoin="round" d="M 14467,11378 L 14467,11228"/>
 <path fill="none" stroke="rgb(179,179,179)" stroke-linejoin="round" d="M 14467,11378 L 14467,11228"/>
 <path fill="none" stroke="rgb(179,179,179)" stroke-linejoin="round" d="M 16045,11378 L 16045,11228"/>
 <path fill="none" stroke="rgb(179,179,179)" stroke-linejoin="round" d="M 16045,11378 L 16045,11228"/>
 <path fill="none" stroke="rgb(179,179,179)" stroke-linejoin="round" d="M 17623,11378 L 17623,11228"/>
 <path fill="none" stroke="rgb(179,179,179)" stroke-linejoin="round" d="M 17623,11378 L 17623,11228"/>
 <path fill="none" stroke="rgb(179,179,179)" stroke-linejoin="round" d="M 19201,11378 L 19201,11228"/>
 <path fill="none" stroke="rgb(179,179,179)" stroke-linejoin="round" d="M 19201,11378 L 19201,11228"/>
 <path fill="none" stroke="rgb(179,179,179)" stroke-linejoin="round" d="M 1844,11228 L 19201,11228"/>
 <path fill="none" stroke="rgb(179,179,179)" stroke-linejoin="round" d="M 1694,11228 L 1844,11228"/>
 <path fill="none" stroke="rgb(179,179,179)" stroke-linejoin="round" d="M 1694,11228 L 1844,11228"/>
 <path fill="none" stroke="rgb(179,179,179)" stroke-linejoin="round" d="M 1694,10036 L 1844,10036"/>
 <path fill="none" stroke="rgb(179,179,179)" stroke-linejoin="round" d="M 1694,10036 L 1844,10036"/>
 <path fill="none" stroke="rgb(179,179,179)" stroke-linejoin="round" d="M 1694,8844 L 1844,8844"/>
 <path fill="none" stroke="rgb(179,179,179)" stroke-linejoin="round" d="M 1694,8844 L 1844,8844"/>
 <path fill="none" stroke="rgb(179,179,179)" stroke-linejoin="round" d="M 1694,7652 L 1844,7652"/>
 <path fill="none" stroke="rgb(179,179,179)" stroke-linejoin="round" d="M 1694,7652 L 1844,7652"/>
 <path fill="none" stroke="rgb(179,179,179)" stroke-linejoin="round" d="M 1694,6462 L 1844,6462"/>
 <path fill="none" stroke="rgb(179,179,179)" stroke-linejoin="round" d="M 1694,6462 L 1844,6462"/>
 <path fill="none" stroke="rgb(179,179,179)" stroke-linejoin="round" d="M 1694,5270 L 1844,5270"/>
 <path fill="none" stroke="rgb(179,179,179)" stroke-linejoin="round" d="M 1694,5270 L 1844,5270"/>
 <path fill="none" stroke="rgb(179,179,179)" stroke-linejoin="round" d="M 1694,4078 L 1844,4078"/>
 <path fill="none" stroke="rgb(179,179,179)" stroke-linejoin="round" d="M 1694,4078 L 1844,4078"/>
 <path fill="none" stroke="rgb(179,179,179)" stroke-linejoin="round" d="M 1694,2886 L 1844,2886"/>
 <path fill="none" stroke="rgb(179,179,179)" stroke-linejoin="round" d="M 1694,2886 L 1844,2886"/>
 <path fill="none" stroke="rgb(179,179,179)" stroke-linejoin="round" d="M 1694,1695 L 1844,1695"/>
 <path fill="none" stroke="rgb(179,179,179)" stroke-linejoin="round" d="M 1694,1695 L 1844,1695"/>
 <path fill="none" stroke="rgb(179,179,179)" stroke-linejoin="round" d="M 1844,11228 L 1844,1695"/>
 <path fill="rgb(0,69,134)" stroke="none" d="M 1844,11157 L 3422,11150 5000,11096 6578,11072 8156,11043 9734,11019 11311,10977 12889,10952 14467,10905 16045,10870 17623,10824 19201,10754 19201,11228 1844,11228 1844,11157 Z"/>
 <path fill="rgb(255,66,14)" stroke="none" d="M 1844,11123 L 3422,11111 5000,11043 6578,11011 8156,10972 9734,10935 11311,10873 12889,10831 14467,10760 16045,10701 17623,10630 19201,10536 19201,10754 17623,10824 16045,10870 14467,10905 12889,10952 11311,10977 9734,11019 8156,11043 6578,11072 5000,11096 3422,11150 1844,11157 1844,11123 Z"/>
 <path fill="rgb(255,211,32)" stroke="none" d="M 1844,11024 L 3422,10848 5000,10806 6578,10759 8156,10738 9734,10725 11311,10689 12889,10637 14467,10572 16045,10535 17623,10461 19201,10349 19201,10536 17623,10630 16045,10701 14467,10760 12889,10831 11311,10873 9734,10935 8156,10972 6578,11011 5000,11043 3422,11111 1844,11123 1844,11024 Z"/>
 <path fill="rgb(87,157,28)" stroke="none" d="M 1844,2500 L 3422,6434 5000,7526 6578,8173 8156,8609 9734,8914 11311,9048 12889,9130 14467,9191 16045,9222 17623,9244 19201,9235 19201,10349 17623,10461 16045,10535 14467,10572 12889,10637 11311,10689 9734,10725 8156,10738 6578,10759 5000,10806 3422,10848 1844,11024 1844,2500 Z"/>
 <text class="TextShape"><tspan class="TextParagraph" font-family="Liberation Sans, sans-serif" font-size="353px" font-weight="400"><tspan class="TextPosition" x="1659" y="11796"/><tspan class="TextPosition" x="1659" y="11796"><tspan fill="rgb(0,0,0)" stroke="none">20</tspan></tspan></tspan></text>
 <text class="TextShape"><tspan class="TextParagraph" font-family="Liberation Sans, sans-serif" font-size="353px" font-weight="400"><tspan class="TextPosition" x="3237" y="11796"/><tspan class="TextPosition" x="3237" y="11796"><tspan fill="rgb(0,0,0)" stroke="none">40</tspan></tspan></tspan></text>
 <text class="TextShape"><tspan class="TextParagraph" font-family="Liberation Sans, sans-serif" font-size="353px" font-weight="400"><tspan class="TextPosition" x="4815" y="11796"/><tspan class="TextPosition" x="4815" y="11796"><tspan fill="rgb(0,0,0)" stroke="none">60</tspan></tspan></tspan></text>
 <text class="TextShape"><tspan class="TextParagraph" font-family="Liberation Sans, sans-serif" font-size="353px" font-weight="400"><tspan class="TextPosition" x="6393" y="11796"/><tspan class="TextPosition" x="6393" y="11796"><tspan fill="rgb(0,0,0)" stroke="none">80</tspan></tspan></tspan></text>
 <text class="TextShape"><tspan class="TextParagraph" font-family="Liberation Sans, sans-serif" font-size="353px" font-weight="400"><tspan class="TextPosition" x="7878" y="11796"/><tspan class="TextPosition" x="7878" y="11796"><tspan fill="rgb(0,0,0)" stroke="none">100</tspan></tspan></tspan></text>
 <text class="TextShape"><tspan class="TextParagraph" font-family="Liberation Sans, sans-serif" font-size="353px" font-weight="400"><tspan class="TextPosition" x="9456" y="11796"/><tspan class="TextPosition" x="9456" y="11796"><tspan fill="rgb(0,0,0)" stroke="none">120</tspan></tspan></tspan></text>
 <text class="TextShape"><tspan class="TextParagraph" font-family="Liberation Sans, sans-serif" font-size="353px" font-weight="400"><tspan class="TextPosition" x="11034" y="11796"/><tspan class="TextPosition" x="11034" y="11796"><tspan fill="rgb(0,0,0)" stroke="none">140</tspan></tspan></tspan></text>
 <text class="TextShape"><tspan class="TextParagraph" font-family="Liberation Sans, sans-serif" font-size="353px" font-weight="400"><tspan class="TextPosition" x="12612" y="11796"/><tspan class="TextPosition" x="12612" y="11796"><tspan fill="rgb(0,0,0)" stroke="none">160</tspan></tspan></tspan></text>
 <text class="TextShape"><tspan class="TextParagraph" font-family="Liberation Sans, sans-serif" font-size="353px" font-weight="400"><tspan class="TextPosition" x="14190" y="11796"/><tspan class="TextPosition" x="14190" y="11796"><tspan fill="rgb(0,0,0)" stroke="none">180</tspan></tspan></tspan></text>
 <text class="TextShape"><tspan class="TextParagraph" font-family="Liberation Sans, sans-serif" font-size="353px" font-weight="400"><tspan class="TextPosition" x="15768" y="11796"/><tspan class="TextPosition" x="15768" y="11796"><tspan fill="rgb(0,0,0)" stroke="none">200</tspan></tspan></tspan></text>
 <text class="TextShape"><tspan class="TextParagraph" font-family="Liberation Sans, sans-serif" font-size="353px" font-weight="400"><tspan class="TextPosition" x="17346" y="11796"/><tspan class="TextPosition" x="17346" y="11796"><tspan fill="rgb(0,0,0)" stroke="none">220</tspan></tspan></tspan></text>
 <text class="TextShape"><tspan class="TextParagraph" font-family="Liberation Sans, sans-serif" font-size="353px" font-weight="400"><tspan class="TextPosition" x="18924" y="11796"/><tspan class="TextPosition" x="18924" y="11796"><tspan fill="rgb(0,0,0)" stroke="none">240</tspan></tspan></tspan></text>
 <text class="TextShape"><tspan class="TextParagraph" font-family="Liberation Sans, sans-serif" font-size="353px" font-weight="400"><tspan class="TextPosition" x="1409" y="11349"/><tspan class="TextPosition" x="1409" y="11349"><tspan fill="rgb(0,0,0)" stroke="none">0</tspan></tspan></tspan></text>
 <text class="TextShape"><tspan class="TextParagraph" font-family="Liberation Sans, sans-serif" font-size="353px" font-weight="400"><tspan class="TextPosition" x="1409" y="10157"/><tspan class="TextPosition" x="1409" y="10157"><tspan fill="rgb(0,0,0)" stroke="none">1</tspan></tspan></tspan></text>
 <text class="TextShape"><tspan class="TextParagraph" font-family="Liberation Sans, sans-serif" font-size="353px" font-weight="400"><tspan class="TextPosition" x="1409" y="8965"/><tspan class="TextPosition" x="1409" y="8965"><tspan fill="rgb(0,0,0)" stroke="none">2</tspan></tspan></tspan></text>
 <text class="TextShape"><tspan class="TextParagraph" font-family="Liberation Sans, sans-serif" font-size="353px" font-weight="400"><tspan class="TextPosition" x="1409" y="7773"/><tspan class="TextPosition" x="1409" y="7773"><tspan fill="rgb(0,0,0)" stroke="none">3</tspan></tspan></tspan></text>
 <text class="TextShape"><tspan class="TextParagraph" font-family="Liberation Sans, sans-serif" font-size="353px" font-weight="400"><tspan class="TextPosition" x="1409" y="6582"/><tspan class="TextPosition" x="1409" y="6582"><tspan fill="rgb(0,0,0)" stroke="none">4</tspan></tspan></tspan></text>
 <text class="TextShape"><tspan class="TextParagraph" font-family="Liberation Sans, sans-serif" font-size="353px" font-weight="400"><tspan class="TextPosition" x="1409" y="5390"/><tspan class="TextPosition" x="1409" y="5390"><tspan fill="rgb(0,0,0)" stroke="none">5</tspan></tspan></tspan></text>
 <text class="TextShape"><tspan class="TextParagraph" font-family="Liberation Sans, sans-serif" font-size="353px" font-weight="400"><tspan class="TextPosition" x="1409" y="4198"/><tspan class="TextPosition" x="1409" y="4198"><tspan fill="rgb(0,0,0)" stroke="none">6</tspan></tspan></tspan></text>
 <text class="TextShape"><tspan class="TextParagraph" font-family="Liberation Sans, sans-serif" font-size="353px" font-weight="400"><tspan class="TextPosition" x="1409" y="3006"/><tspan class="TextPosition" x="1409" y="3006"><tspan fill="rgb(0,0,0)" stroke="none">7</tspan></tspan></tspan></text>
 <text class="TextShape"><tspan class="TextParagraph" font-family="Liberation Sans, sans-serif" font-size="353px" font-weight="400"><tspan class="TextPosition" x="1409" y="1815"/><tspan class="TextPosition" x="1409" y="1815"><tspan fill="rgb(0,0,0)" stroke="none">8</tspan></tspan></tspan></text>
 <text class="TextShape"><tspan class="TextParagraph" font-family="Liberation Sans, sans-serif" font-size="459px" font-weight="400"><tspan class="TextPosition" x="6830" y="975"/><tspan class="TextPosition" x="6830" y="975"><tspan fill="rgb(0,0,0)" stroke="none">Time spent in phases (stacked)</tspan></tspan></tspan></text>
 <path fill="rgb(0,69,134)" stroke="none" d="M 4929,13539 L 4824,13539 4824,13328 5035,13328 5035,13539 4929,13539 Z"/>
 <path fill="rgb(255,66,14)" stroke="none" d="M 7088,13539 L 6983,13539 6983,13328 7194,13328 7194,13539 7088,13539 Z"/>
 <path fill="rgb(255,211,32)" stroke="none" d="M 9908,13539 L 9803,13539 9803,13328 10013,13328 10013,13539 9908,13539 Z"/>
 <path fill="rgb(87,157,28)" stroke="none" d="M 12914,13539 L 12808,13539 12808,13328 13019,13328 13019,13539 12914,13539 Z"/>
 <text class="TextShape"><tspan class="TextParagraph" font-family="Liberation Sans, sans-serif" font-size="353px" font-weight="400"><tspan class="TextPosition" x="5135" y="13553"/><tspan class="TextPosition" x="5135" y="13553"><tspan fill="rgb(0,0,0)" stroke="none">Sequential</tspan></tspan></tspan></text>
 <text class="TextShape"><tspan class="TextParagraph" font-family="Liberation Sans, sans-serif" font-size="353px" font-weight="400"><tspan class="TextPosition" x="7294" y="13553"/><tspan class="TextPosition" x="7294" y="13553"><tspan fill="rgb(0,0,0)" stroke="none">Randomization</tspan></tspan></tspan></text>
 <text class="TextShape"><tspan class="TextParagraph" font-family="Liberation Sans, sans-serif" font-size="353px" font-weight="400"><tspan class="TextPosition" x="10113" y="13553"/><tspan class="TextPosition" x="10113" y="13553"><tspan fill="rgb(0,0,0)" stroke="none">Synchronization</tspan></tspan></tspan></text>
 <text class="TextShape"><tspan class="TextParagraph" font-family="Liberation Sans, sans-serif" font-size="353px" font-weight="400"><tspan class="TextPosition" x="13119" y="13553"/><tspan class="TextPosition" x="13119" y="13553"><tspan fill="rgb(0,0,0)" stroke="none">Computation</tspan></tspan></tspan></text>
 <text class="TextShape"><tspan class="TextParagraph" font-family="Liberation Sans, sans-serif" font-size="318px" font-weight="400"><tspan class="TextPosition" x="9902" y="12541"/><tspan class="TextPosition" x="9902" y="12541"><tspan fill="rgb(0,0,0)" stroke="none">threads</tspan></tspan></tspan></text>
 <text class="TextShape" transform="translate(837,7427) rotate(-90) translate(-837,-7427)"><tspan class="TextParagraph" font-family="Liberation Sans, sans-serif" font-size="318px" font-weight="400"><tspan class="TextPosition" x="837" y="7427"/><tspan class="TextPosition" x="837" y="7427"><tspan fill="rgb(0,0,0)" stroke="none">time spent</tspan></tspan></tspan></text>
</svg>