<svg aria-label="A chart." style="overflow: hidden;" height="500" width="920"><defs id="defs"><clipPath id="_ABSTRACT_RENDERER_ID_0"><rect height="309" width="597" y="96" x="162"></rect></clipPath></defs><rect fill="#ffffff" stroke-width="0" stroke="none" height="500" width="920" y="0" x="0"></rect><g><rect fill="#ffffff" fill-opacity="0" stroke-width="0" stroke="none" height="14" width="133" y="96" x="773"></rect><g><rect fill="#ffffff" fill-opacity="0" stroke-width="0" stroke="none" height="14" width="133" y="96" x="773"></rect><g><text fill="#222222" stroke-width="0" stroke="none" font-size="14" font-family="Arial" y="107.9" x="806" text-anchor="start">avg</text></g><path fill="none" fill-opacity="1" stroke-width="2" stroke="#3366cc" d="M773,103L801,103"></path></g></g><g><rect fill="#ffffff" fill-opacity="0" stroke-width="0" stroke="none" height="309" width="597" y="96" x="162"></rect><g clip-path="url(file:///home/federico/Dropbox/Universita/public_html/game-of-life/performance.html#_ABSTRACT_RENDERER_ID_0)"><g><rect fill="#cccccc" stroke-width="0" stroke="none" height="309" width="1" y="96" x="173"></rect><rect fill="#cccccc" stroke-width="0" stroke="none" height="309" width="1" y="96" x="297"></rect><rect fill="#cccccc" stroke-width="0" stroke="none" height="309" width="1" y="96" x="422"></rect><rect fill="#cccccc" stroke-width="0" stroke="none" height="309" width="1" y="96" x="546"></rect><rect fill="#cccccc" stroke-width="0" stroke="none" height="309" width="1" y="96" x="670"></rect><rect fill="#cccccc" stroke-width="0" stroke="none" height="1" width="597" y="404" x="162"></rect><rect fill="#cccccc" stroke-width="0" stroke="none" height="1" width="597" y="327" x="162"></rect><rect fill="#cccccc" stroke-width="0" stroke="none" height="1" width="597" y="250" x="162"></rect><rect fill="#cccccc" stroke-width="0" stroke="none" height="1" width="597" y="173" x="162"></rect><rect fill="#cccccc" stroke-width="0" stroke="none" height="1" width="597" y="96" x="162"></rect></g><g><rect fill="#333333" stroke-width="0" stroke="none" height="1" width="597" y="404" x="162"></rect></g><g><g><path fill="#264d99" fill-opacity="0.3" stroke-width="1" stroke="#264d99" d="M163,141.78947499999998L163,141.9454"></path><path fill="#264d99" fill-opacity="0.3" stroke-width="1" stroke="#264d99" d="M163,141.9454L164,141.9454"></path><path fill="#264d99" fill-opacity="0.3" stroke-width="1" stroke="#264d99" d="M163,141.9146L164,141.9146"></path><path fill="#264d99" fill-opacity="0.3" stroke-width="1" stroke="#264d99" d="M163,141.88765L164,141.88765"></path><path fill="#264d99" fill-opacity="0.3" stroke-width="1" stroke="#264d99" d="M163,141.83375L164,141.83375"></path><path fill="#264d99" fill-opacity="0.3" stroke-width="1" stroke="#264d99" d="M163,141.78947499999998L164,141.78947499999998"></path></g><g><path fill="#264d99" fill-opacity="0.3" stroke-width="1" stroke="#264d99" d="M166,263.095275L166,272.9455"></path><circle fill="#264d99" fill-opacity="0.3" stroke-width="1" stroke="#264d99" r="3" cy="272.9455" cx="166"></circle><circle fill="#264d99" fill-opacity="0.3" stroke-width="1" stroke="#264d99" r="3" cy="272.943575" cx="166"></circle><circle fill="#264d99" fill-opacity="0.3" stroke-width="1" stroke="#264d99" r="3" cy="270.4507" cx="166"></circle><circle fill="#264d99" fill-opacity="0.3" stroke-width="1" stroke="#264d99" r="3" cy="268.762475" cx="166"></circle><circle fill="#264d99" fill-opacity="0.3" stroke-width="1" stroke="#264d99" r="3" cy="263.095275" cx="166"></circle></g><g><path fill="#264d99" fill-opacity="0.3" stroke-width="1" stroke="#264d99" d="M171,333.07865000000004L171,338.50715"></path><circle fill="#264d99" fill-opacity="0.3" stroke-width="1" stroke="#264d99" r="3" cy="338.50715" cx="171"></circle><circle fill="#264d99" fill-opacity="0.3" stroke-width="1" stroke="#264d99" r="3" cy="335.841025" cx="171"></circle><circle fill="#264d99" fill-opacity="0.3" stroke-width="1" stroke="#264d99" r="3" cy="335.767875" cx="171"></circle><circle fill="#264d99" fill-opacity="0.3" stroke-width="1" stroke="#264d99" r="3" cy="333.088275" cx="171"></circle><circle fill="#264d99" fill-opacity="0.3" stroke-width="1" stroke="#264d99" r="3" cy="333.07865000000004" cx="171"></circle></g><g><path fill="#264d99" fill-opacity="0.3" stroke-width="1" stroke="#264d99" d="M186,375.50565L186,377.8272"></path><circle fill="#264d99" fill-opacity="0.3" stroke-width="1" stroke="#264d99" r="3" cy="377.8272" cx="186"></circle><circle fill="#264d99" fill-opacity="0.3" stroke-width="1" stroke="#264d99" r="3" cy="377.82335" cx="186"></circle><circle fill="#264d99" fill-opacity="0.3" stroke-width="1" stroke="#264d99" r="3" cy="377.81565" cx="186"></circle><circle fill="#264d99" fill-opacity="0.3" stroke-width="1" stroke="#264d99" r="3" cy="376.716475" cx="186"></circle><circle fill="#264d99" fill-opacity="0.3" stroke-width="1" stroke="#264d99" r="3" cy="375.50565" cx="186"></circle></g><g><path fill="#264d99" fill-opacity="0.3" stroke-width="1" stroke="#264d99" d="M211,389.744875L211,390.795925"></path><circle fill="#264d99" fill-opacity="0.3" stroke-width="1" stroke="#264d99" r="3" cy="390.795925" cx="211"></circle><circle fill="#264d99" fill-opacity="0.3" stroke-width="1" stroke="#264d99" r="3" cy="390.78245" cx="211"></circle><circle fill="#264d99" fill-opacity="0.3" stroke-width="1" stroke="#264d99" r="3" cy="390.507175" cx="211"></circle><circle fill="#264d99" fill-opacity="0.3" stroke-width="1" stroke="#264d99" r="3" cy="390.17415" cx="211"></circle><circle fill="#264d99" fill-opacity="0.3" stroke-width="1" stroke="#264d99" r="3" cy="389.744875" cx="211"></circle></g><g><path fill="#264d99" fill-opacity="0.3" stroke-width="1" stroke="#264d99" d="M260,396.624825L260,396.8924"></path><circle fill="#264d99" fill-opacity="0.3" stroke-width="1" stroke="#264d99" r="3" cy="396.8924" cx="260"></circle><circle fill="#264d99" fill-opacity="0.3" stroke-width="1" stroke="#264d99" r="3" cy="396.82695" cx="260"></circle><circle fill="#264d99" fill-opacity="0.3" stroke-width="1" stroke="#264d99" r="3" cy="396.798075" cx="260"></circle><circle fill="#264d99" fill-opacity="0.3" stroke-width="1" stroke="#264d99" r="3" cy="396.636375" cx="260"></circle><circle fill="#264d99" fill-opacity="0.3" stroke-width="1" stroke="#264d99" r="3" cy="396.624825" cx="260"></circle></g><g><path fill="#264d99" fill-opacity="0.3" stroke-width="1" stroke="#264d99" d="M310,398.519025L310,398.5248"></path><circle fill="#264d99" fill-opacity="0.3" stroke-width="1" stroke="#264d99" r="3" cy="398.5248" cx="310"></circle><circle fill="#264d99" fill-opacity="0.3" stroke-width="1" stroke="#264d99" r="3" cy="398.522875" cx="310"></circle><circle fill="#264d99" fill-opacity="0.3" stroke-width="1" stroke="#264d99" r="3" cy="398.52095" cx="310"></circle><circle fill="#264d99" fill-opacity="0.3" stroke-width="1" stroke="#264d99" r="3" cy="398.52095" cx="310"></circle><circle fill="#264d99" fill-opacity="0.3" stroke-width="1" stroke="#264d99" r="3" cy="398.519025" cx="310"></circle></g><g><path fill="#264d99" fill-opacity="0.3" stroke-width="1" stroke="#264d99" d="M360,399.546975L360,399.61435"></path><circle fill="#264d99" fill-opacity="0.3" stroke-width="1" stroke="#264d99" r="3" cy="399.61435" cx="360"></circle><circle fill="#264d99" fill-opacity="0.3" stroke-width="1" stroke="#264d99" r="3" cy="399.5643" cx="360"></circle><circle fill="#264d99" fill-opacity="0.3" stroke-width="1" stroke="#264d99" r="3" cy="399.550825" cx="360"></circle><circle fill="#264d99" fill-opacity="0.3" stroke-width="1" stroke="#264d99" r="3" cy="399.550825" cx="360"></circle><circle fill="#264d99" fill-opacity="0.3" stroke-width="1" stroke="#264d99" r="3" cy="399.546975" cx="360"></circle></g><g><path fill="#264d99" fill-opacity="0.3" stroke-width="1" stroke="#264d99" d="M409,400.259225L409,400.28425"></path><circle fill="#264d99" fill-opacity="0.3" stroke-width="1" stroke="#264d99" r="3" cy="400.28425" cx="409"></circle><circle fill="#264d99" fill-opacity="0.3" stroke-width="1" stroke="#264d99" r="3" cy="400.282325" cx="409"></circle><circle fill="#264d99" fill-opacity="0.3" stroke-width="1" stroke="#264d99" r="3" cy="400.265" cx="409"></circle><circle fill="#264d99" fill-opacity="0.3" stroke-width="1" stroke="#264d99" r="3" cy="400.263075" cx="409"></circle><circle fill="#264d99" fill-opacity="0.3" stroke-width="1" stroke="#264d99" r="3" cy="400.259225" cx="409"></circle></g><g><path fill="#264d99" fill-opacity="0.3" stroke-width="1" stroke="#264d99" d="M459,400.75395L459,400.775125"></path><circle fill="#264d99" fill-opacity="0.3" stroke-width="1" stroke="#264d99" r="3" cy="400.775125" cx="459"></circle><circle fill="#264d99" fill-opacity="0.3" stroke-width="1" stroke="#264d99" r="3" cy="400.7655" cx="459"></circle><circle fill="#264d99" fill-opacity="0.3" stroke-width="1" stroke="#264d99" r="3" cy="400.76165" cx="459"></circle><circle fill="#264d99" fill-opacity="0.3" stroke-width="1" stroke="#264d99" r="3" cy="400.76165" cx="459"></circle><circle fill="#264d99" fill-opacity="0.3" stroke-width="1" stroke="#264d99" r="3" cy="400.75395" cx="459"></circle></g><g><path fill="#264d99" fill-opacity="0.3" stroke-width="1" stroke="#264d99" d="M509,400.9657L509,400.994575"></path><circle fill="#264d99" fill-opacity="0.3" stroke-width="1" stroke="#264d99" r="3" cy="400.994575" cx="509"></circle><circle fill="#264d99" fill-opacity="0.3" stroke-width="1" stroke="#264d99" r="3" cy="400.98495" cx="509"></circle><circle fill="#264d99" fill-opacity="0.3" stroke-width="1" stroke="#264d99" r="3" cy="400.9811" cx="509"></circle><circle fill="#264d99" fill-opacity="0.3" stroke-width="1" stroke="#264d99" r="3" cy="400.96955" cx="509"></circle><circle fill="#264d99" fill-opacity="0.3" stroke-width="1" stroke="#264d99" r="3" cy="400.9657" cx="509"></circle></g><g><path fill="#264d99" fill-opacity="0.3" stroke-width="1" stroke="#264d99" d="M558,401.094675L558,401.1197"></path><circle fill="#264d99" fill-opacity="0.3" stroke-width="1" stroke="#264d99" r="3" cy="401.1197" cx="558"></circle><circle fill="#264d99" fill-opacity="0.3" stroke-width="1" stroke="#264d99" r="3" cy="401.117775" cx="558"></circle><circle fill="#264d99" fill-opacity="0.3" stroke-width="1" stroke="#264d99" r="3" cy="401.11585" cx="558"></circle><circle fill="#264d99" fill-opacity="0.3" stroke-width="1" stroke="#264d99" r="3" cy="401.110075" cx="558"></circle><circle fill="#264d99" fill-opacity="0.3" stroke-width="1" stroke="#264d99" r="3" cy="401.094675" cx="558"></circle></g><g><path fill="#264d99" fill-opacity="0.3" stroke-width="1" stroke="#264d99" d="M608,401.206325L608,401.217875"></path><circle fill="#264d99" fill-opacity="0.3" stroke-width="1" stroke="#264d99" r="3" cy="401.217875" cx="608"></circle><circle fill="#264d99" fill-opacity="0.3" stroke-width="1" stroke="#264d99" r="3" cy="401.21595" cx="608"></circle><circle fill="#264d99" fill-opacity="0.3" stroke-width="1" stroke="#264d99" r="3" cy="401.20825" cx="608"></circle><circle fill="#264d99" fill-opacity="0.3" stroke-width="1" stroke="#264d99" r="3" cy="401.206325" cx="608"></circle><circle fill="#264d99" fill-opacity="0.3" stroke-width="1" stroke="#264d99" r="3" cy="401.206325" cx="608"></circle></g><g><path fill="#264d99" fill-opacity="0.3" stroke-width="1" stroke="#264d99" d="M658,401.2506L658,401.29295"></path><circle fill="#264d99" fill-opacity="0.3" stroke-width="1" stroke="#264d99" r="3" cy="401.29295" cx="658"></circle><circle fill="#264d99" fill-opacity="0.3" stroke-width="1" stroke="#264d99" r="3" cy="401.25445" cx="658"></circle><circle fill="#264d99" fill-opacity="0.3" stroke-width="1" stroke="#264d99" r="3" cy="401.25445" cx="658"></circle><circle fill="#264d99" fill-opacity="0.3" stroke-width="1" stroke="#264d99" r="3" cy="401.252525" cx="658"></circle><circle fill="#264d99" fill-opacity="0.3" stroke-width="1" stroke="#264d99" r="3" cy="401.2506" cx="658"></circle></g><g><path fill="#264d99" fill-opacity="0.3" stroke-width="1" stroke="#264d99" d="M707,401.291025L707,401.302575"></path><circle fill="#264d99" fill-opacity="0.3" stroke-width="1" stroke="#264d99" r="3" cy="401.302575" cx="707"></circle><circle fill="#264d99" fill-opacity="0.3" stroke-width="1" stroke="#264d99" r="3" cy="401.2968" cx="707"></circle><circle fill="#264d99" fill-opacity="0.3" stroke-width="1" stroke="#264d99" r="3" cy="401.294875" cx="707"></circle><circle fill="#264d99" fill-opacity="0.3" stroke-width="1" stroke="#264d99" r="3" cy="401.29295" cx="707"></circle><circle fill="#264d99" fill-opacity="0.3" stroke-width="1" stroke="#264d99" r="3" cy="401.291025" cx="707"></circle></g><g><path fill="#264d99" fill-opacity="0.3" stroke-width="1" stroke="#264d99" d="M757,401.26215L757,401.291025"></path><circle fill="#264d99" fill-opacity="0.3" stroke-width="1" stroke="#264d99" r="3" cy="401.291025" cx="757"></circle><circle fill="#264d99" fill-opacity="0.3" stroke-width="1" stroke="#264d99" r="3" cy="401.28525" cx="757"></circle><circle fill="#264d99" fill-opacity="0.3" stroke-width="1" stroke="#264d99" r="3" cy="401.283325" cx="757"></circle><circle fill="#264d99" fill-opacity="0.3" stroke-width="1" stroke="#264d99" r="3" cy="401.283325" cx="757"></circle><circle fill="#264d99" fill-opacity="0.3" stroke-width="1" stroke="#264d99" r="3" cy="401.26215" cx="757"></circle></g></g><g><path fill="none" fill-opacity="1" stroke-width="2" stroke="#3366cc" d="M163.74166666666667,141.87417499999998L166.225,269.639505L171.19166666666666,335.256595L186.09166666666667,377.13766499999997L210.925,390.400915L260.5916666666667,396.755725L310.2583333333333,398.52172L359.925,399.565455L409.5916666666667,400.270775L459.2583333333333,400.763575L508.925,400.979175L558.5916666666667,401.111615L608.2583333333333,401.210945L657.925,401.260995L707.5916666666667,401.295645L757.2583333333333,401.281015"></path></g></g><g></g><g><g><text fill="#444444" stroke-width="0" stroke="none" font-size="14" font-family="Arial" y="425.9" x="173.675" text-anchor="middle">5</text></g><g><text fill="#444444" stroke-width="0" stroke="none" font-size="14" font-family="Arial" y="425.9" x="297.8416666666667" text-anchor="middle">55</text></g><g><text fill="#444444" stroke-width="0" stroke="none" font-size="14" font-family="Arial" y="425.9" x="422.0083333333333" text-anchor="middle">105</text></g><g><text fill="#444444" stroke-width="0" stroke="none" font-size="14" font-family="Arial" y="425.9" x="546.175" text-anchor="middle">155</text></g><g><text fill="#444444" stroke-width="0" stroke="none" font-size="14" font-family="Arial" y="425.9" x="670.3416666666667" text-anchor="middle">205</text></g><g><text fill="#444444" stroke-width="0" stroke="none" font-size="14" font-family="Arial" y="409.4" x="148" text-anchor="end">0</text></g><g><text fill="#444444" stroke-width="0" stroke="none" font-size="14" font-family="Arial" y="332.4" x="148" text-anchor="end">40</text></g><g><text fill="#444444" stroke-width="0" stroke="none" font-size="14" font-family="Arial" y="255.4" x="148" text-anchor="end">80</text></g><g><text fill="#444444" stroke-width="0" stroke="none" font-size="14" font-family="Arial" y="178.4" x="148" text-anchor="end">120</text></g><g><text fill="#444444" stroke-width="0" stroke="none" font-size="14" font-family="Arial" y="101.4" x="148" text-anchor="end">160</text></g></g></g><g><g><text fill="#222222" stroke-width="0" stroke="none" font-style="italic" font-size="14" font-family="Arial" y="468.9" x="460.5" text-anchor="middle">threads</text><rect fill="#ffffff" fill-opacity="0" stroke-width="0" stroke="none" height="14" width="597" y="457" x="162"></rect></g><g><text fill="#222222" stroke-width="0" stroke="none" transform="rotate(-90 66.9 250.5)" font-style="italic" font-size="14" font-family="Arial" y="250.5" x="66.9" text-anchor="middle">time (s)</text><path fill="#ffffff" fill-opacity="0" stroke-width="0" stroke="none" d="M54.99999999999999,405L55.00000000000001,96L69.00000000000001,96L68.99999999999999,405Z"></path></g></g><g></g></svg>