<svg aria-label="Un grafico." style="overflow: hidden;" height="500" width="920"><g></g><defs id="defs"><clipPath id="_ABSTRACT_RENDERER_ID_12"><rect height="309" width="597" y="96" x="162"></rect></clipPath></defs><rect fill="#ffffff" stroke-width="0" stroke="none" height="500" width="920" y="0" x="0"></rect><g><text fill="#000000" stroke-width="0" stroke="none" font-weight="bold" font-size="14" font-family="Arial" y="70.9" x="162" text-anchor="start">Mic speedup</text><rect fill="#ffffff" fill-opacity="0" stroke-width="0" stroke="none" height="14" width="597" y="59" x="162"></rect></g><g><rect fill="#ffffff" fill-opacity="0" stroke-width="0" stroke="none" height="83" width="133" y="96" x="773"></rect><g><rect fill="#ffffff" fill-opacity="0" stroke-width="0" stroke="none" height="14" width="133" y="96" x="773"></rect><g><text fill="#222222" stroke-width="0" stroke="none" font-size="14" font-family="Arial" y="107.9" x="806" text-anchor="start">4000-TH</text></g><path fill="none" fill-opacity="1" stroke-width="2" stroke="#3366cc" d="M773,103L801,103"></path><circle fill="#3366cc" stroke-width="0" stroke="none" r="4" cy="103" cx="787"></circle></g><g><rect fill="#ffffff" fill-opacity="0" stroke-width="0" stroke="none" height="14" width="133" y="119" x="773"></rect><g><text fill="#222222" stroke-width="0" stroke="none" font-size="14" font-family="Arial" y="130.9" x="806" text-anchor="start">4000-FF</text></g><path fill="none" fill-opacity="1" stroke-width="2" stroke="#dc3912" d="M773,126L801,126"></path><circle fill="#dc3912" stroke-width="0" stroke="none" r="4" cy="126" cx="787"></circle></g><g><rect fill="#ffffff" fill-opacity="0" stroke-width="0" stroke="none" height="14" width="133" y="142" x="773"></rect><g><text fill="#222222" stroke-width="0" stroke="none" font-size="14" font-family="Arial" y="153.9" x="806" text-anchor="start">8000-TH</text></g><path fill="none" fill-opacity="1" stroke-width="2" stroke="#ff9900" d="M773,149L801,149"></path><circle fill="#ff9900" stroke-width="0" stroke="none" r="4" cy="149" cx="787"></circle></g><g><rect fill="#ffffff" fill-opacity="0" stroke-width="0" stroke="none" height="14" width="133" y="165" x="773"></rect><g><text fill="#222222" stroke-width="0" stroke="none" font-size="14" font-family="Arial" y="176.9" x="806" text-anchor="start">8000-FF</text></g><path fill="none" fill-opacity="1" stroke-width="2" stroke="#109618" d="M773,172L801,172"></path><circle fill="#109618" stroke-width="0" stroke="none" r="4" cy="172" cx="787"></circle></g></g><g><rect fill="#ffffff" fill-opacity="0" stroke-width="0" stroke="none" height="309" width="597" y="96" x="162"></rect><g clip-path="url(http://feder1co5oave.github.io/GameOfLife/performance.html#_ABSTRACT_RENDERER_ID_12)"><g><rect fill="#cccccc" stroke-width="0" stroke="none" height="309" width="1" y="96" x="210"></rect><rect fill="#cccccc" stroke-width="0" stroke="none" height="309" width="1" y="96" x="260"></rect><rect fill="#cccccc" stroke-width="0" stroke="none" height="309" width="1" y="96" x="309"></rect><rect fill="#cccccc" stroke-width="0" stroke="none" height="309" width="1" y="96" x="359"></rect><rect fill="#cccccc" stroke-width="0" stroke="none" height="309" width="1" y="96" x="409"></rect><rect fill="#cccccc" stroke-width="0" stroke="none" height="309" width="1" y="96" x="459"></rect><rect fill="#cccccc" stroke-width="0" stroke="none" height="309" width="1" y="96" x="509"></rect><rect fill="#cccccc" stroke-width="0" stroke="none" height="309" width="1" y="96" x="558"></rect><rect fill="#cccccc" stroke-width="0" stroke="none" height="309" width="1" y="96" x="608"></rect><rect fill="#cccccc" stroke-width="0" stroke="none" height="309" width="1" y="96" x="658"></rect><rect fill="#cccccc" stroke-width="0" stroke="none" height="309" width="1" y="96" x="708"></rect><rect fill="#cccccc" stroke-width="0" stroke="none" height="309" width="1" y="96" x="758"></rect><rect fill="#cccccc" stroke-width="0" stroke="none" height="1" width="597" y="404" x="162"></rect><rect fill="#cccccc" stroke-width="0" stroke="none" height="1" width="597" y="346" x="162"></rect><rect fill="#cccccc" stroke-width="0" stroke="none" height="1" width="597" y="288" x="162"></rect><rect fill="#cccccc" stroke-width="0" stroke="none" height="1" width="597" y="230" x="162"></rect><rect fill="#cccccc" stroke-width="0" stroke="none" height="1" width="597" y="172" x="162"></rect><rect fill="#cccccc" stroke-width="0" stroke="none" height="1" width="597" y="114" x="162"></rect></g><g><rect fill="#333333" stroke-width="0" stroke="none" height="1" width="597" y="404" x="162"></rect></g><g><path fill="none" fill-opacity="1" stroke-width="2" stroke="#3366cc" d="M162.99916247906197,401.1098022928084L165.48870923655937,398.37012820336685L170.46780275155413,393.03356249159725L185.40508329653846,376.2457442859609L210.30055087151237,350.1353198386432L260.0914860214602,305.9336236178518L309.88242117140794,276.96415615294904L359.67335632135575,250.09370601635342L409.46429147130357,224.42604147567658L459.2552266212513,200.74167897093216L509.04616177119914,188.29492490585335L558.8370969211469,179.8637122633479L608.6280320710947,173.09471077537125L658.4189672210425,169.52667345750743L708.2099023709903,166.99120006811748L758.0008375209381,168.06839129955924"></path><path fill="none" fill-opacity="1" stroke-width="2" stroke="#dc3912" d="M162.99916247906197,401.11424671441813L165.48870923655937,398.274348614688L170.46780275155413,393.04288502813273L185.40508329653846,377.24274036458945L210.30055087151237,356.5036597431984L260.0914860214602,326.9183580131497L309.88242117140794,313.9802741960573L359.67335632135575,314.5030604590511L409.46429147130357,316.85943013558506L459.2552266212513,321.24286206195205L509.04616177119914,326.12409307478947L558.8370969211469,336.3737354574558L608.6280320710947,339.3101246828239L658.4189672210425,344.4700600148593L708.2099023709903,346.127547139536L758.0008375209381,351.1838578822523"></path><path fill="none" fill-opacity="1" stroke-width="2" stroke="#ff9900" d="M162.99916247906197,401.1062527064227L165.48870923655937,398.2181572796906L170.46780275155413,392.5377834845549L185.40508329653846,375.2971283845668L210.30055087151237,347.8131863593034L260.0914860214602,299.2514435035681L309.88242117140794,252.07796663314454L359.67335632135575,222.5806079988822L409.46429147130357,190.34240218207785L459.2552266212513,159.27949197920066L509.04616177119914,143.61354274362793L558.8370969211469,135.7584233095659L608.6280320710947,115.00736251129473L658.4189672210425,105.64895932149739L708.2099023709903,100.34133151134512L758.0008375209381,97.75103751662039"></path><path fill="none" fill-opacity="1" stroke-width="2" stroke="#109618" d="M162.99916247906197,401.1052383159459L165.48870923655937,398.21312716689L170.46780275155413,392.51532958565707L185.40508329653846,376.61276625215623L210.30055087151237,350.1261989476869L260.0914860214602,305.90935052066925L309.88242117140794,273.44304068425686L359.67335632135575,264.47424027451393L409.46429147130357,252.13227572548894L459.2552266212513,244.8632293076956L509.04616177119914,247.15136998455313L558.8370969211469,247.2510390978521L608.6280320710947,247.17388699070497L658.4189672210425,262.1552973769193L708.2099023709903,265.3168702495509L758.0008375209381,271.55259155825627"></path></g></g><g><circle fill="#3366cc" stroke-width="0" stroke="none" r="4" cy="401.1098022928084" cx="162.99916247906197"></circle><circle fill="#3366cc" stroke-width="0" stroke="none" r="4" cy="398.37012820336685" cx="165.48870923655937"></circle><circle fill="#3366cc" stroke-width="0" stroke="none" r="4" cy="393.03356249159725" cx="170.46780275155413"></circle><circle fill="#3366cc" stroke-width="0" stroke="none" r="4" cy="376.2457442859609" cx="185.40508329653846"></circle><circle fill="#3366cc" stroke-width="0" stroke="none" r="4" cy="350.1353198386432" cx="210.30055087151237"></circle><circle fill="#3366cc" stroke-width="0" stroke="none" r="4" cy="305.9336236178518" cx="260.0914860214602"></circle><circle fill="#3366cc" stroke-width="0" stroke="none" r="4" cy="276.96415615294904" cx="309.88242117140794"></circle><circle fill="#3366cc" stroke-width="0" stroke="none" r="4" cy="250.09370601635342" cx="359.67335632135575"></circle><circle fill="#3366cc" stroke-width="0" stroke="none" r="4" cy="224.42604147567658" cx="409.46429147130357"></circle><circle fill="#3366cc" stroke-width="0" stroke="none" r="4" cy="200.74167897093216" cx="459.2552266212513"></circle><circle fill="#3366cc" stroke-width="0" stroke="none" r="4" cy="188.29492490585335" cx="509.04616177119914"></circle><circle fill="#3366cc" stroke-width="0" stroke="none" r="4" cy="179.8637122633479" cx="558.8370969211469"></circle><circle fill="#3366cc" stroke-width="0" stroke="none" r="4" cy="173.09471077537125" cx="608.6280320710947"></circle><circle fill="#3366cc" stroke-width="0" stroke="none" r="4" cy="169.52667345750743" cx="658.4189672210425"></circle><circle fill="#3366cc" stroke-width="0" stroke="none" r="4" cy="166.99120006811748" cx="708.2099023709903"></circle><circle fill="#3366cc" stroke-width="0" stroke="none" r="4" cy="168.06839129955924" cx="758.0008375209381"></circle><circle fill="#dc3912" stroke-width="0" stroke="none" r="4" cy="401.11424671441813" cx="162.99916247906197"></circle><circle fill="#dc3912" stroke-width="0" stroke="none" r="4" cy="398.274348614688" cx="165.48870923655937"></circle><circle fill="#dc3912" stroke-width="0" stroke="none" r="4" cy="393.04288502813273" cx="170.46780275155413"></circle><circle fill="#dc3912" stroke-width="0" stroke="none" r="4" cy="377.24274036458945" cx="185.40508329653846"></circle><circle fill="#dc3912" stroke-width="0" stroke="none" r="4" cy="356.5036597431984" cx="210.30055087151237"></circle><circle fill="#dc3912" stroke-width="0" stroke="none" r="4" cy="326.9183580131497" cx="260.0914860214602"></circle><circle fill="#dc3912" stroke-width="0" stroke="none" r="4" cy="313.9802741960573" cx="309.88242117140794"></circle><circle fill="#dc3912" stroke-width="0" stroke="none" r="4" cy="314.5030604590511" cx="359.67335632135575"></circle><circle fill="#dc3912" stroke-width="0" stroke="none" r="4" cy="316.85943013558506" cx="409.46429147130357"></circle><circle fill="#dc3912" stroke-width="0" stroke="none" r="4" cy="321.24286206195205" cx="459.2552266212513"></circle><circle fill="#dc3912" stroke-width="0" stroke="none" r="4" cy="326.12409307478947" cx="509.04616177119914"></circle><circle fill="#dc3912" stroke-width="0" stroke="none" r="4" cy="336.3737354574558" cx="558.8370969211469"></circle><circle fill="#dc3912" stroke-width="0" stroke="none" r="4" cy="339.3101246828239" cx="608.6280320710947"></circle><circle fill="#dc3912" stroke-width="0" stroke="none" r="4" cy="344.4700600148593" cx="658.4189672210425"></circle><circle fill="#dc3912" stroke-width="0" stroke="none" r="4" cy="346.127547139536" cx="708.2099023709903"></circle><circle fill="#dc3912" stroke-width="0" stroke="none" r="4" cy="351.1838578822523" cx="758.0008375209381"></circle><circle fill="#ff9900" stroke-width="0" stroke="none" r="4" cy="401.1062527064227" cx="162.99916247906197"></circle><circle fill="#ff9900" stroke-width="0" stroke="none" r="4" cy="398.2181572796906" cx="165.48870923655937"></circle><circle fill="#ff9900" stroke-width="0" stroke="none" r="4" cy="392.5377834845549" cx="170.46780275155413"></circle><circle fill="#ff9900" stroke-width="0" stroke="none" r="4" cy="375.2971283845668" cx="185.40508329653846"></circle><circle fill="#ff9900" stroke-width="0" stroke="none" r="4" cy="347.8131863593034" cx="210.30055087151237"></circle><circle fill="#ff9900" stroke-width="0" stroke="none" r="4" cy="299.2514435035681" cx="260.0914860214602"></circle><circle fill="#ff9900" stroke-width="0" stroke="none" r="4" cy="252.07796663314454" cx="309.88242117140794"></circle><circle fill="#ff9900" stroke-width="0" stroke="none" r="4" cy="222.5806079988822" cx="359.67335632135575"></circle><circle fill="#ff9900" stroke-width="0" stroke="none" r="4" cy="190.34240218207785" cx="409.46429147130357"></circle><circle fill="#ff9900" stroke-width="0" stroke="none" r="4" cy="159.27949197920066" cx="459.2552266212513"></circle><circle fill="#ff9900" stroke-width="0" stroke="none" r="4" cy="143.61354274362793" cx="509.04616177119914"></circle><circle fill="#ff9900" stroke-width="0" stroke="none" r="4" cy="135.7584233095659" cx="558.8370969211469"></circle><circle fill="#ff9900" stroke-width="0" stroke="none" r="4" cy="115.00736251129473" cx="608.6280320710947"></circle><circle fill="#ff9900" stroke-width="0" stroke="none" r="4" cy="105.64895932149739" cx="658.4189672210425"></circle><circle fill="#ff9900" stroke-width="0" stroke="none" r="4" cy="100.34133151134512" cx="708.2099023709903"></circle><circle fill="#ff9900" stroke-width="0" stroke="none" r="4" cy="97.75103751662039" cx="758.0008375209381"></circle><circle fill="#109618" stroke-width="0" stroke="none" r="4" cy="401.1052383159459" cx="162.99916247906197"></circle><circle fill="#109618" stroke-width="0" stroke="none" r="4" cy="398.21312716689" cx="165.48870923655937"></circle><circle fill="#109618" stroke-width="0" stroke="none" r="4" cy="392.51532958565707" cx="170.46780275155413"></circle><circle fill="#109618" stroke-width="0" stroke="none" r="4" cy="376.61276625215623" cx="185.40508329653846"></circle><circle fill="#109618" stroke-width="0" stroke="none" r="4" cy="350.1261989476869" cx="210.30055087151237"></circle><circle fill="#109618" stroke-width="0" stroke="none" r="4" cy="305.90935052066925" cx="260.0914860214602"></circle><circle fill="#109618" stroke-width="0" stroke="none" r="4" cy="273.44304068425686" cx="309.88242117140794"></circle><circle fill="#109618" stroke-width="0" stroke="none" r="4" cy="264.47424027451393" cx="359.67335632135575"></circle><circle fill="#109618" stroke-width="0" stroke="none" r="4" cy="252.13227572548894" cx="409.46429147130357"></circle><circle fill="#109618" stroke-width="0" stroke="none" r="4" cy="244.8632293076956" cx="459.2552266212513"></circle><circle fill="#109618" stroke-width="0" stroke="none" r="4" cy="247.15136998455313" cx="509.04616177119914"></circle><circle fill="#109618" stroke-width="0" stroke="none" r="4" cy="247.2510390978521" cx="558.8370969211469"></circle><circle fill="#109618" stroke-width="0" stroke="none" r="4" cy="247.17388699070497" cx="608.6280320710947"></circle><circle fill="#109618" stroke-width="0" stroke="none" r="4" cy="262.1552973769193" cx="658.4189672210425"></circle><circle fill="#109618" stroke-width="0" stroke="none" r="4" cy="265.3168702495509" cx="708.2099023709903"></circle><circle fill="#109618" stroke-width="0" stroke="none" r="4" cy="271.55259155825627" cx="758.0008375209381"></circle></g><g><g><text fill="#444444" stroke-width="0" stroke="none" font-size="14" font-family="Arial" y="425.9" x="210.30055087151237" text-anchor="middle">20</text></g><g><text fill="#444444" stroke-width="0" stroke="none" font-size="14" font-family="Arial" y="425.9" x="260.0914860214602" text-anchor="middle">40</text></g><g><text fill="#444444" stroke-width="0" stroke="none" font-size="14" font-family="Arial" y="425.9" x="309.88242117140794" text-anchor="middle">60</text></g><g><text fill="#444444" stroke-width="0" stroke="none" font-size="14" font-family="Arial" y="425.9" x="359.67335632135575" text-anchor="middle">80</text></g><g><text fill="#444444" stroke-width="0" stroke="none" font-size="14" font-family="Arial" y="425.9" x="409.46429147130357" text-anchor="middle">100</text></g><g><text fill="#444444" stroke-width="0" stroke="none" font-size="14" font-family="Arial" y="425.9" x="459.2552266212513" text-anchor="middle">120</text></g><g><text fill="#444444" stroke-width="0" stroke="none" font-size="14" font-family="Arial" y="425.9" x="509.04616177119914" text-anchor="middle">140</text></g><g><text fill="#444444" stroke-width="0" stroke="none" font-size="14" font-family="Arial" y="425.9" x="558.8370969211469" text-anchor="middle">160</text></g><g><text fill="#444444" stroke-width="0" stroke="none" font-size="14" font-family="Arial" y="425.9" x="608.6280320710947" text-anchor="middle">180</text></g><g><text fill="#444444" stroke-width="0" stroke="none" font-size="14" font-family="Arial" y="425.9" x="658.4189672210425" text-anchor="middle">200</text></g><g><text fill="#444444" stroke-width="0" stroke="none" font-size="14" font-family="Arial" y="425.9" x="708.2099023709903" text-anchor="middle">220</text></g><g><text fill="#444444" stroke-width="0" stroke="none" font-size="14" font-family="Arial" y="425.9" x="758.0008375209381" text-anchor="middle">240</text></g><g><text fill="#444444" stroke-width="0" stroke="none" font-size="14" font-family="Arial" y="408.9016181229773" x="148" text-anchor="end">0</text></g><g><text fill="#444444" stroke-width="0" stroke="none" font-size="14" font-family="Arial" y="350.97647920864625" x="148" text-anchor="end">20</text></g><g><text fill="#444444" stroke-width="0" stroke="none" font-size="14" font-family="Arial" y="293.0513402943152" x="148" text-anchor="end">40</text></g><g><text fill="#444444" stroke-width="0" stroke="none" font-size="14" font-family="Arial" y="235.1262013799841" x="148" text-anchor="end">60</text></g><g><text fill="#444444" stroke-width="0" stroke="none" font-size="14" font-family="Arial" y="177.20106246565308" x="148" text-anchor="end">80</text></g><g><text fill="#444444" stroke-width="0" stroke="none" font-size="14" font-family="Arial" y="119.275923551322" x="148" text-anchor="end">100</text></g></g></g><g><g><text fill="#222222" stroke-width="0" stroke="none" font-style="italic" font-size="14" font-family="Arial" y="468.9" x="460.5" text-anchor="middle">threads</text><rect fill="#ffffff" fill-opacity="0" stroke-width="0" stroke="none" height="14" width="597" y="457" x="162"></rect></g><g><text fill="#222222" stroke-width="0" stroke="none" transform="rotate(-90 66.9 250.5)" font-style="italic" font-size="14" font-family="Arial" y="250.5" x="66.9" text-anchor="middle">speedup</text><path fill="#ffffff" fill-opacity="0" stroke-width="0" stroke="none" d="M54.99999999999999,405L55.00000000000001,96L69.00000000000001,96L68.99999999999999,405Z"></path></g></g><g></g></svg>