<svg aria-label="A chart." style="overflow: hidden;" height="500" width="920"><defs id="defs"><clipPath id="_ABSTRACT_RENDERER_ID_4"><rect height="309" width="597" y="96" x="162"></rect></clipPath></defs><rect fill="#ffffff" stroke-width="0" stroke="none" height="500" width="920" y="0" x="0"></rect><g><rect fill="#ffffff" fill-opacity="0" stroke-width="0" stroke="none" height="83" width="133" y="96" x="773"></rect><g><rect fill="#ffffff" fill-opacity="0" stroke-width="0" stroke="none" height="14" width="133" y="96" x="773"></rect><g><text fill="#222222" stroke-width="0" stroke="none" font-size="14" font-family="Arial" y="107.9" x="806" text-anchor="start">4000-TH</text></g><path fill="none" fill-opacity="1" stroke-width="2" stroke="#3366cc" d="M773,103L801,103"></path><circle fill="#3366cc" stroke-width="0" stroke="none" r="3" cy="103" cx="787"></circle></g><g><rect fill="#ffffff" fill-opacity="0" stroke-width="0" stroke="none" height="14" width="133" y="119" x="773"></rect><g><text fill="#222222" stroke-width="0" stroke="none" font-size="14" font-family="Arial" y="130.9" x="806" text-anchor="start">4000-FF</text></g><path fill="none" fill-opacity="1" stroke-width="2" stroke="#dc3912" d="M773,126L801,126"></path><circle fill="#dc3912" stroke-width="0" stroke="none" r="3" cy="126" cx="787"></circle></g><g><rect fill="#ffffff" fill-opacity="0" stroke-width="0" stroke="none" height="14" width="133" y="142" x="773"></rect><g><text fill="#222222" stroke-width="0" stroke="none" font-size="14" font-family="Arial" y="153.9" x="806" text-anchor="start">8000-TH</text></g><path fill="none" fill-opacity="1" stroke-width="2" stroke="#ff9900" d="M773,149L801,149"></path><circle fill="#ff9900" stroke-width="0" stroke="none" r="3" cy="149" cx="787"></circle></g><g><rect fill="#ffffff" fill-opacity="0" stroke-width="0" stroke="none" height="14" width="133" y="165" x="773"></rect><g><text fill="#222222" stroke-width="0" stroke="none" font-size="14" font-family="Arial" y="176.9" x="806" text-anchor="start">8000-FF</text></g><path fill="none" fill-opacity="1" stroke-width="2" stroke="#109618" d="M773,172L801,172"></path><circle fill="#109618" stroke-width="0" stroke="none" r="3" cy="172" cx="787"></circle></g></g><g><rect fill="#ffffff" fill-opacity="0" stroke-width="0" stroke="none" height="309" width="597" y="96" x="162"></rect><g clip-path="url(file:///home/federico/Dropbox/Universita/public_html/game-of-life/performance.html#_ABSTRACT_RENDERER_ID_4)"><g><rect fill="#cccccc" stroke-width="0" stroke="none" height="309" width="1" y="96" x="209"></rect><rect fill="#cccccc" stroke-width="0" stroke="none" height="309" width="1" y="96" x="259"></rect><rect fill="#cccccc" stroke-width="0" stroke="none" height="309" width="1" y="96" x="309"></rect><rect fill="#cccccc" stroke-width="0" stroke="none" height="309" width="1" y="96" x="359"></rect><rect fill="#cccccc" stroke-width="0" stroke="none" height="309" width="1" y="96" x="409"></rect><rect fill="#cccccc" stroke-width="0" stroke="none" height="309" width="1" y="96" x="459"></rect><rect fill="#cccccc" stroke-width="0" stroke="none" height="309" width="1" y="96" x="509"></rect><rect fill="#cccccc" stroke-width="0" stroke="none" height="309" width="1" y="96" x="559"></rect><rect fill="#cccccc" stroke-width="0" stroke="none" height="309" width="1" y="96" x="608"></rect><rect fill="#cccccc" stroke-width="0" stroke="none" height="309" width="1" y="96" x="658"></rect><rect fill="#cccccc" stroke-width="0" stroke="none" height="309" width="1" y="96" x="708"></rect><rect fill="#cccccc" stroke-width="0" stroke="none" height="309" width="1" y="96" x="758"></rect><rect fill="#cccccc" stroke-width="0" stroke="none" height="1" width="597" y="404" x="162"></rect><rect fill="#cccccc" stroke-width="0" stroke="none" height="1" width="597" y="342" x="162"></rect><rect fill="#cccccc" stroke-width="0" stroke="none" height="1" width="597" y="281" x="162"></rect><rect fill="#cccccc" stroke-width="0" stroke="none" height="1" width="597" y="219" x="162"></rect><rect fill="#cccccc" stroke-width="0" stroke="none" height="1" width="597" y="158" x="162"></rect><rect fill="#cccccc" stroke-width="0" stroke="none" height="1" width="597" y="96" x="162"></rect></g><g><rect fill="#333333" stroke-width="0" stroke="none" height="1" width="597" y="404" x="162"></rect></g><g><path fill="none" fill-opacity="1" stroke-width="2" stroke="#3366cc" d="M162.5,96.5L164.99372384937237,104.60211626466298L169.98117154811715,112.45502438102227L184.94351464435147,108.87919826652217L209.8807531380753,117.64183118975455L259.755230125523,143.37564006959974L309.6297071129707,178.992679890091L359.50418410041846,199.59571272528675L409.37866108786613,213.23858898497954L459.2531380753138,224.09414391207284L509.1276150627615,240.3973209404046L559.0020920502093,255.2977360527213L608.876569037657,267.87049176063573L658.7510460251046,279.63332937121123L708.6255230125523,289.75735912531536L758.5,299.79728302037233"></path><path fill="none" fill-opacity="1" stroke-width="2" stroke="#dc3912" d="M162.5,96.5L164.99372384937237,100.11189077884603L169.98117154811715,103.20778072502213L184.94351464435147,102.90215520337938L209.8807531380753,111.86221385752128L259.755230125523,146.7657482441923L309.6297071129707,187.1353070311691L359.50418410041846,242.5830885529158L409.37866108786613,256.1228995546759L459.2531380753138,273.7155239875389L509.1276150627615,309.6644149272612L559.0020920502093,315.9337558225883L608.876569037657,329.63567581833615L658.7510460251046,344.0736415452818L708.6255230125523,349.5226332469029L758.5,355.0080815225592"></path><path fill="none" fill-opacity="1" stroke-width="2" stroke="#ff9900" d="M162.5,96.5L164.99372384937237,96.88667949346257L169.98117154811715,99.62819966989531L184.94351464435147,99.15053395744104L209.8807531380753,105.64243811399223L259.755230125523,125.92502636877941L309.6297071129707,135.14721300619186L359.50418410041846,163.2624397997675L409.37866108786613,177.21594758458832L459.2531380753138,187.56015531660694L509.1276150627615,206.6480250612912L559.0020920502093,226.15700154342642L608.876569037657,233.7093706041176L658.7510460251046,245.81084389996488L708.6255230125523,257.67072628360404L758.5,268.7583847283407"></path><path fill="none" fill-opacity="1" stroke-width="2" stroke="#109618" d="M162.5,96.5L164.99372384937237,96.76219396743022L169.98117154811715,104.50049024529983L184.94351464435147,101.34476824650733L209.8807531380753,104.90881535387496L259.755230125523,133.9475203750066L309.6297071129707,181.64162292609348L359.50418410041846,212.6519311035147L409.37866108786613,228.8747683264177L459.2531380753138,237.9495232942295L509.1276150627615,261.49273712737124L559.0020920502093,275.2218056403991L608.876569037657,286.3347609367684L658.7510460251046,304.03354366531505L708.6255230125523,310.9983141801245L758.5,317.9996942989739"></path></g></g><g><circle fill="#3366cc" stroke-width="0" stroke="none" r="3" cy="96.5" cx="162.5"></circle><circle fill="#3366cc" stroke-width="0" stroke="none" r="3" cy="104.60211626466298" cx="164.99372384937237"></circle><circle fill="#3366cc" stroke-width="0" stroke="none" r="3" cy="112.45502438102227" cx="169.98117154811715"></circle><circle fill="#3366cc" stroke-width="0" stroke="none" r="3" cy="108.87919826652217" cx="184.94351464435147"></circle><circle fill="#3366cc" stroke-width="0" stroke="none" r="3" cy="117.64183118975455" cx="209.8807531380753"></circle><circle fill="#3366cc" stroke-width="0" stroke="none" r="3" cy="143.37564006959974" cx="259.755230125523"></circle><circle fill="#3366cc" stroke-width="0" stroke="none" r="3" cy="178.992679890091" cx="309.6297071129707"></circle><circle fill="#3366cc" stroke-width="0" stroke="none" r="3" cy="199.59571272528675" cx="359.50418410041846"></circle><circle fill="#3366cc" stroke-width="0" stroke="none" r="3" cy="213.23858898497954" cx="409.37866108786613"></circle><circle fill="#3366cc" stroke-width="0" stroke="none" r="3" cy="224.09414391207284" cx="459.2531380753138"></circle><circle fill="#3366cc" stroke-width="0" stroke="none" r="3" cy="240.3973209404046" cx="509.1276150627615"></circle><circle fill="#3366cc" stroke-width="0" stroke="none" r="3" cy="255.2977360527213" cx="559.0020920502093"></circle><circle fill="#3366cc" stroke-width="0" stroke="none" r="3" cy="267.87049176063573" cx="608.876569037657"></circle><circle fill="#3366cc" stroke-width="0" stroke="none" r="3" cy="279.63332937121123" cx="658.7510460251046"></circle><circle fill="#3366cc" stroke-width="0" stroke="none" r="3" cy="289.75735912531536" cx="708.6255230125523"></circle><circle fill="#3366cc" stroke-width="0" stroke="none" r="3" cy="299.79728302037233" cx="758.5"></circle><circle fill="#dc3912" stroke-width="0" stroke="none" r="3" cy="96.5" cx="162.5"></circle><circle fill="#dc3912" stroke-width="0" stroke="none" r="3" cy="100.11189077884603" cx="164.99372384937237"></circle><circle fill="#dc3912" stroke-width="0" stroke="none" r="3" cy="103.20778072502213" cx="169.98117154811715"></circle><circle fill="#dc3912" stroke-width="0" stroke="none" r="3" cy="102.90215520337938" cx="184.94351464435147"></circle><circle fill="#dc3912" stroke-width="0" stroke="none" r="3" cy="111.86221385752128" cx="209.8807531380753"></circle><circle fill="#dc3912" stroke-width="0" stroke="none" r="3" cy="146.7657482441923" cx="259.755230125523"></circle><circle fill="#dc3912" stroke-width="0" stroke="none" r="3" cy="187.1353070311691" cx="309.6297071129707"></circle><circle fill="#dc3912" stroke-width="0" stroke="none" r="3" cy="242.5830885529158" cx="359.50418410041846"></circle><circle fill="#dc3912" stroke-width="0" stroke="none" r="3" cy="256.1228995546759" cx="409.37866108786613"></circle><circle fill="#dc3912" stroke-width="0" stroke="none" r="3" cy="273.7155239875389" cx="459.2531380753138"></circle><circle fill="#dc3912" stroke-width="0" stroke="none" r="3" cy="309.6644149272612" cx="509.1276150627615"></circle><circle fill="#dc3912" stroke-width="0" stroke="none" r="3" cy="315.9337558225883" cx="559.0020920502093"></circle><circle fill="#dc3912" stroke-width="0" stroke="none" r="3" cy="329.63567581833615" cx="608.876569037657"></circle><circle fill="#dc3912" stroke-width="0" stroke="none" r="3" cy="344.0736415452818" cx="658.7510460251046"></circle><circle fill="#dc3912" stroke-width="0" stroke="none" r="3" cy="349.5226332469029" cx="708.6255230125523"></circle><circle fill="#dc3912" stroke-width="0" stroke="none" r="3" cy="355.0080815225592" cx="758.5"></circle><circle fill="#ff9900" stroke-width="0" stroke="none" r="3" cy="96.5" cx="162.5"></circle><circle fill="#ff9900" stroke-width="0" stroke="none" r="3" cy="96.88667949346257" cx="164.99372384937237"></circle><circle fill="#ff9900" stroke-width="0" stroke="none" r="3" cy="99.62819966989531" cx="169.98117154811715"></circle><circle fill="#ff9900" stroke-width="0" stroke="none" r="3" cy="99.15053395744104" cx="184.94351464435147"></circle><circle fill="#ff9900" stroke-width="0" stroke="none" r="3" cy="105.64243811399223" cx="209.8807531380753"></circle><circle fill="#ff9900" stroke-width="0" stroke="none" r="3" cy="125.92502636877941" cx="259.755230125523"></circle><circle fill="#ff9900" stroke-width="0" stroke="none" r="3" cy="135.14721300619186" cx="309.6297071129707"></circle><circle fill="#ff9900" stroke-width="0" stroke="none" r="3" cy="163.2624397997675" cx="359.50418410041846"></circle><circle fill="#ff9900" stroke-width="0" stroke="none" r="3" cy="177.21594758458832" cx="409.37866108786613"></circle><circle fill="#ff9900" stroke-width="0" stroke="none" r="3" cy="187.56015531660694" cx="459.2531380753138"></circle><circle fill="#ff9900" stroke-width="0" stroke="none" r="3" cy="206.6480250612912" cx="509.1276150627615"></circle><circle fill="#ff9900" stroke-width="0" stroke="none" r="3" cy="226.15700154342642" cx="559.0020920502093"></circle><circle fill="#ff9900" stroke-width="0" stroke="none" r="3" cy="233.7093706041176" cx="608.876569037657"></circle><circle fill="#ff9900" stroke-width="0" stroke="none" r="3" cy="245.81084389996488" cx="658.7510460251046"></circle><circle fill="#ff9900" stroke-width="0" stroke="none" r="3" cy="257.67072628360404" cx="708.6255230125523"></circle><circle fill="#ff9900" stroke-width="0" stroke="none" r="3" cy="268.7583847283407" cx="758.5"></circle><circle fill="#109618" stroke-width="0" stroke="none" r="3" cy="96.5" cx="162.5"></circle><circle fill="#109618" stroke-width="0" stroke="none" r="3" cy="96.76219396743022" cx="164.99372384937237"></circle><circle fill="#109618" stroke-width="0" stroke="none" r="3" cy="104.50049024529983" cx="169.98117154811715"></circle><circle fill="#109618" stroke-width="0" stroke="none" r="3" cy="101.34476824650733" cx="184.94351464435147"></circle><circle fill="#109618" stroke-width="0" stroke="none" r="3" cy="104.90881535387496" cx="209.8807531380753"></circle><circle fill="#109618" stroke-width="0" stroke="none" r="3" cy="133.9475203750066" cx="259.755230125523"></circle><circle fill="#109618" stroke-width="0" stroke="none" r="3" cy="181.64162292609348" cx="309.6297071129707"></circle><circle fill="#109618" stroke-width="0" stroke="none" r="3" cy="212.6519311035147" cx="359.50418410041846"></circle><circle fill="#109618" stroke-width="0" stroke="none" r="3" cy="228.8747683264177" cx="409.37866108786613"></circle><circle fill="#109618" stroke-width="0" stroke="none" r="3" cy="237.9495232942295" cx="459.2531380753138"></circle><circle fill="#109618" stroke-width="0" stroke="none" r="3" cy="261.49273712737124" cx="509.1276150627615"></circle><circle fill="#109618" stroke-width="0" stroke="none" r="3" cy="275.2218056403991" cx="559.0020920502093"></circle><circle fill="#109618" stroke-width="0" stroke="none" r="3" cy="286.3347609367684" cx="608.876569037657"></circle><circle fill="#109618" stroke-width="0" stroke="none" r="3" cy="304.03354366531505" cx="658.7510460251046"></circle><circle fill="#109618" stroke-width="0" stroke="none" r="3" cy="310.9983141801245" cx="708.6255230125523"></circle><circle fill="#109618" stroke-width="0" stroke="none" r="3" cy="317.9996942989739" cx="758.5"></circle></g><g><g><text fill="#444444" stroke-width="0" stroke="none" font-size="14" font-family="Arial" y="425.9" x="209.8807531380753" text-anchor="middle">20</text></g><g><text fill="#444444" stroke-width="0" stroke="none" font-size="14" font-family="Arial" y="425.9" x="259.755230125523" text-anchor="middle">40</text></g><g><text fill="#444444" stroke-width="0" stroke="none" font-size="14" font-family="Arial" y="425.9" x="309.6297071129707" text-anchor="middle">60</text></g><g><text fill="#444444" stroke-width="0" stroke="none" font-size="14" font-family="Arial" y="425.9" x="359.50418410041846" text-anchor="middle">80</text></g><g><text fill="#444444" stroke-width="0" stroke="none" font-size="14" font-family="Arial" y="425.9" x="409.37866108786613" text-anchor="middle">100</text></g><g><text fill="#444444" stroke-width="0" stroke="none" font-size="14" font-family="Arial" y="425.9" x="459.2531380753138" text-anchor="middle">120</text></g><g><text fill="#444444" stroke-width="0" stroke="none" font-size="14" font-family="Arial" y="425.9" x="509.1276150627615" text-anchor="middle">140</text></g><g><text fill="#444444" stroke-width="0" stroke="none" font-size="14" font-family="Arial" y="425.9" x="559.0020920502093" text-anchor="middle">160</text></g><g><text fill="#444444" stroke-width="0" stroke="none" font-size="14" font-family="Arial" y="425.9" x="608.876569037657" text-anchor="middle">180</text></g><g><text fill="#444444" stroke-width="0" stroke="none" font-size="14" font-family="Arial" y="425.9" x="658.7510460251046" text-anchor="middle">200</text></g><g><text fill="#444444" stroke-width="0" stroke="none" font-size="14" font-family="Arial" y="425.9" x="708.6255230125523" text-anchor="middle">220</text></g><g><text fill="#444444" stroke-width="0" stroke="none" font-size="14" font-family="Arial" y="425.9" x="758.5" text-anchor="middle">240</text></g><g><text fill="#444444" stroke-width="0" stroke="none" font-size="14" font-family="Arial" y="409.4" x="148" text-anchor="end">0</text></g><g><text fill="#444444" stroke-width="0" stroke="none" font-size="14" font-family="Arial" y="347.79999999999995" x="148" text-anchor="end">0.2</text></g><g><text fill="#444444" stroke-width="0" stroke="none" font-size="14" font-family="Arial" y="286.2" x="148" text-anchor="end">0.4</text></g><g><text fill="#444444" stroke-width="0" stroke="none" font-size="14" font-family="Arial" y="224.60000000000002" x="148" text-anchor="end">0.6</text></g><g><text fill="#444444" stroke-width="0" stroke="none" font-size="14" font-family="Arial" y="163" x="148" text-anchor="end">0.8</text></g><g><text fill="#444444" stroke-width="0" stroke="none" font-size="14" font-family="Arial" y="101.4" x="148" text-anchor="end">1</text></g></g></g><g><g><text fill="#222222" stroke-width="0" stroke="none" font-style="italic" font-size="14" font-family="Arial" y="468.9" x="460.5" text-anchor="middle">threads</text><rect fill="#ffffff" fill-opacity="0" stroke-width="0" stroke="none" height="14" width="597" y="457" x="162"></rect></g><g><text fill="#222222" stroke-width="0" stroke="none" transform="rotate(-90 68.9 250.5)" font-style="italic" font-size="14" font-family="Arial" y="250.5" x="68.9" text-anchor="middle">efficiency</text><path fill="#ffffff" fill-opacity="0" stroke-width="0" stroke="none" d="M56.99999999999999,405L57.00000000000001,96L71.00000000000001,96L70.99999999999999,405Z"></path></g></g><g></g></svg>