<svg aria-label="A chart." style="overflow: hidden;" height="500" width="920"><defs id="defs"><clipPath id="_ABSTRACT_RENDERER_ID_3"><rect height="309" width="597" y="96" x="162"></rect></clipPath></defs><rect fill="#ffffff" stroke-width="0" stroke="none" height="500" width="920" y="0" x="0"></rect><g><rect fill="#ffffff" fill-opacity="0" stroke-width="0" stroke="none" height="83" width="133" y="96" x="773"></rect><g><rect fill="#ffffff" fill-opacity="0" stroke-width="0" stroke="none" height="14" width="133" y="96" x="773"></rect><g><text fill="#222222" stroke-width="0" stroke="none" font-size="14" font-family="Arial" y="107.9" x="806" text-anchor="start">4000-TH</text></g><path fill="none" fill-opacity="1" stroke-width="2" stroke="#3366cc" d="M773,103L801,103"></path><circle fill="#3366cc" stroke-width="0" stroke="none" r="3" cy="103" cx="787"></circle></g><g><rect fill="#ffffff" fill-opacity="0" stroke-width="0" stroke="none" height="14" width="133" y="119" x="773"></rect><g><text fill="#222222" stroke-width="0" stroke="none" font-size="14" font-family="Arial" y="130.9" x="806" text-anchor="start">4000-FF</text></g><path fill="none" fill-opacity="1" stroke-width="2" stroke="#dc3912" d="M773,126L801,126"></path><circle fill="#dc3912" stroke-width="0" stroke="none" r="3" cy="126" cx="787"></circle></g><g><rect fill="#ffffff" fill-opacity="0" stroke-width="0" stroke="none" height="14" width="133" y="142" x="773"></rect><g><text fill="#222222" stroke-width="0" stroke="none" font-size="14" font-family="Arial" y="153.9" x="806" text-anchor="start">8000-TH</text></g><path fill="none" fill-opacity="1" stroke-width="2" stroke="#ff9900" d="M773,149L801,149"></path><circle fill="#ff9900" stroke-width="0" stroke="none" r="3" cy="149" cx="787"></circle></g><g><rect fill="#ffffff" fill-opacity="0" stroke-width="0" stroke="none" height="14" width="133" y="165" x="773"></rect><g><text fill="#222222" stroke-width="0" stroke="none" font-size="14" font-family="Arial" y="176.9" x="806" text-anchor="start">8000-FF</text></g><path fill="none" fill-opacity="1" stroke-width="2" stroke="#109618" d="M773,172L801,172"></path><circle fill="#109618" stroke-width="0" stroke="none" r="3" cy="172" cx="787"></circle></g></g><g><rect fill="#ffffff" fill-opacity="0" stroke-width="0" stroke="none" height="309" width="597" y="96" x="162"></rect><g clip-path="url(file:///home/federico/Dropbox/Universita/public_html/game-of-life/performance.html#_ABSTRACT_RENDERER_ID_3)"><g><rect fill="#cccccc" stroke-width="0" stroke="none" height="309" width="1" y="96" x="209"></rect><rect fill="#cccccc" stroke-width="0" stroke="none" height="309" width="1" y="96" x="259"></rect><rect fill="#cccccc" stroke-width="0" stroke="none" height="309" width="1" y="96" x="309"></rect><rect fill="#cccccc" stroke-width="0" stroke="none" height="309" width="1" y="96" x="359"></rect><rect fill="#cccccc" stroke-width="0" stroke="none" height="309" width="1" y="96" x="409"></rect><rect fill="#cccccc" stroke-width="0" stroke="none" height="309" width="1" y="96" x="459"></rect><rect fill="#cccccc" stroke-width="0" stroke="none" height="309" width="1" y="96" x="509"></rect><rect fill="#cccccc" stroke-width="0" stroke="none" height="309" width="1" y="96" x="559"></rect><rect fill="#cccccc" stroke-width="0" stroke="none" height="309" width="1" y="96" x="608"></rect><rect fill="#cccccc" stroke-width="0" stroke="none" height="309" width="1" y="96" x="658"></rect><rect fill="#cccccc" stroke-width="0" stroke="none" height="309" width="1" y="96" x="708"></rect><rect fill="#cccccc" stroke-width="0" stroke="none" height="309" width="1" y="96" x="758"></rect><rect fill="#cccccc" stroke-width="0" stroke="none" height="1" width="597" y="404" x="162"></rect><rect fill="#cccccc" stroke-width="0" stroke="none" height="1" width="597" y="346" x="162"></rect><rect fill="#cccccc" stroke-width="0" stroke="none" height="1" width="597" y="288" x="162"></rect><rect fill="#cccccc" stroke-width="0" stroke="none" height="1" width="597" y="230" x="162"></rect><rect fill="#cccccc" stroke-width="0" stroke="none" height="1" width="597" y="172" x="162"></rect><rect fill="#cccccc" stroke-width="0" stroke="none" height="1" width="597" y="113" x="162"></rect></g><g><rect fill="#333333" stroke-width="0" stroke="none" height="1" width="597" y="404" x="162"></rect></g><g><path fill="none" fill-opacity="1" stroke-width="2" stroke="#3366cc" d="M162.5,401.5943396226415L164.99372384937237,398.8415493634842L169.98117154811715,393.4794348823027L184.94351464435147,376.6112451194832L209.8807531380753,350.37581720561406L259.755230125523,305.9625056866414L309.6297071129707,276.8543471075987L359.50418410041846,249.85525488700887L409.37866108786613,224.06470658960333L459.2531380753138,200.26695537215792L509.1276150627615,187.76061256279854L559.0020920502093,179.28903555127744L608.876569037657,172.4876275180607L658.7510460251046,168.9025082475684L708.6255230125523,166.3548962978244L758.5,167.437244574428"></path><path fill="none" fill-opacity="1" stroke-width="2" stroke="#dc3912" d="M162.5,401.5943396226415L164.99372384937237,398.75682812790274L169.98117154811715,393.13048229151025L184.94351464435147,376.0473731323943L209.8807531380753,349.28532336934364L259.755230125523,307.24179179026123L309.6297071129707,281.4633813383976L359.50418410041846,282.298557398427L409.37866108786613,264.52160335346787L459.2531380753138,256.4421026274026L509.1276150627615,279.24545367751483L559.0020920502093,270.8151031284351L608.876569037657,277.3719023330237L658.7510460251046,290.4880029156261L708.6255230125523,290.396031267157L758.5,292.4428260888134"></path><path fill="none" fill-opacity="1" stroke-width="2" stroke="#ff9900" d="M162.5,401.5943396226415L164.99372384937237,398.69597508478233L169.98117154811715,392.9954037611281L184.94351464435147,375.6934465997586L209.8807531380753,348.111780776225L259.755230125523,299.3773684410488L309.6297071129707,252.03615830539164L359.50418410041846,222.4339168300132L409.37866108786613,190.08108262697013L459.2531380753138,158.9077229999324L509.1276150627615,143.18607083566764L559.0020920502093,135.3030211976248L608.876569037657,114.4781764975582L658.7510460251046,105.08649792446204L708.6255230125523,99.7599979471027L758.5,97.16049372454495"></path><path fill="none" fill-opacity="1" stroke-width="2" stroke="#109618" d="M162.5,401.5943396226415L164.99372384937237,398.6936263012723L169.98117154811715,393.17926378284153L184.94351464435147,375.9004498345762L209.8807531380753,347.9733613875236L259.755230125523,302.40472466981385L309.6297071129707,278.3537488260906L359.50418410041846,259.7090046064262L409.37866108786613,238.81581917586576L459.2531380753138,215.95229052176927L509.1276150627615,215.62248299841488L559.0020920502093,209.3631028534326L608.876569037657,203.84204687375768L658.7510460251046,214.94064842512267L708.6255230125523,210.43989735497544L758.5,208.65025124295977"></path></g></g><g><circle fill="#3366cc" stroke-width="0" stroke="none" r="3" cy="401.5943396226415" cx="162.5"></circle><circle fill="#3366cc" stroke-width="0" stroke="none" r="3" cy="398.8415493634842" cx="164.99372384937237"></circle><circle fill="#3366cc" stroke-width="0" stroke="none" r="3" cy="393.4794348823027" cx="169.98117154811715"></circle><circle fill="#3366cc" stroke-width="0" stroke="none" r="3" cy="376.6112451194832" cx="184.94351464435147"></circle><circle fill="#3366cc" stroke-width="0" stroke="none" r="3" cy="350.37581720561406" cx="209.8807531380753"></circle><circle fill="#3366cc" stroke-width="0" stroke="none" r="3" cy="305.9625056866414" cx="259.755230125523"></circle><circle fill="#3366cc" stroke-width="0" stroke="none" r="3" cy="276.8543471075987" cx="309.6297071129707"></circle><circle fill="#3366cc" stroke-width="0" stroke="none" r="3" cy="249.85525488700887" cx="359.50418410041846"></circle><circle fill="#3366cc" stroke-width="0" stroke="none" r="3" cy="224.06470658960333" cx="409.37866108786613"></circle><circle fill="#3366cc" stroke-width="0" stroke="none" r="3" cy="200.26695537215792" cx="459.2531380753138"></circle><circle fill="#3366cc" stroke-width="0" stroke="none" r="3" cy="187.76061256279854" cx="509.1276150627615"></circle><circle fill="#3366cc" stroke-width="0" stroke="none" r="3" cy="179.28903555127744" cx="559.0020920502093"></circle><circle fill="#3366cc" stroke-width="0" stroke="none" r="3" cy="172.4876275180607" cx="608.876569037657"></circle><circle fill="#3366cc" stroke-width="0" stroke="none" r="3" cy="168.9025082475684" cx="658.7510460251046"></circle><circle fill="#3366cc" stroke-width="0" stroke="none" r="3" cy="166.3548962978244" cx="708.6255230125523"></circle><circle fill="#3366cc" stroke-width="0" stroke="none" r="3" cy="167.437244574428" cx="758.5"></circle><circle fill="#dc3912" stroke-width="0" stroke="none" r="3" cy="401.5943396226415" cx="162.5"></circle><circle fill="#dc3912" stroke-width="0" stroke="none" r="3" cy="398.75682812790274" cx="164.99372384937237"></circle><circle fill="#dc3912" stroke-width="0" stroke="none" r="3" cy="393.13048229151025" cx="169.98117154811715"></circle><circle fill="#dc3912" stroke-width="0" stroke="none" r="3" cy="376.0473731323943" cx="184.94351464435147"></circle><circle fill="#dc3912" stroke-width="0" stroke="none" r="3" cy="349.28532336934364" cx="209.8807531380753"></circle><circle fill="#dc3912" stroke-width="0" stroke="none" r="3" cy="307.24179179026123" cx="259.755230125523"></circle><circle fill="#dc3912" stroke-width="0" stroke="none" r="3" cy="281.4633813383976" cx="309.6297071129707"></circle><circle fill="#dc3912" stroke-width="0" stroke="none" r="3" cy="282.298557398427" cx="359.50418410041846"></circle><circle fill="#dc3912" stroke-width="0" stroke="none" r="3" cy="264.52160335346787" cx="409.37866108786613"></circle><circle fill="#dc3912" stroke-width="0" stroke="none" r="3" cy="256.4421026274026" cx="459.2531380753138"></circle><circle fill="#dc3912" stroke-width="0" stroke="none" r="3" cy="279.24545367751483" cx="509.1276150627615"></circle><circle fill="#dc3912" stroke-width="0" stroke="none" r="3" cy="270.8151031284351" cx="559.0020920502093"></circle><circle fill="#dc3912" stroke-width="0" stroke="none" r="3" cy="277.3719023330237" cx="608.876569037657"></circle><circle fill="#dc3912" stroke-width="0" stroke="none" r="3" cy="290.4880029156261" cx="658.7510460251046"></circle><circle fill="#dc3912" stroke-width="0" stroke="none" r="3" cy="290.396031267157" cx="708.6255230125523"></circle><circle fill="#dc3912" stroke-width="0" stroke="none" r="3" cy="292.4428260888134" cx="758.5"></circle><circle fill="#ff9900" stroke-width="0" stroke="none" r="3" cy="401.5943396226415" cx="162.5"></circle><circle fill="#ff9900" stroke-width="0" stroke="none" r="3" cy="398.69597508478233" cx="164.99372384937237"></circle><circle fill="#ff9900" stroke-width="0" stroke="none" r="3" cy="392.9954037611281" cx="169.98117154811715"></circle><circle fill="#ff9900" stroke-width="0" stroke="none" r="3" cy="375.6934465997586" cx="184.94351464435147"></circle><circle fill="#ff9900" stroke-width="0" stroke="none" r="3" cy="348.111780776225" cx="209.8807531380753"></circle><circle fill="#ff9900" stroke-width="0" stroke="none" r="3" cy="299.3773684410488" cx="259.755230125523"></circle><circle fill="#ff9900" stroke-width="0" stroke="none" r="3" cy="252.03615830539164" cx="309.6297071129707"></circle><circle fill="#ff9900" stroke-width="0" stroke="none" r="3" cy="222.4339168300132" cx="359.50418410041846"></circle><circle fill="#ff9900" stroke-width="0" stroke="none" r="3" cy="190.08108262697013" cx="409.37866108786613"></circle><circle fill="#ff9900" stroke-width="0" stroke="none" r="3" cy="158.9077229999324" cx="459.2531380753138"></circle><circle fill="#ff9900" stroke-width="0" stroke="none" r="3" cy="143.18607083566764" cx="509.1276150627615"></circle><circle fill="#ff9900" stroke-width="0" stroke="none" r="3" cy="135.3030211976248" cx="559.0020920502093"></circle><circle fill="#ff9900" stroke-width="0" stroke="none" r="3" cy="114.4781764975582" cx="608.876569037657"></circle><circle fill="#ff9900" stroke-width="0" stroke="none" r="3" cy="105.08649792446204" cx="658.7510460251046"></circle><circle fill="#ff9900" stroke-width="0" stroke="none" r="3" cy="99.7599979471027" cx="708.6255230125523"></circle><circle fill="#ff9900" stroke-width="0" stroke="none" r="3" cy="97.16049372454495" cx="758.5"></circle><circle fill="#109618" stroke-width="0" stroke="none" r="3" cy="401.5943396226415" cx="162.5"></circle><circle fill="#109618" stroke-width="0" stroke="none" r="3" cy="398.6936263012723" cx="164.99372384937237"></circle><circle fill="#109618" stroke-width="0" stroke="none" r="3" cy="393.17926378284153" cx="169.98117154811715"></circle><circle fill="#109618" stroke-width="0" stroke="none" r="3" cy="375.9004498345762" cx="184.94351464435147"></circle><circle fill="#109618" stroke-width="0" stroke="none" r="3" cy="347.9733613875236" cx="209.8807531380753"></circle><circle fill="#109618" stroke-width="0" stroke="none" r="3" cy="302.40472466981385" cx="259.755230125523"></circle><circle fill="#109618" stroke-width="0" stroke="none" r="3" cy="278.3537488260906" cx="309.6297071129707"></circle><circle fill="#109618" stroke-width="0" stroke="none" r="3" cy="259.7090046064262" cx="359.50418410041846"></circle><circle fill="#109618" stroke-width="0" stroke="none" r="3" cy="238.81581917586576" cx="409.37866108786613"></circle><circle fill="#109618" stroke-width="0" stroke="none" r="3" cy="215.95229052176927" cx="459.2531380753138"></circle><circle fill="#109618" stroke-width="0" stroke="none" r="3" cy="215.62248299841488" cx="509.1276150627615"></circle><circle fill="#109618" stroke-width="0" stroke="none" r="3" cy="209.3631028534326" cx="559.0020920502093"></circle><circle fill="#109618" stroke-width="0" stroke="none" r="3" cy="203.84204687375768" cx="608.876569037657"></circle><circle fill="#109618" stroke-width="0" stroke="none" r="3" cy="214.94064842512267" cx="658.7510460251046"></circle><circle fill="#109618" stroke-width="0" stroke="none" r="3" cy="210.43989735497544" cx="708.6255230125523"></circle><circle fill="#109618" stroke-width="0" stroke="none" r="3" cy="208.65025124295977" cx="758.5"></circle></g><g><g><text fill="#444444" stroke-width="0" stroke="none" font-size="14" font-family="Arial" y="425.9" x="209.8807531380753" text-anchor="middle">20</text></g><g><text fill="#444444" stroke-width="0" stroke="none" font-size="14" font-family="Arial" y="425.9" x="259.755230125523" text-anchor="middle">40</text></g><g><text fill="#444444" stroke-width="0" stroke="none" font-size="14" font-family="Arial" y="425.9" x="309.6297071129707" text-anchor="middle">60</text></g><g><text fill="#444444" stroke-width="0" stroke="none" font-size="14" font-family="Arial" y="425.9" x="359.50418410041846" text-anchor="middle">80</text></g><g><text fill="#444444" stroke-width="0" stroke="none" font-size="14" font-family="Arial" y="425.9" x="409.37866108786613" text-anchor="middle">100</text></g><g><text fill="#444444" stroke-width="0" stroke="none" font-size="14" font-family="Arial" y="425.9" x="459.2531380753138" text-anchor="middle">120</text></g><g><text fill="#444444" stroke-width="0" stroke="none" font-size="14" font-family="Arial" y="425.9" x="509.1276150627615" text-anchor="middle">140</text></g><g><text fill="#444444" stroke-width="0" stroke="none" font-size="14" font-family="Arial" y="425.9" x="559.0020920502093" text-anchor="middle">160</text></g><g><text fill="#444444" stroke-width="0" stroke="none" font-size="14" font-family="Arial" y="425.9" x="608.876569037657" text-anchor="middle">180</text></g><g><text fill="#444444" stroke-width="0" stroke="none" font-size="14" font-family="Arial" y="425.9" x="658.7510460251046" text-anchor="middle">200</text></g><g><text fill="#444444" stroke-width="0" stroke="none" font-size="14" font-family="Arial" y="425.9" x="708.6255230125523" text-anchor="middle">220</text></g><g><text fill="#444444" stroke-width="0" stroke="none" font-size="14" font-family="Arial" y="425.9" x="758.5" text-anchor="middle">240</text></g><g><text fill="#444444" stroke-width="0" stroke="none" font-size="14" font-family="Arial" y="409.4" x="148" text-anchor="end">0</text></g><g><text fill="#444444" stroke-width="0" stroke="none" font-size="14" font-family="Arial" y="351.2867924528302" x="148" text-anchor="end">20</text></g><g><text fill="#444444" stroke-width="0" stroke="none" font-size="14" font-family="Arial" y="293.1735849056604" x="148" text-anchor="end">40</text></g><g><text fill="#444444" stroke-width="0" stroke="none" font-size="14" font-family="Arial" y="235.06037735849057" x="148" text-anchor="end">60</text></g><g><text fill="#444444" stroke-width="0" stroke="none" font-size="14" font-family="Arial" y="176.94716981132078" x="148" text-anchor="end">80</text></g><g><text fill="#444444" stroke-width="0" stroke="none" font-size="14" font-family="Arial" y="118.83396226415098" x="148" text-anchor="end">100</text></g></g></g><g><g><text fill="#222222" stroke-width="0" stroke="none" font-style="italic" font-size="14" font-family="Arial" y="468.9" x="460.5" text-anchor="middle">threads</text><rect fill="#ffffff" fill-opacity="0" stroke-width="0" stroke="none" height="14" width="597" y="457" x="162"></rect></g><g><text fill="#222222" stroke-width="0" stroke="none" transform="rotate(-90 66.9 250.5)" font-style="italic" font-size="14" font-family="Arial" y="250.5" x="66.9" text-anchor="middle">scalability</text><path fill="#ffffff" fill-opacity="0" stroke-width="0" stroke="none" d="M54.99999999999999,405L55.00000000000001,96L69.00000000000001,96L68.99999999999999,405Z"></path></g></g><g></g></svg>