<svg aria-label="A chart." style="overflow: hidden;" height="500" width="920"><defs id="defs"><clipPath id="_ABSTRACT_RENDERER_ID_2"><rect height="309" width="597" y="96" x="162"></rect></clipPath></defs><rect fill="#ffffff" stroke-width="0" stroke="none" height="500" width="920" y="0" x="0"></rect><g><rect fill="#ffffff" fill-opacity="0" stroke-width="0" stroke="none" height="83" width="133" y="96" x="773"></rect><g><rect fill="#ffffff" fill-opacity="0" stroke-width="0" stroke="none" height="14" width="133" y="96" x="773"></rect><g><text fill="#222222" stroke-width="0" stroke="none" font-size="14" font-family="Arial" y="107.9" x="806" text-anchor="start">4000-TH</text></g><path fill="none" fill-opacity="1" stroke-width="2" stroke="#3366cc" d="M773,103L801,103"></path><circle fill="#3366cc" stroke-width="0" stroke="none" r="3" cy="103" cx="787"></circle></g><g><rect fill="#ffffff" fill-opacity="0" stroke-width="0" stroke="none" height="14" width="133" y="119" x="773"></rect><g><text fill="#222222" stroke-width="0" stroke="none" font-size="14" font-family="Arial" y="130.9" x="806" text-anchor="start">4000-FF</text></g><path fill="none" fill-opacity="1" stroke-width="2" stroke="#dc3912" d="M773,126L801,126"></path><circle fill="#dc3912" stroke-width="0" stroke="none" r="3" cy="126" cx="787"></circle></g><g><rect fill="#ffffff" fill-opacity="0" stroke-width="0" stroke="none" height="14" width="133" y="142" x="773"></rect><g><text fill="#222222" stroke-width="0" stroke="none" font-size="14" font-family="Arial" y="153.9" x="806" text-anchor="start">8000-TH</text></g><path fill="none" fill-opacity="1" stroke-width="2" stroke="#ff9900" d="M773,149L801,149"></path><circle fill="#ff9900" stroke-width="0" stroke="none" r="3" cy="149" cx="787"></circle></g><g><rect fill="#ffffff" fill-opacity="0" stroke-width="0" stroke="none" height="14" width="133" y="165" x="773"></rect><g><text fill="#222222" stroke-width="0" stroke="none" font-size="14" font-family="Arial" y="176.9" x="806" text-anchor="start">8000-FF</text></g><path fill="none" fill-opacity="1" stroke-width="2" stroke="#109618" d="M773,172L801,172"></path><circle fill="#109618" stroke-width="0" stroke="none" r="3" cy="172" cx="787"></circle></g></g><g><rect fill="#ffffff" fill-opacity="0" stroke-width="0" stroke="none" height="309" width="597" y="96" x="162"></rect><g clip-path="url(file:///home/federico/Dropbox/Universita/public_html/game-of-life/performance.html#_ABSTRACT_RENDERER_ID_2)"><g><rect fill="#cccccc" stroke-width="0" stroke="none" height="309" width="1" y="96" x="209"></rect><rect fill="#cccccc" stroke-width="0" stroke="none" height="309" width="1" y="96" x="259"></rect><rect fill="#cccccc" stroke-width="0" stroke="none" height="309" width="1" y="96" x="309"></rect><rect fill="#cccccc" stroke-width="0" stroke="none" height="309" width="1" y="96" x="359"></rect><rect fill="#cccccc" stroke-width="0" stroke="none" height="309" width="1" y="96" x="409"></rect><rect fill="#cccccc" stroke-width="0" stroke="none" height="309" width="1" y="96" x="459"></rect><rect fill="#cccccc" stroke-width="0" stroke="none" height="309" width="1" y="96" x="509"></rect><rect fill="#cccccc" stroke-width="0" stroke="none" height="309" width="1" y="96" x="559"></rect><rect fill="#cccccc" stroke-width="0" stroke="none" height="309" width="1" y="96" x="608"></rect><rect fill="#cccccc" stroke-width="0" stroke="none" height="309" width="1" y="96" x="658"></rect><rect fill="#cccccc" stroke-width="0" stroke="none" height="309" width="1" y="96" x="708"></rect><rect fill="#cccccc" stroke-width="0" stroke="none" height="309" width="1" y="96" x="758"></rect><rect fill="#cccccc" stroke-width="0" stroke="none" height="1" width="597" y="404" x="162"></rect><rect fill="#cccccc" stroke-width="0" stroke="none" height="1" width="597" y="346" x="162"></rect><rect fill="#cccccc" stroke-width="0" stroke="none" height="1" width="597" y="288" x="162"></rect><rect fill="#cccccc" stroke-width="0" stroke="none" height="1" width="597" y="230" x="162"></rect><rect fill="#cccccc" stroke-width="0" stroke="none" height="1" width="597" y="172" x="162"></rect><rect fill="#cccccc" stroke-width="0" stroke="none" height="1" width="597" y="113" x="162"></rect></g><g><rect fill="#333333" stroke-width="0" stroke="none" height="1" width="597" y="404" x="162"></rect></g><g><path fill="none" fill-opacity="1" stroke-width="2" stroke="#3366cc" d="M162.5,401.59879515739544L164.99372384937237,398.850226022209L169.98117154811715,393.4963337983882L184.94351464435147,376.6540096894867L209.8807531380753,350.45881113682066L259.755230125523,306.1136029153124L309.6297071129707,277.05007873786127L359.50418410041846,250.09238688004288L409.37866108786613,224.34138576618204L459.2531380753138,200.58012598057803L509.1276150627615,188.09296037632691L559.0020920502093,179.63437366680034L608.876569037657,172.84339490126533L658.7510460251046,169.26377304665516L708.6255230125523,166.72006760080617L758.5,167.80075620637598"></path><path fill="none" fill-opacity="1" stroke-width="2" stroke="#dc3912" d="M162.5,401.59614733859536L164.99372384937237,398.7604011619365L169.98117154811715,393.137555677894L184.94351464435147,376.06507453615006L209.8807531380753,349.3196744079607L259.755230125523,307.3022996238647L309.6297071129707,281.5399268494259L359.50418410041846,282.37458331635355L409.37866108786613,264.60868895465535L459.2531380753138,256.5342147769353L509.1276150627615,279.3233790412087L559.0020920502093,270.8982733167832L608.876569037657,277.4509933004757L658.7510460251046,290.5589338845938L708.6255230125523,290.4670194549991L758.5,292.51254089189166"></path><path fill="none" fill-opacity="1" stroke-width="2" stroke="#ff9900" d="M162.5,401.59523404637866L164.99372384937237,398.69776168644285L169.98117154811715,392.998945119245L184.94351464435147,375.70231386633486L209.8807531380753,348.1291382630674L259.755230125523,299.40972741104724L309.6297071129707,252.083089901434L359.50418410041846,222.4899606222552L409.37866108786613,190.14708530604565L459.2531380753138,158.98332149861366L509.1276150627615,143.26650879149685L559.0020920502093,135.38588572290865L608.876569037657,114.56745135061715L658.7510460251046,105.17866373487885L708.6255230125523,99.85380336690145L758.5,97.2550993267393"></path><path fill="none" fill-opacity="1" stroke-width="2" stroke="#109618" d="M162.5,401.59230559298015L164.99372384937237,398.68956170500354L169.98117154811715,393.1713390049035L184.94351464435147,375.88042948608984L209.8807531380753,347.9337914293517L259.755230125523,302.3332556089687L309.6297071129707,278.26544352428925L359.50418410041846,259.6076475512036L409.37866108786613,238.69983640622146L459.2531380753138,215.8203027517444L509.1276150627615,215.49026435547378L559.0020920502093,209.22650249920278L608.876569037657,203.70158165228048L658.7510460251046,214.80795248216498L708.6255230125523,210.30405078187314L758.5,208.51315187606795"></path></g></g><g><circle fill="#3366cc" stroke-width="0" stroke="none" r="3" cy="401.59879515739544" cx="162.5"></circle><circle fill="#3366cc" stroke-width="0" stroke="none" r="3" cy="398.850226022209" cx="164.99372384937237"></circle><circle fill="#3366cc" stroke-width="0" stroke="none" r="3" cy="393.4963337983882" cx="169.98117154811715"></circle><circle fill="#3366cc" stroke-width="0" stroke="none" r="3" cy="376.6540096894867" cx="184.94351464435147"></circle><circle fill="#3366cc" stroke-width="0" stroke="none" r="3" cy="350.45881113682066" cx="209.8807531380753"></circle><circle fill="#3366cc" stroke-width="0" stroke="none" r="3" cy="306.1136029153124" cx="259.755230125523"></circle><circle fill="#3366cc" stroke-width="0" stroke="none" r="3" cy="277.05007873786127" cx="309.6297071129707"></circle><circle fill="#3366cc" stroke-width="0" stroke="none" r="3" cy="250.09238688004288" cx="359.50418410041846"></circle><circle fill="#3366cc" stroke-width="0" stroke="none" r="3" cy="224.34138576618204" cx="409.37866108786613"></circle><circle fill="#3366cc" stroke-width="0" stroke="none" r="3" cy="200.58012598057803" cx="459.2531380753138"></circle><circle fill="#3366cc" stroke-width="0" stroke="none" r="3" cy="188.09296037632691" cx="509.1276150627615"></circle><circle fill="#3366cc" stroke-width="0" stroke="none" r="3" cy="179.63437366680034" cx="559.0020920502093"></circle><circle fill="#3366cc" stroke-width="0" stroke="none" r="3" cy="172.84339490126533" cx="608.876569037657"></circle><circle fill="#3366cc" stroke-width="0" stroke="none" r="3" cy="169.26377304665516" cx="658.7510460251046"></circle><circle fill="#3366cc" stroke-width="0" stroke="none" r="3" cy="166.72006760080617" cx="708.6255230125523"></circle><circle fill="#3366cc" stroke-width="0" stroke="none" r="3" cy="167.80075620637598" cx="758.5"></circle><circle fill="#dc3912" stroke-width="0" stroke="none" r="3" cy="401.59614733859536" cx="162.5"></circle><circle fill="#dc3912" stroke-width="0" stroke="none" r="3" cy="398.7604011619365" cx="164.99372384937237"></circle><circle fill="#dc3912" stroke-width="0" stroke="none" r="3" cy="393.137555677894" cx="169.98117154811715"></circle><circle fill="#dc3912" stroke-width="0" stroke="none" r="3" cy="376.06507453615006" cx="184.94351464435147"></circle><circle fill="#dc3912" stroke-width="0" stroke="none" r="3" cy="349.3196744079607" cx="209.8807531380753"></circle><circle fill="#dc3912" stroke-width="0" stroke="none" r="3" cy="307.3022996238647" cx="259.755230125523"></circle><circle fill="#dc3912" stroke-width="0" stroke="none" r="3" cy="281.5399268494259" cx="309.6297071129707"></circle><circle fill="#dc3912" stroke-width="0" stroke="none" r="3" cy="282.37458331635355" cx="359.50418410041846"></circle><circle fill="#dc3912" stroke-width="0" stroke="none" r="3" cy="264.60868895465535" cx="409.37866108786613"></circle><circle fill="#dc3912" stroke-width="0" stroke="none" r="3" cy="256.5342147769353" cx="459.2531380753138"></circle><circle fill="#dc3912" stroke-width="0" stroke="none" r="3" cy="279.3233790412087" cx="509.1276150627615"></circle><circle fill="#dc3912" stroke-width="0" stroke="none" r="3" cy="270.8982733167832" cx="559.0020920502093"></circle><circle fill="#dc3912" stroke-width="0" stroke="none" r="3" cy="277.4509933004757" cx="608.876569037657"></circle><circle fill="#dc3912" stroke-width="0" stroke="none" r="3" cy="290.5589338845938" cx="658.7510460251046"></circle><circle fill="#dc3912" stroke-width="0" stroke="none" r="3" cy="290.4670194549991" cx="708.6255230125523"></circle><circle fill="#dc3912" stroke-width="0" stroke="none" r="3" cy="292.51254089189166" cx="758.5"></circle><circle fill="#ff9900" stroke-width="0" stroke="none" r="3" cy="401.59523404637866" cx="162.5"></circle><circle fill="#ff9900" stroke-width="0" stroke="none" r="3" cy="398.69776168644285" cx="164.99372384937237"></circle><circle fill="#ff9900" stroke-width="0" stroke="none" r="3" cy="392.998945119245" cx="169.98117154811715"></circle><circle fill="#ff9900" stroke-width="0" stroke="none" r="3" cy="375.70231386633486" cx="184.94351464435147"></circle><circle fill="#ff9900" stroke-width="0" stroke="none" r="3" cy="348.1291382630674" cx="209.8807531380753"></circle><circle fill="#ff9900" stroke-width="0" stroke="none" r="3" cy="299.40972741104724" cx="259.755230125523"></circle><circle fill="#ff9900" stroke-width="0" stroke="none" r="3" cy="252.083089901434" cx="309.6297071129707"></circle><circle fill="#ff9900" stroke-width="0" stroke="none" r="3" cy="222.4899606222552" cx="359.50418410041846"></circle><circle fill="#ff9900" stroke-width="0" stroke="none" r="3" cy="190.14708530604565" cx="409.37866108786613"></circle><circle fill="#ff9900" stroke-width="0" stroke="none" r="3" cy="158.98332149861366" cx="459.2531380753138"></circle><circle fill="#ff9900" stroke-width="0" stroke="none" r="3" cy="143.26650879149685" cx="509.1276150627615"></circle><circle fill="#ff9900" stroke-width="0" stroke="none" r="3" cy="135.38588572290865" cx="559.0020920502093"></circle><circle fill="#ff9900" stroke-width="0" stroke="none" r="3" cy="114.56745135061715" cx="608.876569037657"></circle><circle fill="#ff9900" stroke-width="0" stroke="none" r="3" cy="105.17866373487885" cx="658.7510460251046"></circle><circle fill="#ff9900" stroke-width="0" stroke="none" r="3" cy="99.85380336690145" cx="708.6255230125523"></circle><circle fill="#ff9900" stroke-width="0" stroke="none" r="3" cy="97.2550993267393" cx="758.5"></circle><circle fill="#109618" stroke-width="0" stroke="none" r="3" cy="401.59230559298015" cx="162.5"></circle><circle fill="#109618" stroke-width="0" stroke="none" r="3" cy="398.68956170500354" cx="164.99372384937237"></circle><circle fill="#109618" stroke-width="0" stroke="none" r="3" cy="393.1713390049035" cx="169.98117154811715"></circle><circle fill="#109618" stroke-width="0" stroke="none" r="3" cy="375.88042948608984" cx="184.94351464435147"></circle><circle fill="#109618" stroke-width="0" stroke="none" r="3" cy="347.9337914293517" cx="209.8807531380753"></circle><circle fill="#109618" stroke-width="0" stroke="none" r="3" cy="302.3332556089687" cx="259.755230125523"></circle><circle fill="#109618" stroke-width="0" stroke="none" r="3" cy="278.26544352428925" cx="309.6297071129707"></circle><circle fill="#109618" stroke-width="0" stroke="none" r="3" cy="259.6076475512036" cx="359.50418410041846"></circle><circle fill="#109618" stroke-width="0" stroke="none" r="3" cy="238.69983640622146" cx="409.37866108786613"></circle><circle fill="#109618" stroke-width="0" stroke="none" r="3" cy="215.8203027517444" cx="459.2531380753138"></circle><circle fill="#109618" stroke-width="0" stroke="none" r="3" cy="215.49026435547378" cx="509.1276150627615"></circle><circle fill="#109618" stroke-width="0" stroke="none" r="3" cy="209.22650249920278" cx="559.0020920502093"></circle><circle fill="#109618" stroke-width="0" stroke="none" r="3" cy="203.70158165228048" cx="608.876569037657"></circle><circle fill="#109618" stroke-width="0" stroke="none" r="3" cy="214.80795248216498" cx="658.7510460251046"></circle><circle fill="#109618" stroke-width="0" stroke="none" r="3" cy="210.30405078187314" cx="708.6255230125523"></circle><circle fill="#109618" stroke-width="0" stroke="none" r="3" cy="208.51315187606795" cx="758.5"></circle></g><g><g><text fill="#444444" stroke-width="0" stroke="none" font-size="14" font-family="Arial" y="425.9" x="209.8807531380753" text-anchor="middle">20</text></g><g><text fill="#444444" stroke-width="0" stroke="none" font-size="14" font-family="Arial" y="425.9" x="259.755230125523" text-anchor="middle">40</text></g><g><text fill="#444444" stroke-width="0" stroke="none" font-size="14" font-family="Arial" y="425.9" x="309.6297071129707" text-anchor="middle">60</text></g><g><text fill="#444444" stroke-width="0" stroke="none" font-size="14" font-family="Arial" y="425.9" x="359.50418410041846" text-anchor="middle">80</text></g><g><text fill="#444444" stroke-width="0" stroke="none" font-size="14" font-family="Arial" y="425.9" x="409.37866108786613" text-anchor="middle">100</text></g><g><text fill="#444444" stroke-width="0" stroke="none" font-size="14" font-family="Arial" y="425.9" x="459.2531380753138" text-anchor="middle">120</text></g><g><text fill="#444444" stroke-width="0" stroke="none" font-size="14" font-family="Arial" y="425.9" x="509.1276150627615" text-anchor="middle">140</text></g><g><text fill="#444444" stroke-width="0" stroke="none" font-size="14" font-family="Arial" y="425.9" x="559.0020920502093" text-anchor="middle">160</text></g><g><text fill="#444444" stroke-width="0" stroke="none" font-size="14" font-family="Arial" y="425.9" x="608.876569037657" text-anchor="middle">180</text></g><g><text fill="#444444" stroke-width="0" stroke="none" font-size="14" font-family="Arial" y="425.9" x="658.7510460251046" text-anchor="middle">200</text></g><g><text fill="#444444" stroke-width="0" stroke="none" font-size="14" font-family="Arial" y="425.9" x="708.6255230125523" text-anchor="middle">220</text></g><g><text fill="#444444" stroke-width="0" stroke="none" font-size="14" font-family="Arial" y="425.9" x="758.5" text-anchor="middle">240</text></g><g><text fill="#444444" stroke-width="0" stroke="none" font-size="14" font-family="Arial" y="409.4" x="148" text-anchor="end">0</text></g><g><text fill="#444444" stroke-width="0" stroke="none" font-size="14" font-family="Arial" y="351.2867924528302" x="148" text-anchor="end">20</text></g><g><text fill="#444444" stroke-width="0" stroke="none" font-size="14" font-family="Arial" y="293.1735849056604" x="148" text-anchor="end">40</text></g><g><text fill="#444444" stroke-width="0" stroke="none" font-size="14" font-family="Arial" y="235.06037735849057" x="148" text-anchor="end">60</text></g><g><text fill="#444444" stroke-width="0" stroke="none" font-size="14" font-family="Arial" y="176.94716981132078" x="148" text-anchor="end">80</text></g><g><text fill="#444444" stroke-width="0" stroke="none" font-size="14" font-family="Arial" y="118.83396226415098" x="148" text-anchor="end">100</text></g></g></g><g><g><text fill="#222222" stroke-width="0" stroke="none" font-style="italic" font-size="14" font-family="Arial" y="468.9" x="460.5" text-anchor="middle">threads</text><rect fill="#ffffff" fill-opacity="0" stroke-width="0" stroke="none" height="14" width="597" y="457" x="162"></rect></g><g><text fill="#222222" stroke-width="0" stroke="none" transform="rotate(-90 66.9 250.5)" font-style="italic" font-size="14" font-family="Arial" y="250.5" x="66.9" text-anchor="middle">speedup</text><path fill="#ffffff" fill-opacity="0" stroke-width="0" stroke="none" d="M54.99999999999999,405L55.00000000000001,96L69.00000000000001,96L68.99999999999999,405Z"></path></g></g><g></g></svg>