<svg aria-label="A chart." style="overflow: hidden;" height="500" width="920"><defs id="defs"><clipPath id="_ABSTRACT_RENDERER_ID_10"><rect height="309" width="597" y="96" x="162"></rect></clipPath></defs><rect fill="#ffffff" stroke-width="0" stroke="none" height="500" width="920" y="0" x="0"></rect><g><rect fill="#ffffff" fill-opacity="0" stroke-width="0" stroke="none" height="60" width="133" y="96" x="773"></rect><g><rect fill="#ffffff" fill-opacity="0" stroke-width="0" stroke="none" height="14" width="133" y="96" x="773"></rect><g><text fill="#222222" stroke-width="0" stroke="none" font-size="14" font-family="Arial" y="107.9" x="806" text-anchor="start">No vect</text></g><rect fill="#3366cc" stroke-width="0" stroke="none" height="14" width="28" y="96" x="773"></rect></g><g><rect fill="#ffffff" fill-opacity="0" stroke-width="0" stroke="none" height="14" width="133" y="119" x="773"></rect><g><text fill="#222222" stroke-width="0" stroke="none" font-size="14" font-family="Arial" y="130.9" x="806" text-anchor="start">Default</text></g><rect fill="#dc3912" stroke-width="0" stroke="none" height="14" width="28" y="119" x="773"></rect></g><g><rect fill="#ffffff" fill-opacity="0" stroke-width="0" stroke="none" height="14" width="133" y="142" x="773"></rect><g><text fill="#222222" stroke-width="0" stroke="none" font-size="14" font-family="Arial" y="153.9" x="806" text-anchor="start">AVX</text></g><rect fill="#ff9900" stroke-width="0" stroke="none" height="14" width="28" y="142" x="773"></rect></g></g><g><rect fill="#ffffff" fill-opacity="0" stroke-width="0" stroke="none" height="309" width="597" y="96" x="162"></rect><g clip-path="url(file:///home/federico/Dropbox/Universita/public_html/game-of-life/performance.html#_ABSTRACT_RENDERER_ID_10)"><g><rect fill="#cccccc" stroke-width="0" stroke="none" height="1" width="597" y="404" x="162"></rect><rect fill="#cccccc" stroke-width="0" stroke="none" height="1" width="597" y="370" x="162"></rect><rect fill="#cccccc" stroke-width="0" stroke="none" height="1" width="597" y="336" x="162"></rect><rect fill="#cccccc" stroke-width="0" stroke="none" height="1" width="597" y="301" x="162"></rect><rect fill="#cccccc" stroke-width="0" stroke="none" height="1" width="597" y="267" x="162"></rect><rect fill="#cccccc" stroke-width="0" stroke="none" height="1" width="597" y="233" x="162"></rect><rect fill="#cccccc" stroke-width="0" stroke="none" height="1" width="597" y="199" x="162"></rect><rect fill="#cccccc" stroke-width="0" stroke="none" height="1" width="597" y="164" x="162"></rect><rect fill="#cccccc" stroke-width="0" stroke="none" height="1" width="597" y="130" x="162"></rect><rect fill="#cccccc" stroke-width="0" stroke="none" height="1" width="597" y="96" x="162"></rect></g><g><rect fill="#3366cc" stroke-width="0" stroke="none" height="0.5" width="30" y="404.0689211178087" x="191"></rect><rect fill="#3366cc" stroke-width="0" stroke="none" height="52" width="30" y="352" x="340"></rect><rect fill="#3366cc" stroke-width="0" stroke="none" height="5" width="30" y="399" x="489"></rect><rect fill="#3366cc" stroke-width="0" stroke="none" height="63" width="30" y="341" x="638"></rect><rect fill="#dc3912" stroke-width="0" stroke="none" height="3" width="30" y="401" x="222"></rect><rect fill="#dc3912" stroke-width="0" stroke="none" height="297" width="30" y="107" x="371"></rect><rect fill="#dc3912" stroke-width="0" stroke="none" height="13" width="30" y="391" x="520"></rect><rect fill="#dc3912" stroke-width="0" stroke="none" height="134" width="30" y="270" x="669"></rect><rect fill="#ff9900" stroke-width="0" stroke="none" height="0.5" width="30" y="404" x="253"></rect><rect fill="#ff9900" stroke-width="0" stroke="none" height="0.5" width="30" y="404" x="402"></rect><rect fill="#ff9900" stroke-width="0" stroke="none" height="20" width="30" y="384" x="551"></rect><rect fill="#ff9900" stroke-width="0" stroke="none" height="243" width="30" y="161" x="700"></rect></g><g><rect fill="#333333" stroke-width="0" stroke="none" height="1" width="597" y="404" x="162"></rect></g></g><g></g><g><g><text fill="#222222" stroke-width="0" stroke="none" font-size="14" font-family="Arial" y="425.9" x="237" text-anchor="middle">Mic 1th</text></g><g><text fill="#222222" stroke-width="0" stroke="none" font-size="14" font-family="Arial" y="425.9" x="386" text-anchor="middle">Mic 240th</text></g><g><text fill="#222222" stroke-width="0" stroke="none" font-size="14" font-family="Arial" y="425.9" x="535" text-anchor="middle">Xeon 1th</text></g><g><text fill="#222222" stroke-width="0" stroke="none" font-size="14" font-family="Arial" y="425.9" x="684" text-anchor="middle">Xeon 16th</text></g><g><text fill="#444444" stroke-width="0" stroke="none" font-size="14" font-family="Arial" y="409.4" x="148" text-anchor="end">0E0</text></g><g><text fill="#444444" stroke-width="0" stroke="none" font-size="14" font-family="Arial" y="375.17777777777775" x="148" text-anchor="end">1E9</text></g><g><text fill="#444444" stroke-width="0" stroke="none" font-size="14" font-family="Arial" y="340.9555555555555" x="148" text-anchor="end">2E9</text></g><g><text fill="#444444" stroke-width="0" stroke="none" font-size="14" font-family="Arial" y="306.7333333333333" x="148" text-anchor="end">3E9</text></g><g><text fill="#444444" stroke-width="0" stroke="none" font-size="14" font-family="Arial" y="272.51111111111106" x="148" text-anchor="end">4E9</text></g><g><text fill="#444444" stroke-width="0" stroke="none" font-size="14" font-family="Arial" y="238.2888888888889" x="148" text-anchor="end">6E9</text></g><g><text fill="#444444" stroke-width="0" stroke="none" font-size="14" font-family="Arial" y="204.06666666666666" x="148" text-anchor="end">7E9</text></g><g><text fill="#444444" stroke-width="0" stroke="none" font-size="14" font-family="Arial" y="169.84444444444443" x="148" text-anchor="end">8E9</text></g><g><text fill="#444444" stroke-width="0" stroke="none" font-size="14" font-family="Arial" y="135.62222222222218" x="148" text-anchor="end">9E9</text></g><g><text fill="#444444" stroke-width="0" stroke="none" font-size="14" font-family="Arial" y="101.4" x="148" text-anchor="end">10E9</text></g></g></g><g><g><text fill="#222222" stroke-width="0" stroke="none" font-style="italic" font-size="14" font-family="Arial" y="468.9" x="460.5" text-anchor="middle">Architecture, parallelism degree</text><rect fill="#ffffff" fill-opacity="0" stroke-width="0" stroke="none" height="14" width="597" y="457" x="162"></rect></g><g><text fill="#222222" stroke-width="0" stroke="none" transform="rotate(-90 62.4 250.5)" font-style="italic" font-size="14" font-family="Arial" y="250.5" x="62.4" text-anchor="middle">Cells per second (higher is better)</text><path fill="#ffffff" fill-opacity="0" stroke-width="0" stroke="none" d="M50.49999999999999,405L50.50000000000001,96L64.50000000000001,96L64.49999999999999,405Z"></path></g></g><g></g></svg>