<svg aria-label="A chart." style="overflow: hidden;" height="500" width="920"><defs id="defs"><clipPath id="_ABSTRACT_RENDERER_ID_5"><rect height="309" width="597" y="96" x="162"></rect></clipPath></defs><rect fill="#ffffff" stroke-width="0" stroke="none" height="500" width="920" y="0" x="0"></rect><g><rect fill="#ffffff" fill-opacity="0" stroke-width="0" stroke="none" height="14" width="133" y="96" x="773"></rect><g><rect fill="#ffffff" fill-opacity="0" stroke-width="0" stroke="none" height="14" width="133" y="96" x="773"></rect><g><text fill="#222222" stroke-width="0" stroke="none" font-size="14" font-family="Arial" y="107.9" x="806" text-anchor="start">avg</text></g><path fill="none" fill-opacity="1" stroke-width="2" stroke="#3366cc" d="M773,103L801,103"></path></g></g><g><rect fill="#ffffff" fill-opacity="0" stroke-width="0" stroke="none" height="309" width="597" y="96" x="162"></rect><g clip-path="url(file:///home/federico/Dropbox/Universita/public_html/game-of-life/performance.html#_ABSTRACT_RENDERER_ID_5)"><g><rect fill="#cccccc" stroke-width="0" stroke="none" height="309" width="1" y="96" x="255"></rect><rect fill="#cccccc" stroke-width="0" stroke="none" height="309" width="1" y="96" x="367"></rect><rect fill="#cccccc" stroke-width="0" stroke="none" height="309" width="1" y="96" x="479"></rect><rect fill="#cccccc" stroke-width="0" stroke="none" height="309" width="1" y="96" x="590"></rect><rect fill="#cccccc" stroke-width="0" stroke="none" height="309" width="1" y="96" x="702"></rect><rect fill="#cccccc" stroke-width="0" stroke="none" height="1" width="597" y="404" x="162"></rect><rect fill="#cccccc" stroke-width="0" stroke="none" height="1" width="597" y="327" x="162"></rect><rect fill="#cccccc" stroke-width="0" stroke="none" height="1" width="597" y="250" x="162"></rect><rect fill="#cccccc" stroke-width="0" stroke="none" height="1" width="597" y="173" x="162"></rect><rect fill="#cccccc" stroke-width="0" stroke="none" height="1" width="597" y="96" x="162"></rect></g><g><rect fill="#333333" stroke-width="0" stroke="none" height="1" width="597" y="404" x="162"></rect></g><g><g><path fill="#264d99" fill-opacity="0.3" stroke-width="1" stroke="#264d99" d="M181,105.95559999999995L181,117.62880000000001"></path><path fill="#264d99" fill-opacity="0.3" stroke-width="1" stroke="#264d99" d="M178,117.62880000000001L184,117.62880000000001"></path><path fill="#264d99" fill-opacity="0.3" stroke-width="1" stroke="#264d99" d="M180,117.04360000000003L182,117.04360000000003"></path><path fill="#264d99" fill-opacity="0.3" stroke-width="1" stroke="#264d99" d="M180,108.08080000000001L182,108.08080000000001"></path><path fill="#264d99" fill-opacity="0.3" stroke-width="1" stroke="#264d99" d="M180,106.2636L182,106.2636"></path><path fill="#264d99" fill-opacity="0.3" stroke-width="1" stroke="#264d99" d="M178,105.95559999999995L184,105.95559999999995"></path></g><g><path fill="#264d99" fill-opacity="0.3" stroke-width="1" stroke="#264d99" d="M218,254.1036L218,257.7996"></path><path fill="#264d99" fill-opacity="0.3" stroke-width="1" stroke="#264d99" d="M215,257.7996L221,257.7996"></path><path fill="#264d99" fill-opacity="0.3" stroke-width="1" stroke="#264d99" d="M217,256.4136L220,256.4136"></path><path fill="#264d99" fill-opacity="0.3" stroke-width="1" stroke="#264d99" d="M217,256.0132L220,256.0132"></path><path fill="#264d99" fill-opacity="0.3" stroke-width="1" stroke="#264d99" d="M217,255.92079999999999L220,255.92079999999999"></path><path fill="#264d99" fill-opacity="0.3" stroke-width="1" stroke="#264d99" d="M215,254.1036L221,254.1036"></path></g><g><path fill="#264d99" fill-opacity="0.3" stroke-width="1" stroke="#264d99" d="M293,323.5884L293,326.5144"></path><path fill="#264d99" fill-opacity="0.3" stroke-width="1" stroke="#264d99" d="M290,326.5144L296,326.5144"></path><path fill="#264d99" fill-opacity="0.3" stroke-width="1" stroke="#264d99" d="M292,326.17560000000003L294,326.17560000000003"></path><path fill="#264d99" fill-opacity="0.3" stroke-width="1" stroke="#264d99" d="M292,325.7752L294,325.7752"></path><path fill="#264d99" fill-opacity="0.3" stroke-width="1" stroke="#264d99" d="M292,323.98879999999997L294,323.98879999999997"></path><path fill="#264d99" fill-opacity="0.3" stroke-width="1" stroke="#264d99" d="M290,323.5884L296,323.5884"></path></g><g><path fill="#264d99" fill-opacity="0.3" stroke-width="1" stroke="#264d99" d="M367,344.6864L367,348.13599999999997"></path><path fill="#264d99" fill-opacity="0.3" stroke-width="1" stroke="#264d99" d="M364,348.13599999999997L370,348.13599999999997"></path><path fill="#264d99" fill-opacity="0.3" stroke-width="1" stroke="#264d99" d="M366,348.1052L369,348.1052"></path><path fill="#264d99" fill-opacity="0.3" stroke-width="1" stroke="#264d99" d="M366,348.07439999999997L369,348.07439999999997"></path><path fill="#264d99" fill-opacity="0.3" stroke-width="1" stroke="#264d99" d="M366,346.6268L369,346.6268"></path><path fill="#264d99" fill-opacity="0.3" stroke-width="1" stroke="#264d99" d="M364,344.6864L370,344.6864"></path></g><g><path fill="#264d99" fill-opacity="0.3" stroke-width="1" stroke="#264d99" d="M442,362.92L442,363.1048"></path><path fill="#264d99" fill-opacity="0.3" stroke-width="1" stroke="#264d99" d="M439,363.1048L445,363.1048"></path><path fill="#264d99" fill-opacity="0.3" stroke-width="1" stroke="#264d99" d="M441,363.0124L443,363.0124"></path><path fill="#264d99" fill-opacity="0.3" stroke-width="1" stroke="#264d99" d="M441,362.9816L443,362.9816"></path><path fill="#264d99" fill-opacity="0.3" stroke-width="1" stroke="#264d99" d="M441,362.92L443,362.92"></path><path fill="#264d99" fill-opacity="0.3" stroke-width="1" stroke="#264d99" d="M439,362.92L445,362.92"></path></g><g><path fill="#264d99" fill-opacity="0.3" stroke-width="1" stroke="#264d99" d="M516,351.2468L516,371.1436"></path><path fill="#264d99" fill-opacity="0.3" stroke-width="1" stroke="#264d99" d="M513,371.1436L519,371.1436"></path><path fill="#264d99" fill-opacity="0.3" stroke-width="1" stroke="#264d99" d="M515,371.082L518,371.082"></path><path fill="#264d99" fill-opacity="0.3" stroke-width="1" stroke="#264d99" d="M515,366.462L518,366.462"></path><path fill="#264d99" fill-opacity="0.3" stroke-width="1" stroke="#264d99" d="M515,366.0924L518,366.0924"></path><path fill="#264d99" fill-opacity="0.3" stroke-width="1" stroke="#264d99" d="M513,351.2468L519,351.2468"></path></g><g><path fill="#264d99" fill-opacity="0.3" stroke-width="1" stroke="#264d99" d="M591,375.24L591,375.5788"></path><path fill="#264d99" fill-opacity="0.3" stroke-width="1" stroke="#264d99" d="M588,375.5788L594,375.5788"></path><path fill="#264d99" fill-opacity="0.3" stroke-width="1" stroke="#264d99" d="M590,375.5172L592,375.5172"></path><path fill="#264d99" fill-opacity="0.3" stroke-width="1" stroke="#264d99" d="M590,375.4248L592,375.4248"></path><path fill="#264d99" fill-opacity="0.3" stroke-width="1" stroke="#264d99" d="M590,375.3632L592,375.3632"></path><path fill="#264d99" fill-opacity="0.3" stroke-width="1" stroke="#264d99" d="M588,375.24L594,375.24"></path></g><g><path fill="#264d99" fill-opacity="0.3" stroke-width="1" stroke="#264d99" d="M665,357.7148L665,379.398"></path><path fill="#264d99" fill-opacity="0.3" stroke-width="1" stroke="#264d99" d="M662,379.398L668,379.398"></path><path fill="#264d99" fill-opacity="0.3" stroke-width="1" stroke="#264d99" d="M664,379.2132L667,379.2132"></path><path fill="#264d99" fill-opacity="0.3" stroke-width="1" stroke="#264d99" d="M664,379.1824L667,379.1824"></path><path fill="#264d99" fill-opacity="0.3" stroke-width="1" stroke="#264d99" d="M664,377.4576L667,377.4576"></path><path fill="#264d99" fill-opacity="0.3" stroke-width="1" stroke="#264d99" d="M662,357.7148L668,357.7148"></path></g><g><path fill="#264d99" fill-opacity="0.3" stroke-width="1" stroke="#264d99" d="M740,377.6424L740,378.3816"></path><path fill="#264d99" fill-opacity="0.3" stroke-width="1" stroke="#264d99" d="M737,378.3816L743,378.3816"></path><path fill="#264d99" fill-opacity="0.3" stroke-width="1" stroke="#264d99" d="M739,378.166L741,378.166"></path><path fill="#264d99" fill-opacity="0.3" stroke-width="1" stroke="#264d99" d="M739,378.0428L741,378.0428"></path><path fill="#264d99" fill-opacity="0.3" stroke-width="1" stroke="#264d99" d="M739,377.6424L741,377.6424"></path><path fill="#264d99" fill-opacity="0.3" stroke-width="1" stroke="#264d99" d="M737,377.6424L743,377.6424"></path></g></g><g><path fill="none" fill-opacity="1" stroke-width="2" stroke="#3366cc" d="M181.125,110.99448000000001L218.375,256.05016L292.875,325.20848L367.375,347.12576L441.875,362.98776L516.375,365.20536L590.875,375.4248L665.375,374.5932L739.875,377.97504"></path></g></g><g></g><g><g><text fill="#444444" stroke-width="0" stroke="none" font-size="14" font-family="Arial" y="425.9" x="255.625" text-anchor="middle">3</text></g><g><text fill="#444444" stroke-width="0" stroke="none" font-size="14" font-family="Arial" y="425.9" x="367.375" text-anchor="middle">6</text></g><g><text fill="#444444" stroke-width="0" stroke="none" font-size="14" font-family="Arial" y="425.9" x="479.125" text-anchor="middle">9</text></g><g><text fill="#444444" stroke-width="0" stroke="none" font-size="14" font-family="Arial" y="425.9" x="590.875" text-anchor="middle">12</text></g><g><text fill="#444444" stroke-width="0" stroke="none" font-size="14" font-family="Arial" y="425.9" x="702.625" text-anchor="middle">15</text></g><g><text fill="#444444" stroke-width="0" stroke="none" font-size="14" font-family="Arial" y="409.4" x="148" text-anchor="end">0</text></g><g><text fill="#444444" stroke-width="0" stroke="none" font-size="14" font-family="Arial" y="332.4" x="148" text-anchor="end">25</text></g><g><text fill="#444444" stroke-width="0" stroke="none" font-size="14" font-family="Arial" y="255.4" x="148" text-anchor="end">50</text></g><g><text fill="#444444" stroke-width="0" stroke="none" font-size="14" font-family="Arial" y="178.4" x="148" text-anchor="end">75</text></g><g><text fill="#444444" stroke-width="0" stroke="none" font-size="14" font-family="Arial" y="101.4" x="148" text-anchor="end">100</text></g></g></g><g><g><text fill="#222222" stroke-width="0" stroke="none" font-style="italic" font-size="14" font-family="Arial" y="468.9" x="460.5" text-anchor="middle">threads</text><rect fill="#ffffff" fill-opacity="0" stroke-width="0" stroke="none" height="14" width="597" y="457" x="162"></rect></g><g><text fill="#222222" stroke-width="0" stroke="none" transform="rotate(-90 66.9 250.5)" font-style="italic" font-size="14" font-family="Arial" y="250.5" x="66.9" text-anchor="middle">time (s)</text><path fill="#ffffff" fill-opacity="0" stroke-width="0" stroke="none" d="M54.99999999999999,405L55.00000000000001,96L69.00000000000001,96L68.99999999999999,405Z"></path></g></g><g></g></svg>