<svg aria-label="A chart." style="overflow: hidden;" height="500" width="920"><defs id="defs"><clipPath id="_ABSTRACT_RENDERER_ID_8"><rect height="309" width="597" y="96" x="162"></rect></clipPath></defs><rect fill="#ffffff" stroke-width="0" stroke="none" height="500" width="920" y="0" x="0"></rect><g><rect fill="#ffffff" fill-opacity="0" stroke-width="0" stroke="none" height="83" width="133" y="96" x="773"></rect><g><rect fill="#ffffff" fill-opacity="0" stroke-width="0" stroke="none" height="14" width="133" y="96" x="773"></rect><g><text fill="#222222" stroke-width="0" stroke="none" font-size="14" font-family="Arial" y="107.9" x="806" text-anchor="start">4000-TH</text></g><path fill="none" fill-opacity="1" stroke-width="2" stroke="#3366cc" d="M773,103L801,103"></path><circle fill="#3366cc" stroke-width="0" stroke="none" r="3" cy="103" cx="787"></circle></g><g><rect fill="#ffffff" fill-opacity="0" stroke-width="0" stroke="none" height="14" width="133" y="119" x="773"></rect><g><text fill="#222222" stroke-width="0" stroke="none" font-size="14" font-family="Arial" y="130.9" x="806" text-anchor="start">4000-FF</text></g><path fill="none" fill-opacity="1" stroke-width="2" stroke="#dc3912" d="M773,126L801,126"></path><circle fill="#dc3912" stroke-width="0" stroke="none" r="3" cy="126" cx="787"></circle></g><g><rect fill="#ffffff" fill-opacity="0" stroke-width="0" stroke="none" height="14" width="133" y="142" x="773"></rect><g><text fill="#222222" stroke-width="0" stroke="none" font-size="14" font-family="Arial" y="153.9" x="806" text-anchor="start">8000-TH</text></g><path fill="none" fill-opacity="1" stroke-width="2" stroke="#ff9900" d="M773,149L801,149"></path><circle fill="#ff9900" stroke-width="0" stroke="none" r="3" cy="149" cx="787"></circle></g><g><rect fill="#ffffff" fill-opacity="0" stroke-width="0" stroke="none" height="14" width="133" y="165" x="773"></rect><g><text fill="#222222" stroke-width="0" stroke="none" font-size="14" font-family="Arial" y="176.9" x="806" text-anchor="start">8000-FF</text></g><path fill="none" fill-opacity="1" stroke-width="2" stroke="#109618" d="M773,172L801,172"></path><circle fill="#109618" stroke-width="0" stroke="none" r="3" cy="172" cx="787"></circle></g></g><g><rect fill="#ffffff" fill-opacity="0" stroke-width="0" stroke="none" height="309" width="597" y="96" x="162"></rect><g clip-path="url(file:///home/federico/Dropbox/Universita/public_html/game-of-life/performance.html#_ABSTRACT_RENDERER_ID_8)"><g><rect fill="#cccccc" stroke-width="0" stroke="none" height="309" width="1" y="96" x="202"></rect><rect fill="#cccccc" stroke-width="0" stroke="none" height="309" width="1" y="96" x="281"></rect><rect fill="#cccccc" stroke-width="0" stroke="none" height="309" width="1" y="96" x="361"></rect><rect fill="#cccccc" stroke-width="0" stroke="none" height="309" width="1" y="96" x="440"></rect><rect fill="#cccccc" stroke-width="0" stroke="none" height="309" width="1" y="96" x="520"></rect><rect fill="#cccccc" stroke-width="0" stroke="none" height="309" width="1" y="96" x="599"></rect><rect fill="#cccccc" stroke-width="0" stroke="none" height="309" width="1" y="96" x="679"></rect><rect fill="#cccccc" stroke-width="0" stroke="none" height="309" width="1" y="96" x="758"></rect><rect fill="#cccccc" stroke-width="0" stroke="none" height="1" width="597" y="404" x="162"></rect><rect fill="#cccccc" stroke-width="0" stroke="none" height="1" width="597" y="353" x="162"></rect><rect fill="#cccccc" stroke-width="0" stroke="none" height="1" width="597" y="301" x="162"></rect><rect fill="#cccccc" stroke-width="0" stroke="none" height="1" width="597" y="250" x="162"></rect><rect fill="#cccccc" stroke-width="0" stroke="none" height="1" width="597" y="199" x="162"></rect><rect fill="#cccccc" stroke-width="0" stroke="none" height="1" width="597" y="147" x="162"></rect><rect fill="#cccccc" stroke-width="0" stroke="none" height="1" width="597" y="96" x="162"></rect></g><g><rect fill="#333333" stroke-width="0" stroke="none" height="1" width="597" y="404" x="162"></rect></g><g><path fill="none" fill-opacity="1" stroke-width="2" stroke="#3366cc" d="M162.5,378.8333333333333L202.23333333333335,350.9336033814723L281.7,302.33338931810545L361.1666666666667,263.8200740055504L440.6333333333333,216.98458692971641L520.1,183.13901018922851L599.5666666666666,172.50152555301293L679.0333333333333,135.578691423519L758.5,105.72789783889982"></path><path fill="none" fill-opacity="1" stroke-width="2" stroke="#dc3912" d="M162.5,378.8333333333333L202.23333333333335,352.72145128649896L281.7,310.7489530988275L361.1666666666667,258.5325998370008L440.6333333333333,225.75548902195607L520.1,171.11193640865255L599.5666666666666,132.3912184746277L679.0333333333333,115.25258397932811L758.5,111.84967320261438"></path><path fill="none" fill-opacity="1" stroke-width="2" stroke="#ff9900" d="M162.5,378.8333333333333L202.23333333333335,352.6694837252113L281.7,302.0053363117399L361.1666666666667,266.6198664440734L440.6333333333333,223.72471910112358L520.1,188.9723382045929L599.5666666666666,172.0697936210131L679.0333333333333,136.52401038286825L758.5,118.12621359223294"></path><path fill="none" fill-opacity="1" stroke-width="2" stroke="#109618" d="M162.5,378.8333333333333L202.23333333333335,353.75350982751706L281.7,309.49225709550444L361.1666666666667,273.198768878391L440.6333333333333,223.02802097244893L520.1,212.78661754715995L599.5666666666666,145.40261299435025L679.0333333333333,152.6071747339513L758.5,120.49171698405326"></path></g></g><g><circle fill="#3366cc" stroke-width="0" stroke="none" r="3" cy="378.8333333333333" cx="162.5"></circle><circle fill="#3366cc" stroke-width="0" stroke="none" r="3" cy="350.9336033814723" cx="202.23333333333335"></circle><circle fill="#3366cc" stroke-width="0" stroke="none" r="3" cy="302.33338931810545" cx="281.7"></circle><circle fill="#3366cc" stroke-width="0" stroke="none" r="3" cy="263.8200740055504" cx="361.1666666666667"></circle><circle fill="#3366cc" stroke-width="0" stroke="none" r="3" cy="216.98458692971641" cx="440.6333333333333"></circle><circle fill="#3366cc" stroke-width="0" stroke="none" r="3" cy="183.13901018922851" cx="520.1"></circle><circle fill="#3366cc" stroke-width="0" stroke="none" r="3" cy="172.50152555301293" cx="599.5666666666666"></circle><circle fill="#3366cc" stroke-width="0" stroke="none" r="3" cy="135.578691423519" cx="679.0333333333333"></circle><circle fill="#3366cc" stroke-width="0" stroke="none" r="3" cy="105.72789783889982" cx="758.5"></circle><circle fill="#dc3912" stroke-width="0" stroke="none" r="3" cy="378.8333333333333" cx="162.5"></circle><circle fill="#dc3912" stroke-width="0" stroke="none" r="3" cy="352.72145128649896" cx="202.23333333333335"></circle><circle fill="#dc3912" stroke-width="0" stroke="none" r="3" cy="310.7489530988275" cx="281.7"></circle><circle fill="#dc3912" stroke-width="0" stroke="none" r="3" cy="258.5325998370008" cx="361.1666666666667"></circle><circle fill="#dc3912" stroke-width="0" stroke="none" r="3" cy="225.75548902195607" cx="440.6333333333333"></circle><circle fill="#dc3912" stroke-width="0" stroke="none" r="3" cy="171.11193640865255" cx="520.1"></circle><circle fill="#dc3912" stroke-width="0" stroke="none" r="3" cy="132.3912184746277" cx="599.5666666666666"></circle><circle fill="#dc3912" stroke-width="0" stroke="none" r="3" cy="115.25258397932811" cx="679.0333333333333"></circle><circle fill="#dc3912" stroke-width="0" stroke="none" r="3" cy="111.84967320261438" cx="758.5"></circle><circle fill="#ff9900" stroke-width="0" stroke="none" r="3" cy="378.8333333333333" cx="162.5"></circle><circle fill="#ff9900" stroke-width="0" stroke="none" r="3" cy="352.6694837252113" cx="202.23333333333335"></circle><circle fill="#ff9900" stroke-width="0" stroke="none" r="3" cy="302.0053363117399" cx="281.7"></circle><circle fill="#ff9900" stroke-width="0" stroke="none" r="3" cy="266.6198664440734" cx="361.1666666666667"></circle><circle fill="#ff9900" stroke-width="0" stroke="none" r="3" cy="223.72471910112358" cx="440.6333333333333"></circle><circle fill="#ff9900" stroke-width="0" stroke="none" r="3" cy="188.9723382045929" cx="520.1"></circle><circle fill="#ff9900" stroke-width="0" stroke="none" r="3" cy="172.0697936210131" cx="599.5666666666666"></circle><circle fill="#ff9900" stroke-width="0" stroke="none" r="3" cy="136.52401038286825" cx="679.0333333333333"></circle><circle fill="#ff9900" stroke-width="0" stroke="none" r="3" cy="118.12621359223294" cx="758.5"></circle><circle fill="#109618" stroke-width="0" stroke="none" r="3" cy="378.8333333333333" cx="162.5"></circle><circle fill="#109618" stroke-width="0" stroke="none" r="3" cy="353.75350982751706" cx="202.23333333333335"></circle><circle fill="#109618" stroke-width="0" stroke="none" r="3" cy="309.49225709550444" cx="281.7"></circle><circle fill="#109618" stroke-width="0" stroke="none" r="3" cy="273.198768878391" cx="361.1666666666667"></circle><circle fill="#109618" stroke-width="0" stroke="none" r="3" cy="223.02802097244893" cx="440.6333333333333"></circle><circle fill="#109618" stroke-width="0" stroke="none" r="3" cy="212.78661754715995" cx="520.1"></circle><circle fill="#109618" stroke-width="0" stroke="none" r="3" cy="145.40261299435025" cx="599.5666666666666"></circle><circle fill="#109618" stroke-width="0" stroke="none" r="3" cy="152.6071747339513" cx="679.0333333333333"></circle><circle fill="#109618" stroke-width="0" stroke="none" r="3" cy="120.49171698405326" cx="758.5"></circle></g><g><g><text fill="#444444" stroke-width="0" stroke="none" font-size="14" font-family="Arial" y="425.9" x="202.23333333333335" text-anchor="middle">2</text></g><g><text fill="#444444" stroke-width="0" stroke="none" font-size="14" font-family="Arial" y="425.9" x="281.7" text-anchor="middle">4</text></g><g><text fill="#444444" stroke-width="0" stroke="none" font-size="14" font-family="Arial" y="425.9" x="361.1666666666667" text-anchor="middle">6</text></g><g><text fill="#444444" stroke-width="0" stroke="none" font-size="14" font-family="Arial" y="425.9" x="440.6333333333333" text-anchor="middle">8</text></g><g><text fill="#444444" stroke-width="0" stroke="none" font-size="14" font-family="Arial" y="425.9" x="520.1" text-anchor="middle">10</text></g><g><text fill="#444444" stroke-width="0" stroke="none" font-size="14" font-family="Arial" y="425.9" x="599.5666666666666" text-anchor="middle">12</text></g><g><text fill="#444444" stroke-width="0" stroke="none" font-size="14" font-family="Arial" y="425.9" x="679.0333333333333" text-anchor="middle">14</text></g><g><text fill="#444444" stroke-width="0" stroke="none" font-size="14" font-family="Arial" y="425.9" x="758.5" text-anchor="middle">16</text></g><g><text fill="#444444" stroke-width="0" stroke="none" font-size="14" font-family="Arial" y="409.4" x="148" text-anchor="end">0</text></g><g><text fill="#444444" stroke-width="0" stroke="none" font-size="14" font-family="Arial" y="358.06666666666666" x="148" text-anchor="end">2</text></g><g><text fill="#444444" stroke-width="0" stroke="none" font-size="14" font-family="Arial" y="306.7333333333333" x="148" text-anchor="end">4</text></g><g><text fill="#444444" stroke-width="0" stroke="none" font-size="14" font-family="Arial" y="255.4" x="148" text-anchor="end">6</text></g><g><text fill="#444444" stroke-width="0" stroke="none" font-size="14" font-family="Arial" y="204.06666666666666" x="148" text-anchor="end">8</text></g><g><text fill="#444444" stroke-width="0" stroke="none" font-size="14" font-family="Arial" y="152.73333333333332" x="148" text-anchor="end">10</text></g><g><text fill="#444444" stroke-width="0" stroke="none" font-size="14" font-family="Arial" y="101.4" x="148" text-anchor="end">12</text></g></g></g><g><g><text fill="#222222" stroke-width="0" stroke="none" font-style="italic" font-size="14" font-family="Arial" y="468.9" x="460.5" text-anchor="middle">threads</text><rect fill="#ffffff" fill-opacity="0" stroke-width="0" stroke="none" height="14" width="597" y="457" x="162"></rect></g><g><text fill="#222222" stroke-width="0" stroke="none" transform="rotate(-90 70.9 250.5)" font-style="italic" font-size="14" font-family="Arial" y="250.5" x="70.9" text-anchor="middle">scalability</text><path fill="#ffffff" fill-opacity="0" stroke-width="0" stroke="none" d="M58.99999999999999,405L59.00000000000001,96L73.00000000000001,96L72.99999999999999,405Z"></path></g></g><g></g></svg>