<svg aria-label="A chart." style="overflow: hidden;" height="500" width="920"><defs id="defs"><clipPath id="_ABSTRACT_RENDERER_ID_5"><rect height="309" width="597" y="96" x="162"></rect></clipPath></defs><rect fill="#ffffff" stroke-width="0" stroke="none" height="500" width="920" y="0" x="0"></rect><g><rect fill="#ffffff" fill-opacity="0" stroke-width="0" stroke="none" height="14" width="133" y="96" x="773"></rect><g><rect fill="#ffffff" fill-opacity="0" stroke-width="0" stroke="none" height="14" width="133" y="96" x="773"></rect><g><text fill="#222222" stroke-width="0" stroke="none" font-size="14" font-family="Arial" y="107.9" x="806" text-anchor="start">avg</text></g><path fill="none" fill-opacity="1" stroke-width="2" stroke="#3366cc" d="M773,103L801,103"></path></g></g><g><rect fill="#ffffff" fill-opacity="0" stroke-width="0" stroke="none" height="309" width="597" y="96" x="162"></rect><g clip-path="url(file:///home/federico/Dropbox/Universita/public_html/game-of-life/performance.html#_ABSTRACT_RENDERER_ID_5)"><g><rect fill="#cccccc" stroke-width="0" stroke="none" height="309" width="1" y="96" x="255"></rect><rect fill="#cccccc" stroke-width="0" stroke="none" height="309" width="1" y="96" x="367"></rect><rect fill="#cccccc" stroke-width="0" stroke="none" height="309" width="1" y="96" x="479"></rect><rect fill="#cccccc" stroke-width="0" stroke="none" height="309" width="1" y="96" x="590"></rect><rect fill="#cccccc" stroke-width="0" stroke="none" height="309" width="1" y="96" x="702"></rect><rect fill="#cccccc" stroke-width="0" stroke="none" height="1" width="597" y="404" x="162"></rect><rect fill="#cccccc" stroke-width="0" stroke="none" height="1" width="597" y="327" x="162"></rect><rect fill="#cccccc" stroke-width="0" stroke="none" height="1" width="597" y="250" x="162"></rect><rect fill="#cccccc" stroke-width="0" stroke="none" height="1" width="597" y="173" x="162"></rect><rect fill="#cccccc" stroke-width="0" stroke="none" height="1" width="597" y="96" x="162"></rect></g><g><rect fill="#333333" stroke-width="0" stroke="none" height="1" width="597" y="404" x="162"></rect></g><g><g><path fill="#264d99" fill-opacity="0.3" stroke-width="1" stroke="#264d99" d="M181,98.29666666666668L181,111.77166666666665"></path><path fill="#264d99" fill-opacity="0.3" stroke-width="1" stroke="#264d99" d="M178,111.77166666666665L184,111.77166666666665"></path><path fill="#264d99" fill-opacity="0.3" stroke-width="1" stroke="#264d99" d="M180,111.64333333333332L182,111.64333333333332"></path><path fill="#264d99" fill-opacity="0.3" stroke-width="1" stroke="#264d99" d="M180,107.53666666666663L182,107.53666666666663"></path><path fill="#264d99" fill-opacity="0.3" stroke-width="1" stroke="#264d99" d="M180,100.73499999999996L182,100.73499999999996"></path><path fill="#264d99" fill-opacity="0.3" stroke-width="1" stroke="#264d99" d="M178,98.29666666666668L184,98.29666666666668"></path></g><g><path fill="#264d99" fill-opacity="0.3" stroke-width="1" stroke="#264d99" d="M218,252.04L218,262.05"></path><path fill="#264d99" fill-opacity="0.3" stroke-width="1" stroke="#264d99" d="M215,262.05L221,262.05"></path><path fill="#264d99" fill-opacity="0.3" stroke-width="1" stroke="#264d99" d="M217,261.79333333333335L220,261.79333333333335"></path><path fill="#264d99" fill-opacity="0.3" stroke-width="1" stroke="#264d99" d="M217,254.73499999999999L220,254.73499999999999"></path><path fill="#264d99" fill-opacity="0.3" stroke-width="1" stroke="#264d99" d="M217,252.04L220,252.04"></path><path fill="#264d99" fill-opacity="0.3" stroke-width="1" stroke="#264d99" d="M215,252.04L221,252.04"></path></g><g><path fill="#264d99" fill-opacity="0.3" stroke-width="1" stroke="#264d99" d="M293,314.9233333333333L293,326.6016666666667"></path><path fill="#264d99" fill-opacity="0.3" stroke-width="1" stroke="#264d99" d="M290,326.6016666666667L296,326.6016666666667"></path><path fill="#264d99" fill-opacity="0.3" stroke-width="1" stroke="#264d99" d="M292,326.6016666666667L294,326.6016666666667"></path><path fill="#264d99" fill-opacity="0.3" stroke-width="1" stroke="#264d99" d="M292,323.65L294,323.65"></path><path fill="#264d99" fill-opacity="0.3" stroke-width="1" stroke="#264d99" d="M292,322.11L294,322.11"></path><path fill="#264d99" fill-opacity="0.3" stroke-width="1" stroke="#264d99" d="M290,314.9233333333333L296,314.9233333333333"></path></g><g><path fill="#264d99" fill-opacity="0.3" stroke-width="1" stroke="#264d99" d="M367,343.285L367,354.32166666666666"></path><path fill="#264d99" fill-opacity="0.3" stroke-width="1" stroke="#264d99" d="M364,354.32166666666666L370,354.32166666666666"></path><path fill="#264d99" fill-opacity="0.3" stroke-width="1" stroke="#264d99" d="M366,354.1933333333333L369,354.1933333333333"></path><path fill="#264d99" fill-opacity="0.3" stroke-width="1" stroke="#264d99" d="M366,354.1933333333333L369,354.1933333333333"></path><path fill="#264d99" fill-opacity="0.3" stroke-width="1" stroke="#264d99" d="M366,354.065L369,354.065"></path><path fill="#264d99" fill-opacity="0.3" stroke-width="1" stroke="#264d99" d="M364,343.285L370,343.285"></path></g><g><path fill="#264d99" fill-opacity="0.3" stroke-width="1" stroke="#264d99" d="M442,355.22L442,363.69"></path><path fill="#264d99" fill-opacity="0.3" stroke-width="1" stroke="#264d99" d="M439,363.69L445,363.69"></path><path fill="#264d99" fill-opacity="0.3" stroke-width="1" stroke="#264d99" d="M441,363.305L443,363.305"></path><path fill="#264d99" fill-opacity="0.3" stroke-width="1" stroke="#264d99" d="M441,363.04833333333335L443,363.04833333333335"></path><path fill="#264d99" fill-opacity="0.3" stroke-width="1" stroke="#264d99" d="M441,362.92L443,362.92"></path><path fill="#264d99" fill-opacity="0.3" stroke-width="1" stroke="#264d99" d="M439,355.22L445,355.22"></path></g><g><path fill="#264d99" fill-opacity="0.3" stroke-width="1" stroke="#264d99" d="M516,371.5183333333333L516,371.9033333333333"></path><path fill="#264d99" fill-opacity="0.3" stroke-width="1" stroke="#264d99" d="M513,371.9033333333333L519,371.9033333333333"></path><path fill="#264d99" fill-opacity="0.3" stroke-width="1" stroke="#264d99" d="M515,371.64666666666665L518,371.64666666666665"></path><path fill="#264d99" fill-opacity="0.3" stroke-width="1" stroke="#264d99" d="M515,371.64666666666665L518,371.64666666666665"></path><path fill="#264d99" fill-opacity="0.3" stroke-width="1" stroke="#264d99" d="M515,371.64666666666665L518,371.64666666666665"></path><path fill="#264d99" fill-opacity="0.3" stroke-width="1" stroke="#264d99" d="M513,371.5183333333333L519,371.5183333333333"></path></g><g><path fill="#264d99" fill-opacity="0.3" stroke-width="1" stroke="#264d99" d="M591,376.01L591,376.5233333333333"></path><path fill="#264d99" fill-opacity="0.3" stroke-width="1" stroke="#264d99" d="M588,376.5233333333333L594,376.5233333333333"></path><path fill="#264d99" fill-opacity="0.3" stroke-width="1" stroke="#264d99" d="M590,376.5233333333333L592,376.5233333333333"></path><path fill="#264d99" fill-opacity="0.3" stroke-width="1" stroke="#264d99" d="M590,376.395L592,376.395"></path><path fill="#264d99" fill-opacity="0.3" stroke-width="1" stroke="#264d99" d="M590,376.26666666666665L592,376.26666666666665"></path><path fill="#264d99" fill-opacity="0.3" stroke-width="1" stroke="#264d99" d="M588,376.01L594,376.01"></path></g><g><path fill="#264d99" fill-opacity="0.3" stroke-width="1" stroke="#264d99" d="M665,372.03166666666664L665,379.7316666666667"></path><path fill="#264d99" fill-opacity="0.3" stroke-width="1" stroke="#264d99" d="M662,379.7316666666667L668,379.7316666666667"></path><path fill="#264d99" fill-opacity="0.3" stroke-width="1" stroke="#264d99" d="M664,379.7316666666667L667,379.7316666666667"></path><path fill="#264d99" fill-opacity="0.3" stroke-width="1" stroke="#264d99" d="M664,379.60333333333335L667,379.60333333333335"></path><path fill="#264d99" fill-opacity="0.3" stroke-width="1" stroke="#264d99" d="M664,378.96166666666664L667,378.96166666666664"></path><path fill="#264d99" fill-opacity="0.3" stroke-width="1" stroke="#264d99" d="M662,372.03166666666664L668,372.03166666666664"></path></g><g><path fill="#264d99" fill-opacity="0.3" stroke-width="1" stroke="#264d99" d="M740,377.8066666666667L740,379.21833333333336"></path><path fill="#264d99" fill-opacity="0.3" stroke-width="1" stroke="#264d99" d="M737,379.21833333333336L743,379.21833333333336"></path><path fill="#264d99" fill-opacity="0.3" stroke-width="1" stroke="#264d99" d="M739,378.32L741,378.32"></path><path fill="#264d99" fill-opacity="0.3" stroke-width="1" stroke="#264d99" d="M739,378.19166666666666L741,378.19166666666666"></path><path fill="#264d99" fill-opacity="0.3" stroke-width="1" stroke="#264d99" d="M739,378.06333333333333L741,378.06333333333333"></path><path fill="#264d99" fill-opacity="0.3" stroke-width="1" stroke="#264d99" d="M737,377.8066666666667L743,377.8066666666667"></path></g></g><g><path fill="none" fill-opacity="1" stroke-width="2" stroke="#3366cc" d="M181.125,105.99666666666661L218.375,256.53166666666664L292.875,322.77733333333333L367.375,352.01166666666666L441.875,361.63666666666666L516.375,371.6723333333333L590.875,376.34366666666665L665.375,378.012L739.875,378.32"></path></g></g><g></g><g><g><text fill="#444444" stroke-width="0" stroke="none" font-size="14" font-family="Arial" y="425.9" x="255.625" text-anchor="middle">3</text></g><g><text fill="#444444" stroke-width="0" stroke="none" font-size="14" font-family="Arial" y="425.9" x="367.375" text-anchor="middle">6</text></g><g><text fill="#444444" stroke-width="0" stroke="none" font-size="14" font-family="Arial" y="425.9" x="479.125" text-anchor="middle">9</text></g><g><text fill="#444444" stroke-width="0" stroke="none" font-size="14" font-family="Arial" y="425.9" x="590.875" text-anchor="middle">12</text></g><g><text fill="#444444" stroke-width="0" stroke="none" font-size="14" font-family="Arial" y="425.9" x="702.625" text-anchor="middle">15</text></g><g><text fill="#444444" stroke-width="0" stroke="none" font-size="14" font-family="Arial" y="409.4" x="148" text-anchor="end">0</text></g><g><text fill="#444444" stroke-width="0" stroke="none" font-size="14" font-family="Arial" y="332.4" x="148" text-anchor="end">6</text></g><g><text fill="#444444" stroke-width="0" stroke="none" font-size="14" font-family="Arial" y="255.4" x="148" text-anchor="end">12</text></g><g><text fill="#444444" stroke-width="0" stroke="none" font-size="14" font-family="Arial" y="178.4" x="148" text-anchor="end">18</text></g><g><text fill="#444444" stroke-width="0" stroke="none" font-size="14" font-family="Arial" y="101.4" x="148" text-anchor="end">24</text></g></g></g><g><g><text fill="#222222" stroke-width="0" stroke="none" font-style="italic" font-size="14" font-family="Arial" y="468.9" x="460.5" text-anchor="middle">threads</text><rect fill="#ffffff" fill-opacity="0" stroke-width="0" stroke="none" height="14" width="597" y="457" x="162"></rect></g><g><text fill="#222222" stroke-width="0" stroke="none" transform="rotate(-90 70.9 250.5)" font-style="italic" font-size="14" font-family="Arial" y="250.5" x="70.9" text-anchor="middle">time (s)</text><path fill="#ffffff" fill-opacity="0" stroke-width="0" stroke="none" d="M58.99999999999999,405L59.00000000000001,96L73.00000000000001,96L72.99999999999999,405Z"></path></g></g><g></g></svg>