<svg aria-label="A chart." style="overflow: hidden;" height="500" width="920"><defs id="defs"><clipPath id="_ABSTRACT_RENDERER_ID_9"><rect height="309" width="597" y="96" x="162"></rect></clipPath></defs><rect fill="#ffffff" stroke-width="0" stroke="none" height="500" width="920" y="0" x="0"></rect><g><rect fill="#ffffff" fill-opacity="0" stroke-width="0" stroke="none" height="83" width="133" y="96" x="773"></rect><g><rect fill="#ffffff" fill-opacity="0" stroke-width="0" stroke="none" height="14" width="133" y="96" x="773"></rect><g><text fill="#222222" stroke-width="0" stroke="none" font-size="14" font-family="Arial" y="107.9" x="806" text-anchor="start">4000-TH</text></g><path fill="none" fill-opacity="1" stroke-width="2" stroke="#3366cc" d="M773,103L801,103"></path><circle fill="#3366cc" stroke-width="0" stroke="none" r="3" cy="103" cx="787"></circle></g><g><rect fill="#ffffff" fill-opacity="0" stroke-width="0" stroke="none" height="14" width="133" y="119" x="773"></rect><g><text fill="#222222" stroke-width="0" stroke="none" font-size="14" font-family="Arial" y="130.9" x="806" text-anchor="start">4000-FF</text></g><path fill="none" fill-opacity="1" stroke-width="2" stroke="#dc3912" d="M773,126L801,126"></path><circle fill="#dc3912" stroke-width="0" stroke="none" r="3" cy="126" cx="787"></circle></g><g><rect fill="#ffffff" fill-opacity="0" stroke-width="0" stroke="none" height="14" width="133" y="142" x="773"></rect><g><text fill="#222222" stroke-width="0" stroke="none" font-size="14" font-family="Arial" y="153.9" x="806" text-anchor="start">8000-TH</text></g><path fill="none" fill-opacity="1" stroke-width="2" stroke="#ff9900" d="M773,149L801,149"></path><circle fill="#ff9900" stroke-width="0" stroke="none" r="3" cy="149" cx="787"></circle></g><g><rect fill="#ffffff" fill-opacity="0" stroke-width="0" stroke="none" height="14" width="133" y="165" x="773"></rect><g><text fill="#222222" stroke-width="0" stroke="none" font-size="14" font-family="Arial" y="176.9" x="806" text-anchor="start">8000-FF</text></g><path fill="none" fill-opacity="1" stroke-width="2" stroke="#109618" d="M773,172L801,172"></path><circle fill="#109618" stroke-width="0" stroke="none" r="3" cy="172" cx="787"></circle></g></g><g><rect fill="#ffffff" fill-opacity="0" stroke-width="0" stroke="none" height="309" width="597" y="96" x="162"></rect><g clip-path="url(file:///home/federico/Dropbox/Universita/public_html/game-of-life/performance.html#_ABSTRACT_RENDERER_ID_9)"><g><rect fill="#cccccc" stroke-width="0" stroke="none" height="309" width="1" y="96" x="202"></rect><rect fill="#cccccc" stroke-width="0" stroke="none" height="309" width="1" y="96" x="281"></rect><rect fill="#cccccc" stroke-width="0" stroke="none" height="309" width="1" y="96" x="361"></rect><rect fill="#cccccc" stroke-width="0" stroke="none" height="309" width="1" y="96" x="440"></rect><rect fill="#cccccc" stroke-width="0" stroke="none" height="309" width="1" y="96" x="520"></rect><rect fill="#cccccc" stroke-width="0" stroke="none" height="309" width="1" y="96" x="599"></rect><rect fill="#cccccc" stroke-width="0" stroke="none" height="309" width="1" y="96" x="679"></rect><rect fill="#cccccc" stroke-width="0" stroke="none" height="309" width="1" y="96" x="758"></rect><rect fill="#cccccc" stroke-width="0" stroke="none" height="1" width="597" y="404" x="162"></rect><rect fill="#cccccc" stroke-width="0" stroke="none" height="1" width="597" y="345" x="162"></rect><rect fill="#cccccc" stroke-width="0" stroke="none" height="1" width="597" y="287" x="162"></rect><rect fill="#cccccc" stroke-width="0" stroke="none" height="1" width="597" y="228" x="162"></rect><rect fill="#cccccc" stroke-width="0" stroke="none" height="1" width="597" y="169" x="162"></rect><rect fill="#cccccc" stroke-width="0" stroke="none" height="1" width="597" y="111" x="162"></rect></g><g><rect fill="#333333" stroke-width="0" stroke="none" height="1" width="597" y="404" x="162"></rect></g><g><path fill="none" fill-opacity="1" stroke-width="2" stroke="#3366cc" d="M162.5,111.16666666666669L202.23333333333335,98.40630503698486L281.7,112.59539805172994L361.1666666666667,136.53823620104845L440.6333333333333,136.6208384710235L520.1,151.51601164483264L599.5666666666666,183.54907195525044L679.0333333333333,184.97240116205634L758.5,191.09135559921415"></path><path fill="none" fill-opacity="1" stroke-width="2" stroke="#dc3912" d="M162.5,111.16666666666669L202.23333333333335,108.62257877999417L281.7,136.63986599664992L361.1666666666667,126.46685683238252L440.6333333333333,149.15069860279442L520.1,137.77078446703155L599.5666666666666,145.3487794996455L679.0333333333333,168.3796603912883L758.5,195.4640522875817"></path><path fill="none" fill-opacity="1" stroke-width="2" stroke="#ff9900" d="M162.5,111.16666666666669L202.23333333333335,108.32562128692166L281.7,111.65810374782825L361.1666666666667,141.8711741791875L440.6333333333333,146.24959871589084L520.1,158.18267223382045L599.5666666666666,183.13789868667916L679.0333333333333,185.7440901084639L758.5,199.94729542302355"></path><path fill="none" fill-opacity="1" stroke-width="2" stroke="#109618" d="M162.5,111.16666666666669L202.23333333333335,114.52005615724033L281.7,133.0493059871556L361.1666666666667,154.40241691122088L440.6333333333333,145.25431567492706L520.1,185.39899148246852L599.5666666666666,157.74058380414314L679.0333333333333,198.87320386445003L758.5,201.63694070289523"></path></g></g><g><circle fill="#3366cc" stroke-width="0" stroke="none" r="3" cy="111.16666666666669" cx="162.5"></circle><circle fill="#3366cc" stroke-width="0" stroke="none" r="3" cy="98.40630503698486" cx="202.23333333333335"></circle><circle fill="#3366cc" stroke-width="0" stroke="none" r="3" cy="112.59539805172994" cx="281.7"></circle><circle fill="#3366cc" stroke-width="0" stroke="none" r="3" cy="136.53823620104845" cx="361.1666666666667"></circle><circle fill="#3366cc" stroke-width="0" stroke="none" r="3" cy="136.6208384710235" cx="440.6333333333333"></circle><circle fill="#3366cc" stroke-width="0" stroke="none" r="3" cy="151.51601164483264" cx="520.1"></circle><circle fill="#3366cc" stroke-width="0" stroke="none" r="3" cy="183.54907195525044" cx="599.5666666666666"></circle><circle fill="#3366cc" stroke-width="0" stroke="none" r="3" cy="184.97240116205634" cx="679.0333333333333"></circle><circle fill="#3366cc" stroke-width="0" stroke="none" r="3" cy="191.09135559921415" cx="758.5"></circle><circle fill="#dc3912" stroke-width="0" stroke="none" r="3" cy="111.16666666666669" cx="162.5"></circle><circle fill="#dc3912" stroke-width="0" stroke="none" r="3" cy="108.62257877999417" cx="202.23333333333335"></circle><circle fill="#dc3912" stroke-width="0" stroke="none" r="3" cy="136.63986599664992" cx="281.7"></circle><circle fill="#dc3912" stroke-width="0" stroke="none" r="3" cy="126.46685683238252" cx="361.1666666666667"></circle><circle fill="#dc3912" stroke-width="0" stroke="none" r="3" cy="149.15069860279442" cx="440.6333333333333"></circle><circle fill="#dc3912" stroke-width="0" stroke="none" r="3" cy="137.77078446703155" cx="520.1"></circle><circle fill="#dc3912" stroke-width="0" stroke="none" r="3" cy="145.3487794996455" cx="599.5666666666666"></circle><circle fill="#dc3912" stroke-width="0" stroke="none" r="3" cy="168.3796603912883" cx="679.0333333333333"></circle><circle fill="#dc3912" stroke-width="0" stroke="none" r="3" cy="195.4640522875817" cx="758.5"></circle><circle fill="#ff9900" stroke-width="0" stroke="none" r="3" cy="111.16666666666669" cx="162.5"></circle><circle fill="#ff9900" stroke-width="0" stroke="none" r="3" cy="108.32562128692166" cx="202.23333333333335"></circle><circle fill="#ff9900" stroke-width="0" stroke="none" r="3" cy="111.65810374782825" cx="281.7"></circle><circle fill="#ff9900" stroke-width="0" stroke="none" r="3" cy="141.8711741791875" cx="361.1666666666667"></circle><circle fill="#ff9900" stroke-width="0" stroke="none" r="3" cy="146.24959871589084" cx="440.6333333333333"></circle><circle fill="#ff9900" stroke-width="0" stroke="none" r="3" cy="158.18267223382045" cx="520.1"></circle><circle fill="#ff9900" stroke-width="0" stroke="none" r="3" cy="183.13789868667916" cx="599.5666666666666"></circle><circle fill="#ff9900" stroke-width="0" stroke="none" r="3" cy="185.7440901084639" cx="679.0333333333333"></circle><circle fill="#ff9900" stroke-width="0" stroke="none" r="3" cy="199.94729542302355" cx="758.5"></circle><circle fill="#109618" stroke-width="0" stroke="none" r="3" cy="111.16666666666669" cx="162.5"></circle><circle fill="#109618" stroke-width="0" stroke="none" r="3" cy="114.52005615724033" cx="202.23333333333335"></circle><circle fill="#109618" stroke-width="0" stroke="none" r="3" cy="133.0493059871556" cx="281.7"></circle><circle fill="#109618" stroke-width="0" stroke="none" r="3" cy="154.40241691122088" cx="361.1666666666667"></circle><circle fill="#109618" stroke-width="0" stroke="none" r="3" cy="145.25431567492706" cx="440.6333333333333"></circle><circle fill="#109618" stroke-width="0" stroke="none" r="3" cy="185.39899148246852" cx="520.1"></circle><circle fill="#109618" stroke-width="0" stroke="none" r="3" cy="157.74058380414314" cx="599.5666666666666"></circle><circle fill="#109618" stroke-width="0" stroke="none" r="3" cy="198.87320386445003" cx="679.0333333333333"></circle><circle fill="#109618" stroke-width="0" stroke="none" r="3" cy="201.63694070289523" cx="758.5"></circle></g><g><g><text fill="#444444" stroke-width="0" stroke="none" font-size="14" font-family="Arial" y="425.9" x="202.23333333333335" text-anchor="middle">2</text></g><g><text fill="#444444" stroke-width="0" stroke="none" font-size="14" font-family="Arial" y="425.9" x="281.7" text-anchor="middle">4</text></g><g><text fill="#444444" stroke-width="0" stroke="none" font-size="14" font-family="Arial" y="425.9" x="361.1666666666667" text-anchor="middle">6</text></g><g><text fill="#444444" stroke-width="0" stroke="none" font-size="14" font-family="Arial" y="425.9" x="440.6333333333333" text-anchor="middle">8</text></g><g><text fill="#444444" stroke-width="0" stroke="none" font-size="14" font-family="Arial" y="425.9" x="520.1" text-anchor="middle">10</text></g><g><text fill="#444444" stroke-width="0" stroke="none" font-size="14" font-family="Arial" y="425.9" x="599.5666666666666" text-anchor="middle">12</text></g><g><text fill="#444444" stroke-width="0" stroke="none" font-size="14" font-family="Arial" y="425.9" x="679.0333333333333" text-anchor="middle">14</text></g><g><text fill="#444444" stroke-width="0" stroke="none" font-size="14" font-family="Arial" y="425.9" x="758.5" text-anchor="middle">16</text></g><g><text fill="#444444" stroke-width="0" stroke="none" font-size="14" font-family="Arial" y="409.4" x="148" text-anchor="end">0</text></g><g><text fill="#444444" stroke-width="0" stroke="none" font-size="14" font-family="Arial" y="350.7333333333333" x="148" text-anchor="end">0.2</text></g><g><text fill="#444444" stroke-width="0" stroke="none" font-size="14" font-family="Arial" y="292.06666666666666" x="148" text-anchor="end">0.4</text></g><g><text fill="#444444" stroke-width="0" stroke="none" font-size="14" font-family="Arial" y="233.40000000000003" x="148" text-anchor="end">0.6</text></g><g><text fill="#444444" stroke-width="0" stroke="none" font-size="14" font-family="Arial" y="174.73333333333335" x="148" text-anchor="end">0.8</text></g><g><text fill="#444444" stroke-width="0" stroke="none" font-size="14" font-family="Arial" y="116.06666666666669" x="148" text-anchor="end">1</text></g></g></g><g><g><text fill="#222222" stroke-width="0" stroke="none" font-style="italic" font-size="14" font-family="Arial" y="468.9" x="460.5" text-anchor="middle">threads</text><rect fill="#ffffff" fill-opacity="0" stroke-width="0" stroke="none" height="14" width="597" y="457" x="162"></rect></g><g><text fill="#222222" stroke-width="0" stroke="none" transform="rotate(-90 68.9 250.5)" font-style="italic" font-size="14" font-family="Arial" y="250.5" x="68.9" text-anchor="middle">efficiency</text><path fill="#ffffff" fill-opacity="0" stroke-width="0" stroke="none" d="M56.99999999999999,405L57.00000000000001,96L71.00000000000001,96L70.99999999999999,405Z"></path></g></g><g></g></svg>